<svg width="49" height="48" viewBox="0 0 49 48" fill="none" xmlns="http://www.w3.org/2000/svg">
<path d="M38.5 6H31.944C31.5957 5.39392 31.0942 4.89008 30.4897 4.53905C29.8852 4.18801 29.199 4.00211 28.5 4H20.5C19.801 4.00211 19.1148 4.18801 18.5103 4.53905C17.9058 4.89008 17.4043 5.39392 17.056 6H10.5C9.43913 6 8.42172 6.42143 7.67157 7.17157C6.92143 7.92172 6.5 8.93913 6.5 10V40C6.5 41.0609 6.92143 42.0783 7.67157 42.8284C8.42172 43.5786 9.43913 44 10.5 44H38.5C39.5609 44 40.5783 43.5786 41.3284 42.8284C42.0786 42.0783 42.5 41.0609 42.5 40V10C42.5 8.93913 42.0786 7.92172 41.3284 7.17157C40.5783 6.42143 39.5609 6 38.5 6ZM28.5 8V12H20.5V8H28.5ZM38.5 40H10.5V10H16.5V12C15.9696 12 15.4609 12.2107 15.0858 12.5858C14.7107 12.9609 14.5 13.4696 14.5 14C14.5 14.5304 14.7107 15.0391 15.0858 15.4142C15.4609 15.7893 15.9696 16 16.5 16H32.5C33.0304 16 33.5391 15.7893 33.9142 15.4142C34.2893 15.0391 34.5 14.5304 34.5 14C34.5 13.4696 34.2893 12.9609 33.9142 12.5858C33.5391 12.2107 33.0304 12 32.5 12V10H38.5V40Z" fill="#0E9F6E"/>
<path d="M22.548 32.858C22.025 32.8613 21.5218 32.6578 21.148 32.292L17.1 28.364C16.9114 28.1801 16.7609 27.961 16.657 27.7189C16.5532 27.4769 16.498 27.2168 16.4946 26.9535C16.4913 26.6901 16.5399 26.4287 16.6376 26.1841C16.7352 25.9395 16.8801 25.7166 17.064 25.528C17.2478 25.3394 17.467 25.1889 17.7091 25.085C17.9511 24.9812 18.2112 24.926 18.4745 24.9226C18.7379 24.9193 18.9993 24.9679 19.2439 25.0656C19.4885 25.1632 19.7114 25.3081 19.9 25.492L22.556 28.07L29.116 21.708C29.3026 21.5166 29.5257 21.3645 29.7721 21.2608C30.0185 21.1571 30.2832 21.1038 30.5506 21.1042C30.8179 21.1045 31.0825 21.1584 31.3286 21.2628C31.5747 21.3671 31.7975 21.5197 31.9836 21.7116C32.1697 21.9035 32.3155 22.1308 32.4123 22.38C32.5091 22.6292 32.555 22.8952 32.5472 23.1625C32.5394 23.4297 32.4781 23.6926 32.3669 23.9358C32.2558 24.1789 32.097 24.3973 31.9 24.578L23.95 32.292C23.5747 32.6568 23.0714 32.8601 22.548 32.858Z" fill="#0E9F6E"/>
</svg>
