<svg width="49" height="48" viewBox="0 0 49 48" fill="none" xmlns="http://www.w3.org/2000/svg">
<path d="M36.632 4H28.156C26.554 4 25.046 4.624 23.914 5.758L18.258 11.414C17.124 12.546 16.5 14.054 16.5 15.658V32C16.5 34.206 18.234 36 20.368 36H36.634C38.766 36 40.5 34.206 40.5 32V8C40.5 5.794 38.766 4 36.632 4ZM26.5 8.828V14H21.328L26.5 8.828ZM20.5 32V18H26.5C28.706 18 30.5 16.206 30.5 14V7.986L36.488 7.948C36.488 7.948 36.5 7.964 36.5 8L36.632 32H20.5Z" fill="#0E9F6E"/>
<path d="M28.5 38V40H12.5L12.498 16H14.5V12H12.5C10.294 12 8.5 13.794 8.5 16V40C8.5 42.206 10.234 44 12.368 44H28.568C29.66 44 30.682 43.568 31.442 42.782C32.164 42.036 32.462 41.07 32.49 40L32.5 38H28.5Z" fill="#0E9F6E"/>
</svg>
