<svg width="48" height="48" viewBox="0 0 48 48" fill="none" xmlns="http://www.w3.org/2000/svg">
<path d="M32.908 36.906C32.66 37.154 32.386 37.37 32.102 37.568L32.134 40H8V18H14C16.206 18 18 16.206 18 14V8H32V10C32 10.094 32.04 10.174 32.054 10.262C33.216 9.302 34.55 8.62 36 8.282V8C36 5.794 34.266 4 32.134 4H15.658C14.054 4 12.546 4.624 11.414 5.758L5.758 11.414C4.624 12.546 4 14.054 4 15.658V40C4 42.206 5.734 44 7.866 44H32.134C34.266 44 36 42.206 36 40V33.814L32.908 36.906ZM14 8.828V14H8.828L14 8.828Z" fill="#0E9F6E"/>
<path d="M21.922 36C22.046 36 22.174 35.988 22.3 35.962L29.098 34.602C29.47 34.528 29.812 34.344 30.08 34.076L42.314 21.842C44.564 19.594 44.564 15.934 42.314 13.686C41.188 12.562 39.712 12 38.234 12C36.758 12 35.28 12.562 34.156 13.688L21.922 25.922C21.654 26.19 21.47 26.532 21.396 26.904L20.036 33.702C19.91 34.332 20.108 34.984 20.562 35.438C20.928 35.802 21.418 36 21.922 36ZM36.876 16.406C37.25 16.032 37.744 15.844 38.236 15.844C38.728 15.844 39.22 16.032 39.596 16.406C40.346 17.156 40.346 18.376 39.596 19.126L38.964 19.758L36.244 17.038L36.876 16.406ZM25.054 28.228L33.526 19.754L36.246 22.474L27.772 30.946L24.374 31.626L25.054 28.228Z" fill="#0E9F6E"/>
</svg>
