<svg width="49" height="48" viewBox="0 0 49 48" fill="none" xmlns="http://www.w3.org/2000/svg">
<path d="M38.5 40H36.5V33.334C36.4978 32.0361 36.077 30.7736 35.3 29.734L31 24L35.3 18.268C36.0764 17.2281 36.4971 15.9658 36.5 14.668V8H38.5C39.0304 8 39.5391 7.78929 39.9142 7.41421C40.2893 7.03914 40.5 6.53043 40.5 6C40.5 5.46957 40.2893 4.96086 39.9142 4.58579C39.5391 4.21071 39.0304 4 38.5 4H10.5C9.96957 4 9.46086 4.21071 9.08579 4.58579C8.71071 4.96086 8.5 5.46957 8.5 6C8.5 6.53043 8.71071 7.03914 9.08579 7.41421C9.46086 7.78929 9.96957 8 10.5 8H12.5V14.666C12.5022 15.9639 12.923 17.2264 13.7 18.266L18 24L13.7 29.732C12.9236 30.7719 12.5029 32.0342 12.5 33.332V40H10.5C9.96957 40 9.46086 40.2107 9.08579 40.5858C8.71071 40.9609 8.5 41.4696 8.5 42C8.5 42.5304 8.71071 43.0391 9.08579 43.4142C9.46086 43.7893 9.96957 44 10.5 44H38.5C39.0304 44 39.5391 43.7893 39.9142 43.4142C40.2893 43.0391 40.5 42.5304 40.5 42C40.5 41.4696 40.2893 40.9609 39.9142 40.5858C39.5391 40.2107 39.0304 40 38.5 40ZM16.5 40V33.334C16.5016 32.9015 16.6418 32.4809 16.9 32.134L21.2 26.4C21.7171 25.7067 21.9965 24.8649 21.9965 24C21.9965 23.1351 21.7171 22.2933 21.2 21.6L16.9 15.866C16.6411 15.5194 16.5009 15.0986 16.5 14.666V8H32.5V14.666C32.4984 15.0985 32.3582 15.5191 32.1 15.866L27.8 21.6C27.2829 22.2933 27.0035 23.1351 27.0035 24C27.0035 24.8649 27.2829 25.7067 27.8 26.4L32.1 32.136C32.3589 32.4826 32.4991 32.9034 32.5 33.336V40H16.5Z" fill="#0E9F6E"/>
</svg>
