<svg width="48" height="48" viewBox="0 0 48 48" fill="none" xmlns="http://www.w3.org/2000/svg">
<path d="M40 6H8C6.93913 6 5.92172 6.42143 5.17157 7.17157C4.42143 7.92172 4 8.93913 4 10V38C4 39.0609 4.42143 40.0783 5.17157 40.8284C5.92172 41.5786 6.93913 42 8 42H40C41.0609 42 42.0783 41.5786 42.8284 40.8284C43.5786 40.0783 44 39.0609 44 38V10C44 8.93913 43.5786 7.92172 42.8284 7.17157C42.0783 6.42143 41.0609 6 40 6ZM8 38V10H40V38H8Z" fill="#0E9F6E"/>
<path d="M32.6 24.928C32.4308 24.6605 32.2006 24.437 31.9282 24.2758C31.6558 24.1147 31.349 24.0205 31.0331 24.0009C30.7172 23.9814 30.4012 24.0371 30.111 24.1635C29.8209 24.2899 29.5648 24.4834 29.364 24.728L26.272 28.502L20.728 19C20.553 18.6804 20.291 18.4169 19.9725 18.2399C19.654 18.0629 19.2918 17.9798 18.928 18C18.5675 18.0113 18.2167 18.1198 17.9129 18.3142C17.609 18.5085 17.3634 18.7814 17.202 19.104L10.202 33.104C10.0488 33.4097 9.97656 33.7495 9.99213 34.0911C10.0077 34.4326 10.1106 34.7645 10.2909 35.055C10.4712 35.3454 10.723 35.5848 11.0223 35.7503C11.3215 35.9157 11.6581 36.0017 12 36H36C36.3582 35.9999 36.7098 35.9037 37.018 35.7213C37.3263 35.5389 37.5799 35.277 37.7524 34.9631C37.9249 34.6492 38.0099 34.2948 37.9986 33.9368C37.9872 33.5788 37.88 33.2304 37.688 32.928L32.6 24.928Z" fill="#0E9F6E"/>
<path d="M29 20C30.6569 20 32 18.6569 32 17C32 15.3431 30.6569 14 29 14C27.3431 14 26 15.3431 26 17C26 18.6569 27.3431 20 29 20Z" fill="#0E9F6E"/>
</svg>
