<svg width="49" height="48" viewBox="0 0 49 48" fill="none" xmlns="http://www.w3.org/2000/svg">
<path d="M40.5 27.5904H30.5V28.616C30.4945 29.6993 30.2073 30.7614 29.668 31.6928H40.5V39.8976H8.5V31.6928H19.332C18.7927 30.7614 18.5055 29.6993 18.5 28.616V27.5904H8.5C7.43913 27.5904 6.42172 28.0226 5.67157 28.792C4.92143 29.5613 4.5 30.6048 4.5 31.6928V39.8976C4.5 40.9856 4.92143 42.0291 5.67157 42.7984C6.42172 43.5678 7.43913 44 8.5 44H40.5C41.5609 44 42.5783 43.5678 43.3284 42.7984C44.0786 42.0291 44.5 40.9856 44.5 39.8976V31.6928C44.5 30.6048 44.0786 29.5613 43.3284 28.792C42.5783 28.0226 41.5609 27.5904 40.5 27.5904Z" fill="#0E9F6E"/>
<path d="M17.914 15.7078L22.5 11.0044V28.616C22.5 29.16 22.7107 29.6817 23.0858 30.0664C23.4609 30.4511 23.9696 30.6672 24.5 30.6672C25.0304 30.6672 25.5391 30.4511 25.9142 30.0664C26.2893 29.6817 26.5 29.16 26.5 28.616V11.0044L31.086 15.7078C31.4632 16.0815 31.9684 16.2882 32.4928 16.2835C33.0172 16.2789 33.5188 16.0631 33.8896 15.6828C34.2605 15.3025 34.4708 14.788 34.4753 14.2502C34.4799 13.7124 34.2783 13.1943 33.914 12.8074L25.914 4.60262C25.7282 4.4116 25.5075 4.26004 25.2645 4.15663C25.0216 4.05323 24.7611 4 24.498 4C24.2349 4 23.9744 4.05323 23.7315 4.15663C23.4885 4.26004 23.2678 4.4116 23.082 4.60262L15.082 12.8074C14.707 13.1926 14.4965 13.7147 14.4969 14.2591C14.4973 14.8034 14.7085 15.3252 15.084 15.7099C15.4595 16.0945 15.9687 16.3103 16.4994 16.31C17.0301 16.3096 17.539 16.093 17.914 15.7078Z" fill="#0E9F6E"/>
<path d="M34.5 37.8464C35.6046 37.8464 36.5 36.9281 36.5 35.7952C36.5 34.6624 35.6046 33.744 34.5 33.744C33.3954 33.744 32.5 34.6624 32.5 35.7952C32.5 36.9281 33.3954 37.8464 34.5 37.8464Z" fill="#0E9F6E"/>
</svg>
