<svg width="220" height="307" viewBox="0 0 220 307" fill="none" xmlns="http://www.w3.org/2000/svg">
<path d="M97.1591 291H16.5128V72.8182H97.0526C119.283 72.8182 138.423 77.1861 154.474 85.9219C170.597 94.5866 183.026 107.087 191.761 123.422C200.497 139.686 204.865 159.146 204.865 181.803C204.865 204.53 200.497 224.061 191.761 240.396C183.097 256.732 170.703 269.267 154.581 278.003C138.459 286.668 119.318 291 97.1591 291ZM69.2472 246.043H95.1349C107.351 246.043 117.685 243.983 126.136 239.864C134.659 235.673 141.087 228.891 145.419 219.516C149.822 210.07 152.024 197.499 152.024 181.803C152.024 166.107 149.822 153.607 145.419 144.303C141.016 134.928 134.517 128.18 125.923 124.061C117.401 119.871 106.889 117.776 94.3892 117.776H69.2472V246.043Z" fill="#C53030"/>
<path d="M169 63H28L169 37V63Z" fill="url(#paint0_linear_2181_3387)"/>
<path d="M144.007 39.0129L27.8313 60.6249L139.252 13.4514L144.007 39.0129Z" fill="url(#paint1_linear_2181_3387)"/>
<path d="M50 69C30.1173 66.4345 28.6667 65.8333 28 65H193.5V120.5C173.5 80.1 124.833 70.6667 103 71C86 71 65.5 71 50 69Z" fill="url(#paint2_linear_2181_3387)"/>
<path d="M91 73C90.4307 73.0599 88.095 73.0692 84.6113 73H1C1.4 62.2 24.0003 56.5 27.5005 55C25.6672 56.8333 22.4005 61.3 24.0005 64.5C28.9219 70.7338 68.7158 72.6842 84.6113 73H91Z" fill="url(#paint3_linear_2181_3387)"/>
<path d="M1 73H17V291H15C7.26801 291 1 284.732 1 277V73Z" fill="#C53030"/>
<path d="M33 68.5V291" stroke="#B72024"/>
<path d="M5.5 84.5C9.5 86.3333 19.4 89.7 27 88.5" stroke="#B72024"/>
<path d="M5.5 94.5C9.5 96.3333 19.4 99.7 27 98.5" stroke="#B72024"/>
<defs>
<linearGradient id="paint0_linear_2181_3387" x1="99" y1="50" x2="99" y2="63" gradientUnits="userSpaceOnUse">
<stop offset="0.0402651" stop-color="#C53030"/>
<stop offset="1" stop-color="#B72024"/>
</linearGradient>
<linearGradient id="paint1_linear_2181_3387" x1="81.7445" y1="36.7912" x2="86.188" y2="49.7266" gradientUnits="userSpaceOnUse">
<stop stop-color="#C53030"/>
<stop offset="1" stop-color="#B72024"/>
</linearGradient>
<linearGradient id="paint2_linear_2181_3387" x1="110.75" y1="65" x2="111" y2="91" gradientUnits="userSpaceOnUse">
<stop stop-color="#C53030"/>
<stop offset="1" stop-color="#B72024"/>
</linearGradient>
<linearGradient id="paint3_linear_2181_3387" x1="54" y1="60" x2="53.75" y2="73.0485" gradientUnits="userSpaceOnUse">
<stop stop-color="#B72024"/>
<stop offset="1" stop-color="#C53030"/>
</linearGradient>
</defs>
</svg>
