<svg width="778" height="390" viewBox="0 0 778 390" fill="none" xmlns="http://www.w3.org/2000/svg">
<path d="M97.1591 304H16.5128V85.8182H97.0526C119.283 85.8182 138.423 90.1861 154.474 98.9219C170.597 107.587 183.026 120.087 191.761 136.422C200.497 152.686 204.865 172.146 204.865 194.803C204.865 217.53 200.497 237.061 191.761 253.396C183.097 269.732 170.703 282.267 154.581 291.003C138.459 299.668 119.318 304 97.1591 304ZM69.2472 259.043H95.1349C107.351 259.043 117.685 256.983 126.136 252.864C134.659 248.673 141.087 241.891 145.419 232.516C149.822 223.07 152.024 210.499 152.024 194.803C152.024 179.107 149.822 166.607 145.419 157.303C141.016 147.928 134.517 141.18 125.923 137.061C117.401 132.871 106.889 130.776 94.3892 130.776H69.2472V259.043Z" fill="#E4262C"/>
<path d="M169.163 76H28.0273L169.163 50V76Z" fill="url(#paint0_linear_2238_4302)"/>
<path d="M144.145 52.0129L27.8574 73.6249L139.385 26.4514L144.145 52.0129Z" fill="url(#paint1_linear_2238_4302)"/>
<path d="M50.0485 82C30.1467 79.4345 28.6947 78.8333 28.0273 78H193.686V133.5C173.667 93.1 124.954 83.6667 103.099 84C86.083 84 65.5634 84 50.0485 82Z" fill="url(#paint2_linear_2238_4302)"/>
<path d="M91.0865 86C90.5167 86.0599 88.1786 86.0692 84.6916 86H1C1.40038 75.2 24.0224 69.5 27.526 68C25.6909 69.8333 22.4211 74.3 24.0226 77.5C28.9488 83.7338 68.7809 85.6842 84.6916 86H91.0865Z" fill="url(#paint3_linear_2238_4302)"/>
<path d="M1 86H17.0154V304H15C7.26801 304 1 297.732 1 290V86Z" fill="#E4262C"/>
<path d="M33.0312 81.5V304" stroke="#B72024"/>
<path d="M5.50586 97.5C9.5097 99.3333 19.4192 102.7 27.0265 101.5" stroke="#B72024"/>
<path d="M5.50586 107.5C9.5097 109.333 19.4192 112.7 27.0265 111.5" stroke="#B72024"/>
<path d="M221.91 285.879C221.129 285.098 220.738 283.242 220.738 280.312C220.738 277.578 221.129 276.211 221.91 276.211C223.473 276.211 225.523 275.82 228.062 275.039C230.602 274.258 232.945 273.281 235.094 272.109C237.438 270.938 238.707 269.961 238.902 269.18C239.684 265.859 240.27 262.344 240.66 258.633C241.051 254.922 241.246 251.211 241.246 247.5V200.332C241.246 191.152 239.684 184.902 236.559 181.582C234.801 179.434 232.555 177.969 229.82 177.188C227.281 176.406 224.938 175.918 222.789 175.723C220.836 175.527 219.859 175.234 219.859 174.844C219.859 168.984 220.348 166.055 221.324 166.055C227.574 165.273 234.41 164.199 241.832 162.832C249.449 161.27 256.285 159.805 262.34 158.438L271.715 156.094C273.082 156.094 273.766 158.047 273.766 161.953C273.766 164.492 273.375 168.203 272.594 173.086C272.008 177.773 271.715 182.461 271.715 187.148V242.812C271.715 255.117 272.398 263.906 273.766 269.18C274.156 269.961 275.426 270.938 277.574 272.109C279.723 273.281 282.066 274.258 284.605 275.039C287.145 275.82 288.902 276.211 289.879 276.211C290.465 276.211 290.758 277.578 290.758 280.312C290.953 283.047 290.855 284.902 290.465 285.879C284.41 285.488 278.258 285.098 272.008 284.707C265.758 284.316 260.582 284.121 256.48 284.121C250.426 284.121 244.176 284.316 237.73 284.707C231.48 285.098 226.207 285.488 221.91 285.879ZM254.137 125.625C249.254 125.625 245.055 123.867 241.539 120.352C238.023 116.836 236.266 112.637 236.266 107.754C236.266 102.871 238.023 98.7695 241.539 95.4492C245.055 91.9336 249.254 90.1758 254.137 90.1758C259.02 90.1758 263.121 91.9336 266.441 95.4492C269.957 98.7695 271.715 102.871 271.715 107.754C271.715 112.637 269.957 116.836 266.441 120.352C263.121 123.867 259.02 125.625 254.137 125.625ZM357.262 350.039C347.887 350.039 339.098 348.77 330.895 346.23C322.887 343.887 316.344 340.273 311.266 335.391C306.383 330.508 303.941 324.648 303.941 317.812C303.941 312.148 306.676 306.68 312.145 301.406C317.809 296.133 323.863 292.422 330.309 290.273C325.23 288.711 320.543 285.781 316.246 281.484C311.949 276.992 309.801 271.816 309.801 265.957C309.801 257.754 317.027 249.062 331.48 239.883C327.77 238.125 324.059 235.293 320.348 231.387C316.832 227.285 313.902 222.598 311.559 217.324C309.41 211.855 308.336 206.387 308.336 200.918C308.336 191.543 310.68 183.535 315.367 176.895C320.055 170.254 326.305 165.176 334.117 161.66C342.125 157.949 351.012 156.094 360.777 156.094C368.199 156.094 376.305 157.363 385.094 159.902C393.883 162.441 401.695 163.711 408.531 163.711H425.23C425.621 163.711 426.305 164.98 427.281 167.52C428.258 170.059 428.746 172.012 428.746 173.379C428.746 176.113 428.16 177.48 426.988 177.48H407.945C407.164 177.48 406.773 177.773 406.773 178.359L409.41 185.977C411.168 190.859 412.047 195.547 412.047 200.039C412.047 207.656 409.801 214.98 405.309 222.012C401.012 228.848 395.055 234.414 387.438 238.711C379.82 243.008 371.129 245.156 361.363 245.156C357.848 245.156 354.527 245.059 351.402 244.863C348.473 244.668 345.738 244.375 343.199 243.984C340.855 244.961 338.707 246.816 336.754 249.551C334.801 252.09 333.824 254.434 333.824 256.582C333.824 259.316 335.582 261.367 339.098 262.734C342.613 264.102 347.008 265.078 352.281 265.664C357.75 266.055 363.023 266.25 368.102 266.25H371.324C390.855 266.25 405.113 268.789 414.098 273.867C423.277 278.945 427.867 286.27 427.867 295.84C428.062 305.605 424.84 314.59 418.199 322.793C411.559 330.996 402.867 337.539 392.125 342.422C381.383 347.5 369.762 350.039 357.262 350.039ZM360.777 232.559C368.004 232.559 373.277 229.824 376.598 224.355C380.113 218.691 381.871 211.758 381.871 203.555C381.871 193.203 379.918 184.805 376.012 178.359C372.105 171.914 366.441 168.691 359.02 168.691C351.988 168.691 346.812 171.719 343.492 177.773C340.172 183.828 338.512 190.762 338.512 198.574C338.512 208.145 340.465 216.25 344.371 222.891C348.277 229.336 353.746 232.559 360.777 232.559ZM364 335.977C374.938 335.977 383.824 333.438 390.66 328.359C397.691 323.281 401.207 316.934 401.207 309.316C401.207 302.48 396.324 297.988 386.559 295.84C381.676 294.668 376.207 293.789 370.152 293.203C364.098 292.812 358.531 292.617 353.453 292.617C350.328 292.617 346.715 293.105 342.613 294.082C338.707 295.059 335.289 296.914 332.359 299.648C329.43 302.383 327.965 306.289 327.965 311.367C327.965 316.055 329.625 320.254 332.945 323.965C336.461 327.676 340.953 330.605 346.422 332.754C352.086 334.902 357.945 335.977 364 335.977ZM506.383 286.758C495.055 286.758 484.605 283.926 475.035 278.262C465.66 272.402 458.141 264.59 452.477 254.824C446.812 244.863 443.98 233.926 443.98 222.012C443.98 208.73 446.617 197.109 451.891 187.148C457.164 177.188 464.293 169.473 473.277 164.004C482.457 158.34 492.906 155.508 504.625 155.508C514.195 155.508 522.398 157.266 529.234 160.781C536.07 164.297 541.637 168.887 545.934 174.551C550.426 180.02 553.648 185.879 555.602 192.129C557.75 198.184 558.824 203.848 558.824 209.121C558.824 213.418 558.043 216.152 556.48 217.324C555.113 218.301 552.184 218.789 547.691 218.789H477.672C476.305 218.789 475.621 219.375 475.621 220.547C475.621 227.773 476.891 234.609 479.43 241.055C481.969 247.695 486.266 253.457 492.32 258.34C498.57 263.223 505.992 265.664 514.586 265.664C519.664 265.664 523.863 265.273 527.184 264.492C530.504 263.711 533.727 262.832 536.852 261.855C538.414 261.27 540.367 260.293 542.711 258.926C545.055 257.363 547.203 255.996 549.156 254.824C551.109 253.457 552.086 252.773 552.086 252.773C552.477 252.969 552.965 253.555 553.551 254.531C554.137 255.508 554.43 256.484 554.43 257.461C554.43 259.609 553.844 261.465 552.672 263.027C550.719 266.543 547.398 270.156 542.711 273.867C538.219 277.383 532.848 280.41 526.598 282.949C520.348 285.488 513.609 286.758 506.383 286.758ZM477.672 204.727H525.133C526.891 204.727 527.77 203.262 527.77 200.332C527.77 195.645 526.695 190.957 524.547 186.27C522.594 181.387 519.664 177.285 515.758 173.965C512.047 170.645 507.652 168.984 502.574 168.984C496.52 168.984 491.441 171.035 487.34 175.137C483.434 179.238 480.504 183.926 478.551 189.199C476.793 194.473 475.914 198.965 475.914 202.676C475.914 204.043 476.5 204.727 477.672 204.727ZM614.781 287.93C602.477 287.93 589.879 285.195 576.988 279.727C576.402 277.383 575.719 274.062 574.938 269.766C574.352 265.469 573.766 261.172 573.18 256.875C572.789 252.383 572.594 248.965 572.594 246.621C573.961 245.645 575.328 245.156 576.695 245.156C580.992 245.156 583.336 245.938 583.727 247.5C585.289 255.703 589.098 262.344 595.152 267.422C601.402 272.305 608.141 274.746 615.367 274.746C620.836 274.746 625.328 273.379 628.844 270.645C632.359 267.715 634.117 263.418 634.117 257.754C634.117 253.652 632.555 249.941 629.43 246.621C626.305 243.105 623.375 240.664 620.641 239.297L601.305 229.043C592.32 224.355 585.387 219.18 580.504 213.516C575.621 207.656 573.18 200.625 573.18 192.422C573.18 184.414 575.328 177.676 579.625 172.207C584.117 166.738 589.879 162.539 596.91 159.609C604.137 156.68 611.852 155.215 620.055 155.215C630.602 155.215 641.93 156.875 654.039 160.195C655.016 164.492 655.699 169.375 656.09 174.844C656.676 180.312 657.066 186.367 657.262 193.008C657.262 194.57 655.992 195.352 653.453 195.352C649.156 195.352 646.812 194.57 646.422 193.008C645.055 186.172 642.125 180.41 637.633 175.723C633.336 170.84 627.477 168.398 620.055 168.398C614.391 168.398 609.898 169.668 606.578 172.207C603.453 174.746 601.891 178.359 601.891 183.047C601.891 188.125 603.844 192.422 607.75 195.938C611.656 199.453 616.93 202.871 623.57 206.191C628.648 208.73 633.531 211.465 638.219 214.395C643.102 217.324 647.691 220.547 651.988 224.062C659.605 230.117 663.414 238.125 663.414 248.086C663.414 256.289 661.168 263.418 656.676 269.473C652.379 275.332 646.52 279.922 639.098 283.242C631.871 286.367 623.766 287.93 614.781 287.93ZM736.656 287.051C726.5 287.051 717.809 283.828 710.582 277.383C703.551 270.742 700.035 260.586 700.035 246.914V176.016H682.164C680.797 176.016 680.113 173.477 680.113 168.398C680.113 166.836 680.211 165.957 680.406 165.762C684.312 164.004 688.121 161.855 691.832 159.316C695.543 156.582 699.254 153.555 702.965 150.234C708.629 144.57 713.219 139.688 716.734 135.586C720.25 131.289 722.008 129.141 722.008 129.141C722.984 129.141 723.961 129.238 724.938 129.434C725.914 129.434 726.793 129.531 727.574 129.727C729.332 130.312 730.211 130.898 730.211 131.484V160.195H751.598C756.09 160.195 759.508 160.293 761.852 160.488C764.391 160.488 765.758 160.488 765.953 160.488C767.516 160.488 768.297 161.367 768.297 163.125C768.297 168.008 767.32 172.305 765.367 176.016H730.211V246.621C730.211 254.434 731.871 260.391 735.191 264.492C738.512 268.594 743.102 270.645 748.961 270.645C753.062 270.645 756.871 269.863 760.387 268.301C763.902 266.543 765.855 265.664 766.246 265.664C767.027 265.469 767.906 266.348 768.883 268.301C769.859 270.254 770.25 271.523 770.055 272.109C769.273 273.867 767.027 275.918 763.316 278.262C759.801 280.605 755.602 282.656 750.719 284.414C746.031 286.172 741.344 287.051 736.656 287.051Z" fill="#E4262C"/>
<defs>
<linearGradient id="paint0_linear_2238_4302" x1="99.0955" y1="63" x2="99.0955" y2="76" gradientUnits="userSpaceOnUse">
<stop offset="0.0402651" stop-color="#E4262C"/>
<stop offset="1" stop-color="#B72024"/>
</linearGradient>
<linearGradient id="paint1_linear_2238_4302" x1="81.8224" y1="49.7912" x2="86.2625" y2="62.7292" gradientUnits="userSpaceOnUse">
<stop stop-color="#E4262C"/>
<stop offset="1" stop-color="#B72024"/>
</linearGradient>
<linearGradient id="paint2_linear_2238_4302" x1="110.857" y1="78" x2="111.107" y2="104" gradientUnits="userSpaceOnUse">
<stop stop-color="#E4262C"/>
<stop offset="1" stop-color="#B72024"/>
</linearGradient>
<linearGradient id="paint3_linear_2238_4302" x1="54.0509" y1="73" x2="53.8012" y2="86.0485" gradientUnits="userSpaceOnUse">
<stop stop-color="#B72024"/>
<stop offset="1" stop-color="#E4262C"/>
</linearGradient>
</defs>
</svg>
