<svg width="12" height="12" viewBox="0 0 12 12" fill="none" xmlns="http://www.w3.org/2000/svg">
<path d="M9.13784 4.862C9.01282 4.73702 8.84328 4.66681 8.6665 4.66681C8.48973 4.66681 8.32019 4.73702 8.19517 4.862L6.6665 6.39067V0.666667C6.6665 0.489856 6.59627 0.320286 6.47124 0.195262C6.34622 0.0702379 6.17665 0 5.99984 0C5.82303 0 5.65346 0.0702379 5.52843 0.195262C5.40341 0.320286 5.33317 0.489856 5.33317 0.666667V6.39067L3.8045 4.862C3.74301 4.79833 3.66944 4.74754 3.58811 4.7126C3.50677 4.67766 3.41929 4.65927 3.33077 4.6585C3.24225 4.65773 3.15447 4.6746 3.07253 4.70812C2.9906 4.74164 2.91617 4.79114 2.85357 4.85374C2.79098 4.91633 2.74148 4.99077 2.70796 5.0727C2.67444 5.15463 2.65757 5.24241 2.65834 5.33093C2.65911 5.41945 2.6775 5.50693 2.71244 5.58827C2.74738 5.66961 2.79816 5.74317 2.86184 5.80467L5.5285 8.47133C5.59043 8.53342 5.664 8.58267 5.74499 8.61628C5.82599 8.64989 5.91281 8.66719 6.0005 8.66719C6.08819 8.66719 6.17502 8.64989 6.25601 8.61628C6.33701 8.58267 6.41058 8.53342 6.4725 8.47133L9.13917 5.80467C9.26397 5.67947 9.33395 5.50983 9.3337 5.33306C9.33345 5.15628 9.26299 4.98684 9.13784 4.862Z" fill="#888988"/>
<path d="M9.33317 12H2.6665C2.13607 12 1.62736 11.7893 1.25229 11.4142C0.877218 11.0391 0.666504 10.5304 0.666504 10V8C0.666504 7.82319 0.736742 7.65362 0.861766 7.5286C0.98679 7.40357 1.15636 7.33333 1.33317 7.33333C1.50998 7.33333 1.67955 7.40357 1.80457 7.5286C1.9296 7.65362 1.99984 7.82319 1.99984 8V10C1.99984 10.1768 2.07008 10.3464 2.1951 10.4714C2.32012 10.5964 2.48969 10.6667 2.6665 10.6667H9.33317C9.50998 10.6667 9.67955 10.5964 9.80457 10.4714C9.9296 10.3464 9.99984 10.1768 9.99984 10V8C9.99984 7.82319 10.0701 7.65362 10.1951 7.5286C10.3201 7.40357 10.4897 7.33333 10.6665 7.33333C10.8433 7.33333 11.0129 7.40357 11.1379 7.5286C11.2629 7.65362 11.3332 7.82319 11.3332 8V10C11.3332 10.5304 11.1225 11.0391 10.7474 11.4142C10.3723 11.7893 9.8636 12 9.33317 12Z" fill="#888988"/>
</svg>
