<svg width="154" height="121" viewBox="0 0 154 121" fill="none" xmlns="http://www.w3.org/2000/svg">
<path d="M38.6558 120.651C38.6558 120.651 -15.4708 98.9044 15.2094 69.5715C45.8896 40.2387 89.4184 32.9183 114.631 44.2237C139.843 55.5291 142.319 102.215 112.246 120.651H38.6558Z" fill="#E6F5FF"/>
<path d="M72.1627 0.807007H32.6445V23.5585H72.1627V0.807007Z" fill="white"/>
<path d="M38.3848 2.8645H35.0435V6.22554H38.3848V2.8645Z" fill="#C53030"/>
<path d="M57.1053 2.8645H39.563V4.17881H57.1053V2.8645Z" fill="#C53030"/>
<path d="M48.452 4.91125H39.563V6.22549H48.452V4.91125Z" fill="#C53030"/>
<path d="M38.3848 8.05457H35.0435V11.4156H38.3848V8.05457Z" fill="#C53030"/>
<path d="M57.1053 8.05457H39.563V9.3688H57.1053V8.05457Z" fill="#C53030"/>
<path d="M48.452 10.1014H39.563V11.4156H48.452V10.1014Z" fill="#C53030"/>
<path d="M38.3848 13.2448H35.0435V16.6058H38.3848V13.2448Z" fill="#C53030"/>
<path d="M57.1053 13.2448H39.563V14.559H57.1053V13.2448Z" fill="#C53030"/>
<path d="M48.452 15.2916H39.563V16.6058H48.452V15.2916Z" fill="#C53030"/>
<path d="M38.3848 18.4349H35.0435V21.796H38.3848V18.4349Z" fill="#C53030"/>
<path d="M57.1053 18.4349H39.563V19.7491H57.1053V18.4349Z" fill="#C53030"/>
<path d="M48.452 20.4817H39.563V21.796H48.452V20.4817Z" fill="#C53030"/>
<path d="M71.0701 2.67065H58.54V12.506H71.0701V2.67065Z" fill="#C53030"/>
<path d="M71.0701 13.7079H58.54V22.1041H71.0701V13.7079Z" fill="#C53030"/>
<path d="M59.6968 10.1014C60.5001 7.97065 61.8495 5.493 62.9098 6.9149C63.97 8.33687 65.48 9.81909 65.8334 9.36882C66.1869 8.91861 66.9579 7.46422 67.8897 7.33508C68.8214 7.2058 70.4277 10.1014 70.4277 10.1014H59.6968Z" fill="#C53030"/>
<path d="M59.6968 20.2378C60.5001 18.1071 61.8495 15.6293 62.9098 17.0513C63.97 18.4733 65.48 19.9555 65.8334 19.5053C66.1869 19.055 66.9579 17.6007 67.8897 17.4715C68.8214 17.3422 70.4277 20.2378 70.4277 20.2378H59.6968Z" fill="#C53030"/>
<path d="M35.2578 4.42653L36.0718 5.7407L38.1495 4.01715L38.0423 3.90942L36.0905 5.21019L35.3194 4.34568L35.2578 4.42653Z" fill="#3F83F8"/>
<path d="M35.2578 9.44435L36.0718 10.7587L38.1495 9.03498L38.0423 8.92725L36.0905 10.2281L35.3194 9.36357L35.2578 9.44435Z" fill="#3F83F8"/>
<path d="M35.2578 14.4622L36.0718 15.7765L38.1495 14.0529L38.0423 13.9452L36.0905 15.2459L35.3194 14.3814L35.2578 14.4622Z" fill="#3F83F8"/>
<path d="M35.2578 19.4801L36.0718 20.7943L38.1495 19.0707L38.0423 18.963L36.0905 20.2638L35.3194 19.3993L35.2578 19.4801Z" fill="#3F83F8"/>
<path d="M62.5284 32.4619H23.0103V55.2135H62.5284V32.4619Z" fill="white"/>
<path d="M41.9303 35.0118H26.123V35.9598H41.9303V35.0118Z" fill="#C53030"/>
<path d="M35.4189 36.7786H26.123V37.7266H35.4189V36.7786Z" fill="#C53030"/>
<path d="M41.9303 40.1396H26.123V41.0877H41.9303V40.1396Z" fill="#C53030"/>
<path d="M35.4189 41.9064H26.123V42.8544H35.4189V41.9064Z" fill="#C53030"/>
<path d="M41.9303 45.2673H26.123V46.2154H41.9303V45.2673Z" fill="#C53030"/>
<path d="M35.4189 47.0339H26.123V47.982H35.4189V47.0339Z" fill="#C53030"/>
<path d="M41.9303 50.395H26.123V51.343H41.9303V50.395Z" fill="#C53030"/>
<path d="M35.4189 52.1617H26.123V53.1098H35.4189V52.1617Z" fill="#C53030"/>
<path d="M59.408 44.298C59.408 48.1891 56.2722 51.3433 52.4039 51.3433C48.5357 51.3433 45.3999 48.1891 45.3999 44.298C45.3999 40.4071 48.5357 37.2528 52.4039 37.2528C52.6519 37.2528 52.8974 37.2657 53.1391 37.2916L52.4039 44.298L59.3263 43.22C59.3804 43.5715 59.408 43.9316 59.408 44.298Z" fill="#3F83F8"/>
<path d="M59.9473 42.598L53.0249 43.6761L53.7601 36.6697C56.9279 37.0019 59.468 39.4581 59.9473 42.598Z" fill="#C53030"/>
<path d="M153.951 64.624H131.99V93.1738H153.951V64.624Z" fill="white"/>
<path d="M150.98 66.9618H134.961V68.2159H150.98V66.9618Z" fill="#C53030"/>
<path d="M150.98 69.4355H134.961V70.6897H150.98V69.4355Z" fill="#C53030"/>
<path d="M150.98 71.9093H134.961V73.1635H150.98V71.9093Z" fill="#C53030"/>
<path d="M145.807 74.3832H134.961V75.6373H145.807V74.3832Z" fill="#C53030"/>
<path d="M150.98 76.8568H134.961V78.111H150.98V76.8568Z" fill="#C53030"/>
<path d="M150.98 79.3306H134.961V80.5848H150.98V79.3306Z" fill="#C53030"/>
<path d="M150.98 84.3593H142.971V91.2638H150.98V84.3593Z" fill="#C53030"/>
<path d="M142.313 84.3593H134.961V91.2638H142.313V84.3593Z" fill="#C53030"/>
<path d="M142.97 81.8044H134.961V83.0586H142.97V81.8044Z" fill="#C53030"/>
<path d="M136.423 15.0117H114.462V43.5614H136.423V15.0117Z" fill="white"/>
<path d="M133.452 25.3978H117.433V26.6519H133.452V25.3978Z" fill="#C53030"/>
<path d="M133.452 27.8716H117.433V29.1257H133.452V27.8716Z" fill="#C53030"/>
<path d="M133.452 18.6479H125.267V19.9021H133.452V18.6479Z" fill="#C53030"/>
<path d="M130.604 21.1217H125.267V22.3758H130.604V21.1217Z" fill="#C53030"/>
<path d="M133.452 34.807H125.267V36.0611H133.452V34.807Z" fill="#C53030"/>
<path d="M130.604 37.2808H125.267V38.5349H130.604V37.2808Z" fill="#C53030"/>
<path d="M124.527 33.7477H117.691V40.1673H124.527V33.7477Z" fill="#C53030"/>
<path d="M125.443 30.3453H117.433V31.5995H125.443V30.3453Z" fill="#C53030"/>
<path d="M119.692 21.6891C120.743 21.6891 121.595 20.8323 121.595 19.7753C121.595 18.7184 120.743 17.8616 119.692 17.8616C118.641 17.8616 117.79 18.7184 117.79 19.7753C117.79 20.8323 118.641 21.6891 119.692 21.6891Z" stroke="#3F83F8" stroke-width="8" stroke-miterlimit="10"/>
<path d="M39.5752 62.9288H0.0571289V85.6803H39.5752V62.9288Z" fill="white"/>
<path d="M9.00542 77.6031H6.54443V81.9567H9.00542V77.6031Z" fill="#3F83F8"/>
<path d="M13.3418 75.0303H10.8809V81.9567H13.3418V75.0303Z" fill="#C53030"/>
<path d="M17.6787 73.2496H15.2178V81.9568H17.6787V73.2496Z" fill="#3F83F8"/>
<path d="M22.0152 76.8674H19.5542V81.9567H22.0152V76.8674Z" fill="#C53030"/>
<path d="M26.3515 72.5051H23.8906V81.9568H26.3515V72.5051Z" fill="#3F83F8"/>
<path d="M30.6879 68.9738H28.2271V81.9568H30.6879V68.9738Z" fill="#C53030"/>
<path d="M3.86959 75.4652C3.741 75.6216 16.8495 68.2101 16.8495 68.2101L19.8068 72.5051L30.472 65.6248" stroke="#C53030" stroke-width="6" stroke-miterlimit="10"/>
<path d="M10.3384 65.6248H2.97021V66.5726H10.3384V65.6248Z" fill="#E6F5FF"/>
<path d="M7.59673 67.6715H2.97021V68.6194H7.59673V67.6715Z" fill="#E6F5FF"/>
<path d="M49.6765 63.6887H35.9097V64.8191H49.6765V63.6887Z" fill="#C53030"/>
<path d="M45.3745 65.7242H35.9097V66.8546H45.3745V65.7242Z" fill="#C53030"/>
<path d="M47.2334 67.7596H35.9097V68.89H47.2334V67.7596Z" fill="#C53030"/>
<path d="M42.4955 69.795H35.9097V70.9254H42.4955V69.795Z" fill="#C53030"/>
<path d="M142.971 48.3428H129.648V49.974H142.971V48.3428Z" fill="#3F83F8"/>
<path d="M142.971 51.2799H123.105V52.911H142.971V51.2799Z" fill="#3F83F8"/>
<path d="M136.77 54.217H123.761V55.8482H136.77V54.217Z" fill="#3F83F8"/>
<path d="M132.608 57.1542H123.105V58.7854H132.608V57.1542Z" fill="#3F83F8"/>
<path d="M61.6482 78.7931H44.8857V80.1695H61.6482V78.7931Z" fill="white"/>
<path d="M54.9797 81.2715H44.8857V82.6478H54.9797V81.2715Z" fill="white"/>
<path d="M61.6482 83.7498H44.8857V85.1262H61.6482V83.7498Z" fill="white"/>
<path d="M52.9046 86.2281H44.8857V87.6045H52.9046V86.2281Z" fill="white"/>
<path d="M76.4236 65.557C71.4348 67.9877 70.6553 70.5752 69.3302 79.4354C68.005 88.2956 65.1729 107.088 65.1729 107.088L74.9584 110.851L82.114 86.283L76.4236 65.557Z" fill="#B6D2FC"/>
<path d="M83.6731 62.1331L76.4238 65.5569C76.4238 65.5569 74.38 74.8875 75.1681 81.1603C75.9561 87.433 78.5084 106.251 77.0374 115.451C76.7366 117.332 76.4387 119.139 76.155 120.823L110.314 120.429C109.712 114.62 109.205 108.424 109.345 105.036C109.657 97.4692 113.606 87.0147 113.606 87.0147L115.748 65.039L108.254 60.4081L88.766 60.8785L83.6731 62.1331Z" fill="#9CBDEF"/>
<path d="M102.42 100.762C100.666 102.017 100.121 107.061 102.693 109.309C102.693 109.309 105.707 106.957 105.707 106.852C105.707 106.748 105.99 102.827 105.99 102.827L103.992 101.337L102.42 100.762Z" fill="#557FE5"/>
<path d="M102.45 101.627C100.313 101.387 99.5681 99.8878 95.5937 98.5386C91.6189 97.1892 89.8057 96.9893 87.2469 96.8394C84.6882 96.6896 84.2909 96.7895 84.3655 97.5641C84.44 98.3386 85.2845 98.6135 86.9488 98.8634C88.6133 99.1133 89.8553 99.2038 89.8553 99.2038C89.8553 99.2038 84.4149 99.4882 83.2723 99.4882C82.1297 99.4882 78.0806 99.3382 78.1303 100.388C78.1799 101.437 80.4155 101.687 82.7009 101.787C84.9864 101.887 87.9176 101.787 87.9176 101.787C87.9176 101.787 85.4583 102.512 83.148 102.612C80.8379 102.711 77.0619 102.537 77.0372 104.011C77.0124 105.485 81.0116 104.885 83.0737 104.661C85.1355 104.436 88.1412 104.511 88.1412 104.511C88.1412 104.511 78.801 106.135 78.7761 106.934C78.7512 107.734 80.3411 108.009 84.266 107.484C88.1908 106.959 88.8615 106.834 88.8615 106.834C88.8615 106.834 82.0302 108.933 82.2537 109.908C82.4774 110.882 84.8622 110.258 86.8742 109.808C88.8864 109.358 90.5259 109.083 92.1655 109.483C93.8049 109.883 95.3326 109.171 98.1646 108.309C100.996 107.447 103.568 108.271 103.568 108.271L105.99 105.235L105.393 101.937L102.45 101.627Z" fill="#FFCC7B"/>
<path d="M88.8176 55.4422C89.1295 58.5264 88.8176 59.3627 86.635 60.6695C84.4524 61.9764 83.6728 62.1332 83.6728 62.1332C83.6728 62.1332 82.4776 64.015 93.2347 63.5445C103.992 63.0741 108.253 60.4081 108.253 60.4081C108.253 60.4081 102.381 57.4285 100.822 52.1491C99.2629 46.8696 99.2629 43.8378 99.2629 43.8378L90.5324 49.065L88.8176 55.4422Z" fill="#EFB96A"/>
<path d="M76.6575 39.7605C77.9047 42.8445 78.8399 45.4582 79.2038 47.6536C79.5678 49.8491 83.4132 55.3377 86.0635 56.5923C88.7138 57.8468 95.2616 52.7764 97.2364 49.2218C99.2112 45.6673 99.5749 44.3605 99.5749 44.3605C99.5749 44.3605 101.498 45.4582 103.213 42.8446C104.928 40.231 105.343 38.715 103.68 36.3628C102.017 34.0106 89.9092 23.8696 83.2574 25.4379C76.6056 27.006 75.6183 28.6264 75.3065 31.0833C74.9948 33.5401 75.3065 36.781 75.3065 36.781L76.6575 39.7605Z" fill="#FFCC7B"/>
<path d="M79.8611 29.372C75.2544 37.4344 81.7243 44.3866 87.5705 42.9752C93.4169 41.5639 95.1058 40.7537 95.1058 40.7537L92.8712 34.8468C92.8712 34.8468 95.1836 39.0809 96.3009 40.3355C97.4183 41.59 98.3536 39.865 98.5355 40.5446C98.7174 41.2241 98.8473 43.2183 99.393 43.1098C99.9385 43.0014 99.8866 40.9366 100.095 38.9764C100.302 37.0162 101.653 35.5787 102.667 35.814C103.68 36.0492 103.68 36.3628 103.68 36.3628C103.68 36.3628 104.719 24.8628 98.3796 21.0992C92.0397 17.3356 85.6478 17.8584 80.8148 21.4652C75.9819 25.072 69.538 33.5401 76.6574 39.7606C76.6574 39.7606 74.8614 34.9726 76.6954 31.0524C76.7331 30.9716 76.7724 30.8912 76.8133 30.8112C76.8133 30.8112 75.3064 35.9969 78.2684 40.4401C78.2686 40.4401 75.2804 33.6446 79.8611 29.372Z" fill="#1F1F1F"/>
<path d="M122.258 112.289C115.477 111.896 102.693 109.309 102.693 109.309C102.693 109.309 104.486 107.192 103.979 104.134C103.96 104.021 103.94 103.911 103.92 103.805C103.92 103.805 103.92 103.802 103.919 103.797C103.394 101.053 102.42 100.763 102.42 100.763C102.42 100.763 114.502 100.41 116.568 100.136C118.634 99.8606 119.102 99.7431 119.102 99.7431C119.102 99.7431 109.916 87.6944 107.058 80.2196C104.2 72.7449 103.866 71.1765 104.735 69.0335C105.651 66.7701 107.294 65.0006 109.221 64.1511L109.221 64.1504C112.134 62.8665 115.698 63.688 118.387 68.0922C122.856 75.4104 131.899 99.1418 132.626 106.251C133.353 113.36 129.04 112.681 122.258 112.289Z" fill="#B6D2FC"/>
<path d="M129.86 107.168L119.144 100.763C119.144 100.763 106.58 101.573 105.175 101.527C103.816 101.483 103.912 103.653 103.919 103.797C103.394 101.053 102.42 100.763 102.42 100.763C102.42 100.763 114.502 100.41 116.568 100.136C118.634 99.8605 119.102 99.743 119.102 99.743C119.102 99.743 109.916 87.6943 107.058 80.2195C104.2 72.7448 103.866 71.1764 104.735 69.0334C105.651 66.77 107.294 65.0005 109.221 64.151C103.117 70.2632 106.554 75.5245 109.221 82.4158C111.888 89.3071 118.911 97.9706 120.543 100.114C122.124 102.19 129.41 106.878 129.86 107.168Z" fill="#9CBDEF"/>
<path d="M109 119H35.0005V121H109V119Z" fill="#565656"/>
<path d="M81.1497 119.384H33.3462L16.2363 91.8923H64.0396L81.1497 119.384Z" fill="#565656"/>
<path d="M79.5429 119.384H31.7394L14.6294 91.8923H62.4327L79.5429 119.384Z" fill="#AAAAAA"/>
</svg>
