<svg width="28" height="28" viewBox="0 0 24 24" xmlns="http://www.w3.org/2000/svg">
<path d="M12.2325 3.30157C12.0833 3.24147 11.9167 3.24147 11.7675 3.30157L4.3075 6.29972L7.3125 7.50677L15.005 4.41567L12.2325 3.30157ZM16.6875 5.09267L8.995 8.18377L12 9.39082L19.6925 6.29972L16.6875 5.09267ZM20.75 7.22793L12.625 10.4936V20.4439L20.75 17.1782V7.22919V7.22793ZM11.375 20.4452V10.4924L3.25 7.22793V17.1795L11.375 20.4452ZM11.3037 2.13471C11.7507 1.9551 12.2493 1.9551 12.6962 2.13471L21.6075 5.71692C21.7234 5.76358 21.8227 5.84402 21.8926 5.94789C21.9626 6.05176 22 6.1743 22 6.29972V17.1795C21.9998 17.4305 21.9249 17.6757 21.7847 17.8834C21.6446 18.0912 21.4457 18.252 21.2137 18.3451L12.2325 21.9549C12.0833 22.015 11.9167 22.015 11.7675 21.9549L2.7875 18.3451C2.55531 18.2522 2.35618 18.0914 2.2158 17.8837C2.07543 17.6759 2.00026 17.4306 2 17.1795V6.29972C2.00003 6.1743 2.03743 6.05176 2.10738 5.94789C2.17734 5.84402 2.27664 5.76358 2.3925 5.71692L11.3037 2.13471Z"/>
</svg>
