<svg width="28" height="28" viewBox="0 0 32 32" xmlns="http://www.w3.org/2000/svg">
<path d="M26.5881 26.6667H5.41175C5.03733 26.6667 4.67825 26.5169 4.41349 26.2501C4.14874 25.9834 4 25.6217 4 25.2445V6.7556C4 6.3784 4.14874 6.01665 4.41349 5.74993C4.67825 5.48322 5.03733 5.33337 5.41175 5.33337C5.78617 5.33337 6.14526 5.48322 6.41002 5.74993C6.67477 6.01665 6.82351 6.3784 6.82351 6.7556V23.8223H26.5881C26.9625 23.8223 27.3216 23.9721 27.5863 24.2388C27.8511 24.5055 27.9998 24.8673 27.9998 25.2445C27.9998 25.6217 27.8511 25.9834 27.5863 26.2501C27.3216 26.5169 26.9625 26.6667 26.5881 26.6667Z"/>
<path d="M9.64702 22.4C9.38484 22.4 9.12784 22.3265 8.90481 22.1876C8.68179 22.0488 8.50156 21.8501 8.38431 21.6139C8.26706 21.3776 8.21742 21.1132 8.24097 20.8501C8.26451 20.587 8.36031 20.3358 8.51761 20.1245L12.7529 14.4356C12.9694 14.1447 13.2884 13.9483 13.6441 13.887C13.9999 13.8256 14.3655 13.9039 14.6658 14.1056L17.6686 16.1224L21.1429 10.2912C21.2413 10.1263 21.3718 9.98319 21.5267 9.87056C21.6816 9.75793 21.8575 9.67813 22.0438 9.63598C22.2302 9.59383 22.4231 9.59022 22.6109 9.62535C22.7987 9.66049 22.9774 9.73365 23.1363 9.8404L27.3716 12.6848C27.5258 12.7885 27.6583 12.9217 27.7614 13.077C27.8646 13.2322 27.9363 13.4064 27.9727 13.5896C28.009 13.7727 28.0091 13.9613 27.9731 14.1446C27.937 14.3278 27.8655 14.5021 27.7627 14.6575C27.6598 14.8129 27.5275 14.9463 27.3734 15.0502C27.2193 15.1541 27.0464 15.2264 26.8646 15.263C26.6828 15.2996 26.4956 15.2997 26.3137 15.2634C26.1318 15.2271 25.9588 15.1551 25.8045 15.0514L22.8017 13.0347L19.3274 18.8658C19.2291 19.0308 19.0985 19.1739 18.9436 19.2865C18.7888 19.3991 18.6129 19.4789 18.4265 19.5211C18.2402 19.5632 18.0472 19.5668 17.8595 19.5317C17.6717 19.4966 17.4929 19.4234 17.334 19.3167L14.2098 17.2175L10.7764 21.8312C10.6449 22.0078 10.4744 22.1511 10.2784 22.2499C10.0823 22.3486 9.86619 22.4 9.64702 22.4Z" />
</svg>
