<svg width="166" height="166" viewBox="0 0 166 166" fill="none" xmlns="http://www.w3.org/2000/svg">
<path d="M49.5673 143.077C37.831 139.623 22.5306 129.825 21.5157 115.691C20.4247 100.498 21.8134 97.6949 17.975 80.415C14.1419 63.1593 24.2001 43.1346 35.1728 36.4715C50.7152 27.0335 60.3233 33.0824 81.6907 39.0701C96.655 43.2634 116.596 36.1934 125.916 35.4888C132.179 35.0153 144.966 36.1512 150.366 46.7995C156.329 58.5581 149.662 75.4325 149.323 82.4901C148.968 89.883 152.504 117.342 136.182 133.51C116.496 153.007 84.3953 153.327 49.5673 143.077Z" fill="#EFEDEF"/>
<path d="M112.744 99.0059H82.0947V147.76H112.744V99.0059Z" fill="#B2B2B2"/>
<path d="M82.214 99.0059H51.5645V147.76H82.214V99.0059Z" fill="#D1D1D1"/>
<path d="M66.1565 39.8833L64.8499 66.0901L58.7061 85.3077H69.767L75.512 68.7498L77.3073 49.9321L66.1565 39.8833Z" fill="#C53030"/>
<path d="M65.8472 131.482L68.0714 141.871L60.601 142.761L58.4766 132.532L65.8472 131.482Z" fill="#FCC9A7"/>
<path d="M68.5202 140.931C68.3307 140.371 67.7323 140.171 67.3234 140.531C66.5254 141.241 65.0892 142.111 62.9648 141.901C60.7606 141.681 59.9328 140.381 59.6136 139.441C59.444 138.951 58.9753 138.701 58.5564 138.911L45.1814 145.65C44.3736 146.06 43.7352 146.82 43.4161 147.77C43.1168 148.66 43.7153 149.62 44.5531 149.6L67.6625 148.96C68.5701 148.94 69.2682 148.04 69.1885 147L68.8094 141.901C68.7995 141.821 68.7895 141.731 68.7596 141.651L68.5202 140.931Z" fill="#1F252A"/>
<path d="M65.7171 81.2482H48.3726C48.3726 81.2482 37.8103 80.6583 37.182 89.3473C36.5536 98.0362 52.6714 122.893 55.1947 136.172L69.6967 134.972L59.2541 98.8661L85.226 99.0161C87.1509 99.0261 89.0659 98.7461 90.8811 98.1162C95.9378 96.3564 103.658 93.8367 99.4487 79.8784L65.7171 81.2482Z" fill="#092330"/>
<path d="M79.1021 131.522L82.6329 143.94L75.1624 144.83L71.7314 132.572L79.1021 131.522Z" fill="#FCC9A7"/>
<path d="M83.0817 143.001C82.8922 142.441 82.2938 142.241 81.8849 142.601C81.087 143.311 79.6508 144.181 77.5263 143.971C75.3221 143.751 74.4943 142.451 74.1751 141.511C74.0055 141.021 73.5368 140.771 73.1179 140.981L59.743 147.72C58.9351 148.13 58.2967 148.89 57.9776 149.84C57.6784 150.73 58.2768 151.69 59.1146 151.67L82.623 151.03C83.5306 151.01 84.2287 150.11 84.1489 149.07L83.361 143.971C83.351 143.891 83.3411 143.801 83.3112 143.721L83.0817 143.001Z" fill="#1F252A"/>
<path d="M86.4433 29.5845C86.8323 29.9644 104.237 34.4139 104.237 34.4139L100.516 44.3227L81.4863 42.8828L86.4433 29.5845Z" fill="#F7EBE7"/>
<path d="M79.2619 31.9741C79.2619 31.9741 67.9216 36.1236 66.1562 39.8831C66.7647 45.1925 68.6298 50.3019 71.7017 54.6713C75.4718 60.0307 80.1296 69.2395 79.2719 81.2481H112.056C112.056 81.2481 110.291 47.4622 100.586 34.4938L79.2619 31.9741Z" fill="#C53030"/>
<path d="M82.9817 37.3337C86.2032 36.6738 88.2778 33.5242 87.6195 30.2945L85.6945 20.8457L74.0352 23.2354L75.9601 32.6843C76.6184 35.9139 79.7601 37.9936 82.9817 37.3337Z" fill="#FCC9A7"/>
<path d="M86.4924 24.1455C86.4924 24.1455 85.2656 31.8055 79.3212 32.2655C74.1148 32.6655 74.6135 25.1155 74.6135 25.1155L86.4924 24.1455Z" fill="#F4BE9A"/>
<path d="M79.7899 28.0649L80.8173 27.8249C85.9737 26.6251 89.1853 21.4657 87.9884 16.3063L86.632 10.417C85.4351 5.24767 80.2886 2.02807 75.1421 3.22792L74.1148 3.4679C68.9583 4.66775 65.7467 9.82711 66.9436 14.9865L68.3001 20.8758C69.497 26.0451 74.6434 29.2647 79.7899 28.0649Z" fill="#FCC9A7"/>
<path d="M84.757 18.7558C84.5177 19.1658 84.2882 19.7857 84.2084 20.7256C84.1187 21.9154 83.5202 23.0453 82.5229 23.7052C79.6604 25.605 77.4761 20.7955 73.2472 21.6454C73.2472 21.6454 71.5915 21.8954 71.2624 23.7452C70.9333 25.585 68.6293 22.3654 68.1206 20.1656C67.612 17.9659 67.3527 31.0543 77.7654 29.9444C77.7654 29.9444 83.0216 29.7744 86.5623 24.4051C86.9513 23.8152 87.1806 23.1253 87.2006 22.4153C87.2305 21.3655 87.0809 19.7757 86.0835 18.6358C85.7344 18.2159 85.0363 18.2759 84.757 18.7558Z" fill="#1C2226"/>
<path d="M84.7673 15.7863C84.7673 15.7863 80.2691 14.2964 81.0271 7.70726C81.0271 7.70726 69.8564 18.306 61.5781 10.5269C61.5781 10.5269 65.2785 9.53703 66.8045 6.99734C69.5872 2.36791 77.5862 -4.0113 83.9894 3.36779C83.9894 3.36779 91.779 2.15794 89.5448 14.1865L84.7673 15.7863Z" fill="#1C2226"/>
<path d="M84.7676 15.7868C85.1965 17.6268 87.0317 18.7768 88.8669 18.3568C90.7121 17.9268 91.849 16.0868 91.4301 14.2468C91.0013 12.4068 89.1661 11.2568 87.3309 11.6768C85.4857 12.1068 84.3387 13.9468 84.7676 15.7868Z" fill="#FCC9A7"/>
<path d="M79.082 36.9639L83.8993 37.0539L80.5281 44.0539L76.8877 37.3439L79.082 36.9639Z" fill="#0C2C40"/>
<path d="M88.0289 29.8946L81.8252 37.1537L85.8646 41.8031L93.2951 31.5643C93.2951 31.5643 91.3901 28.4947 88.0289 29.8946Z" fill="#B72024"/>
<path d="M79.0821 36.9636L75.5115 41.0031L72.998 34.7039C72.998 34.7039 73.6564 31.8743 75.711 32.4142L79.0821 36.9636Z" fill="#B72024"/>
<path d="M80.3983 41.7928C80.3983 41.7928 75.7406 53.9713 76.8976 71.2492L81.4855 75.4487L86.8414 70.2793L81.0666 41.0029L80.3983 41.7928Z" fill="#0C2C40"/>
<path d="M89.1058 70.7095L79.1319 73.9991L78.4736 79.8684L91.699 75.9088L89.1058 70.7095Z" fill="#FCC9A7"/>
<path d="M80.6184 77.8789C80.6184 81.3085 77.8456 84.0981 74.4146 84.0981C70.9936 84.0981 68.2109 81.3185 68.2109 77.8789C68.2109 74.4493 70.9836 71.6597 74.4146 71.6597C77.8357 71.6597 80.6184 74.4393 80.6184 77.8789Z" fill="#FCC9A7"/>
<path d="M79.2616 81.248H61.9271C61.9271 81.248 51.3648 80.6581 50.7364 89.347C50.1081 98.0359 67.4126 124.493 69.936 137.761L84.438 136.561L72.8085 98.8558L98.7804 99.0058C100.705 99.0158 102.62 98.7358 104.436 98.1059C109.492 96.3461 117.212 93.8265 113.003 79.8682L79.2616 81.248Z" fill="#0C2C40"/>
<path d="M26.969 50.522H56.9404C57.9278 50.522 58.7756 51.2119 58.985 52.1818L64.6302 78.7185C64.9095 80.0183 63.9121 81.2482 62.5856 81.2482H32.1155C31.1181 81.2482 30.2604 80.5383 30.0709 79.5584L24.9244 53.0217C24.665 51.7218 25.6524 50.522 26.969 50.522Z" fill="#B2B2B2"/>
<path d="M25.2434 50.522H55.2048C56.1922 50.522 57.04 51.2119 57.2495 52.1818L62.8946 78.7185C63.1739 80.0183 62.1865 81.2482 60.85 81.2482H30.3899C29.3925 81.2482 28.5348 80.5383 28.3453 79.5584L23.1988 53.0217C22.9395 51.7218 23.9269 50.522 25.2434 50.522Z" fill="#D1D1D1"/>
<path d="M63.8121 78.9785H84.2883C84.9167 78.9785 85.4154 79.4885 85.4154 80.1085C85.4154 80.7385 84.9067 81.2385 84.2883 81.2385H63.4131L63.8121 78.9785Z" fill="#B2B2B2"/>
<path d="M43.7944 65.1904C43.7944 67.0004 42.3382 68.4604 40.5329 68.4604C38.7277 68.4604 37.2715 66.9904 37.2715 65.1904C37.2715 63.3804 38.7376 61.9204 40.5329 61.9204C42.3382 61.9204 43.7944 63.3804 43.7944 65.1904Z" fill="white"/>
<path d="M97.0852 43.8528L108.036 61.5806L81.8252 70.9594L85.4158 78.7385C85.4158 78.7385 107.827 76.2188 118.659 67.8498C119.656 67.0799 120.155 65.8301 119.985 64.5802C119.476 60.5807 117.302 50.8719 108.036 37.0736C106.151 34.2639 102.401 33.414 99.4788 35.1138C96.4368 36.8736 95.3697 40.7731 97.0852 43.8528Z" fill="#C53030"/>
<path d="M88.7969 68.4599L108.036 61.5808L98.4116 45.9927" stroke="#EADDD8" stroke-width="0.7599" stroke-miterlimit="10" stroke-linecap="round" stroke-linejoin="round"/>
<path d="M75.7708 62.5907L71.0332 50.0522" stroke="#EADDD8" stroke-width="0.7599" stroke-miterlimit="10" stroke-linecap="round" stroke-linejoin="round"/>
<path d="M89.1055 78.2096C89.1055 78.2096 103.827 76.3596 111.247 72.0996" stroke="#EADDD8" stroke-width="0.7599" stroke-miterlimit="10" stroke-linecap="round" stroke-linejoin="round"/>
</svg>
