<svg width="294" height="167" viewBox="0 0 294 167" fill="none" xmlns="http://www.w3.org/2000/svg">
<path d="M89.435 126.805C75.0447 112.144 59.6878 83.5041 70.3771 56.2607C71.4792 53.4519 81.9771 27.8057 105.194 22.991C133.472 17.1265 146.599 49.2218 178.985 48.0999C214.057 46.885 226.304 8.28728 244.589 12.9519C266.21 18.4678 282.467 80.9531 253.97 119.304C219.64 165.505 128.129 166.226 89.435 126.805Z" fill="#EFEDEF"/>
<path d="M168.704 164.771C132.645 164.771 98.9868 152.831 79.1069 132.577C65.0546 118.26 44.697 85.3029 57.5314 52.5927L58.6257 52.967C45.9842 85.1864 66.0919 117.706 79.9666 131.841C101.504 153.783 139.445 165.857 178.971 163.357C216.112 161.006 247.219 146.462 264.316 123.453C285.533 94.9004 284.499 54.4166 274.559 28.885C269.308 15.395 261.843 6.52169 254.079 4.54146L254.387 3.49072C262.52 5.56562 270.273 14.6857 275.655 28.5128C285.694 54.2996 286.727 95.2036 265.274 124.074C247.974 147.357 216.547 162.07 179.05 164.444C175.587 164.663 172.138 164.772 168.704 164.771Z" fill="#EFEDEF"/>
<path d="M117.574 39.7953C111.714 40.1211 105.853 40.3776 99.9894 40.5648C94.1264 40.7672 88.2621 40.9058 82.3975 41.0323C76.5325 41.1382 70.6672 41.2305 64.8004 41.2594C58.9339 41.3037 53.0659 41.2776 47.1963 41.181C53.0563 40.854 58.918 40.5969 64.7812 40.4099C70.6441 40.2078 76.5084 40.0691 82.373 39.944C88.2381 39.8394 94.1035 39.7472 99.9703 39.7185C105.837 39.6747 111.705 39.7003 117.574 39.7953Z" fill="#F9E0C0"/>
<path d="M70.378 56.2606C64.5179 56.5864 58.6562 56.843 52.793 57.0303C46.9302 57.2326 41.0658 57.3713 35.2013 57.4976C29.3362 57.6035 23.4709 57.6959 17.6041 57.7248C11.7377 57.7692 5.86962 57.7431 0 57.6465C5.86004 57.3193 11.7217 57.0622 17.5849 56.8752C23.4478 56.6731 29.3121 56.5344 35.1767 56.4095C41.0418 56.3048 46.9072 56.2125 52.774 56.1839C58.6404 56.14 64.5084 56.1656 70.378 56.2606Z" fill="#F9E0C0"/>
<path d="M90.5499 74.6878C84.6898 75.0137 78.8281 75.2702 72.9649 75.4575C67.1021 75.6599 61.2377 75.7985 55.3731 75.9248C49.5081 76.0308 43.6428 76.1232 37.776 76.152C31.9095 76.1964 26.0415 76.1703 20.1719 76.0737C26.0319 75.7466 31.8936 75.4895 37.7568 75.3024C43.6197 75.1003 49.484 74.9617 55.3486 74.8367C61.2137 74.7321 67.0791 74.6397 72.9459 74.6111C78.8123 74.5673 84.6803 74.5928 90.5499 74.6878Z" fill="#F9E0C0"/>
<path d="M196.227 70.7175C201.854 70.7175 201.863 62.5498 196.227 62.5498C190.6 62.5498 190.59 70.7175 196.227 70.7175Z" fill="#5669A5"/>
<path d="M148.523 2.17289C150.293 1.90678 152.105 2.0373 153.81 2.55368C154.609 2.81123 157.532 3.75311 158.976 6.31905C159.525 7.29353 159.658 8.47002 159.923 10.823C160.089 12.2927 160.705 13.3414 160.721 15.1354C160.703 16.5892 160.46 18.033 160.002 19.4224C159.315 21.5968 159.781 22.8253 159.433 23.2335C158.028 24.8787 153.707 23.6311 153.662 25.7636C153.634 27.0804 156.065 32.7447 156.031 34.2873C155.95 37.882 149.49 34.1722 145.597 28.8422C145.42 28.6003 142.779 27.1845 143.033 24.8539C143.168 23.6089 144.246 17.7634 144.13 17.0113C143.713 14.2926 142.241 13.9724 141.054 10.6915C140.732 9.86802 140.642 8.98113 140.793 8.11589C140.943 7.25066 141.33 6.43607 141.914 5.75022C143.6 3.87082 145.939 2.60459 148.523 2.17289Z" fill="#F9977A"/>
<path d="M146.313 12.3842C146.081 12.3218 145.834 12.3355 145.612 12.4231C145.391 12.5048 145.191 12.6283 145.024 12.786C144.861 12.9408 144.728 13.1208 144.631 13.318C144.534 13.5141 144.48 13.7263 144.472 13.9422C144.636 13.8059 144.792 13.6604 144.938 13.5066C145.086 13.3688 145.212 13.222 145.357 13.0969C145.495 12.9647 145.639 12.8396 145.791 12.722C145.954 12.5953 146.129 12.4823 146.313 12.3842Z" fill="#DD765E"/>
<path d="M145.858 15.2536C146.011 15.0659 146.119 14.8498 146.176 14.6199C146.233 14.39 146.236 14.1515 146.186 13.9202C146.144 13.6863 146.052 13.4626 145.917 13.2621C145.785 13.0612 145.604 12.8927 145.389 12.771C145.525 13.1728 145.636 13.5815 145.722 13.9951C145.794 14.4118 145.839 14.832 145.858 15.2536Z" fill="#DD765E"/>
<path d="M149.501 17.7863C149.501 17.7863 148.485 13.8419 148.654 12.7089C148.89 11.1302 149.008 10.3409 148.799 9.70091C148.467 8.67645 149.001 8.53844 149.68 7.42919C150.318 6.38812 152.329 7.21068 152.828 7.03404C154.227 6.53818 154.17 5.98657 155.119 5.92388C156.091 5.8596 156.803 5.61375 157.438 6.19523C158.084 6.78875 159.276 8.37065 159.563 8.09228C160.168 7.32654 160.535 6.42001 160.625 5.47214C160.623 4.53858 160.378 3.6194 159.911 2.79422C159.676 2.31723 158.802 0.542153 157.011 0.0806779C155.98 -0.185159 155.787 0.279204 153.562 0.419977C151.255 0.566054 151.179 0.0845528 149.973 0.4151C148.638 0.781062 148.695 1.38079 146.419 2.56574C145.664 2.9461 144.888 3.28789 144.093 3.5896C141.233 4.74796 140.855 4.5694 140.201 5.17058C138.789 6.4667 139.042 8.67387 139.103 9.207C139.275 10.7085 139.907 11.1551 141.295 13.5515C143.494 17.3465 143.074 18.9519 143.872 19.4801C144.263 19.7392 146.303 18.3602 146.288 17.6889C146.267 16.8088 145.586 16.5365 144.774 15.2707C144.208 14.386 143.394 13.116 143.845 11.9552C144.118 11.2535 144.432 11.4423 145.208 11.5033C146.262 11.5861 146.793 12.9521 147.224 13.9544C147.535 14.6797 147.674 15.4596 147.63 16.2399C147.534 17.9809 149.87 18.4762 149.501 17.7863Z" fill="#1E1D22"/>
<path d="M154.767 29.6965C154.767 29.6965 158.895 40.8445 143.11 24.2842L136.253 29.603C134.831 30.7243 133.851 32.2561 133.467 33.9562C133.131 36.368 132.795 38.7798 132.459 41.1916C131.182 50.3609 131.173 59.6455 132.432 68.8169C132.772 71.2904 133.112 73.7639 133.452 76.2374L162.941 80.0191C161.282 74.7148 160.303 69.2456 160.023 63.7258C159.691 57.1189 160.567 54.3078 160.233 48.8279C159.772 42.1776 157.915 35.6769 154.767 29.6965Z" fill="#E4262C"/>
<path d="M159.067 74.1831C158.533 73.8971 157.989 73.6379 157.453 73.3659L155.878 72.5005C154.853 71.8979 153.873 71.2301 152.945 70.502C152.017 69.7816 151.177 68.9669 150.441 68.0731C150.077 67.6225 149.754 67.1452 149.473 66.6457C149.175 66.1501 148.947 65.6197 148.798 65.0684C148.967 66.22 149.429 67.3172 150.144 68.2684C150.842 69.2304 151.682 70.0952 152.64 70.8369C153.587 71.5812 154.61 72.2359 155.696 72.7914L157.35 73.558C157.925 73.7667 158.491 73.9882 159.067 74.1831Z" fill="#E6952A"/>
<path d="M150.825 23.0088C152.769 24.2617 156.493 24.1774 156.493 24.1774L156.505 24.2584C155.059 24.4344 153.688 24.5673 153.663 25.7633C153.731 26.4324 153.883 27.0917 154.116 27.7277C151.573 26.3894 150.825 23.0088 150.825 23.0088Z" fill="#DD765E"/>
<path d="M189.371 119.613L190.949 127.081L206.424 129.409L185.732 135.277L181.376 121.881L189.371 119.613Z" fill="#F9977A"/>
<path d="M208.715 129.478L208.7 129.434C208.59 129.095 208.382 128.791 208.097 128.557C207.813 128.322 207.465 128.166 207.092 128.105L190.964 125.488C190.807 125.463 190.644 125.49 190.506 125.565C190.367 125.64 190.261 125.758 190.206 125.898L188.577 130.072C188.519 130.22 188.405 130.343 188.256 130.417C188.107 130.491 187.934 130.51 187.77 130.472L183.976 129.584C183.859 129.557 183.736 129.559 183.62 129.59C183.504 129.621 183.399 129.681 183.316 129.763C183.233 129.845 183.174 129.945 183.146 130.055C183.118 130.165 183.122 130.28 183.157 130.388L185.044 136.191C185.097 136.353 185.216 136.489 185.376 136.569C185.536 136.648 185.723 136.665 185.896 136.616L208.26 130.273C208.433 130.224 208.579 130.113 208.664 129.964C208.749 129.815 208.767 129.64 208.715 129.478Z" fill="#065082"/>
<path d="M132.887 70.8048C132.887 70.8048 128.175 90.3126 137.181 89.9629H171.417L180.64 124.73C180.64 124.73 184.186 126.081 187.264 125.479C189.379 125.065 191.201 123.181 192.468 122.218C192.468 122.218 185.73 72.3744 172.983 70.8608C157.084 68.9727 132.887 70.8048 132.887 70.8048Z" fill="#0C2C40"/>
<path d="M171.417 89.9629C172.206 89.0375 172.911 88.0523 173.525 87.0175C173.812 86.5065 174.106 85.996 174.362 85.4572C174.634 84.9228 174.867 84.369 175.179 83.8008C175.266 84.4274 175.233 85.0635 175.082 85.6795C174.943 86.3013 174.705 86.9001 174.376 87.4559C174.047 88.0149 173.628 88.5228 173.133 88.9613C172.651 89.4137 172.064 89.7564 171.417 89.9629Z" fill="#5E7C24"/>
<path d="M144.03 36.7105C144.03 36.7105 145.365 33.7375 162.845 57.1851L156.203 65.2358C156.203 65.2358 146.56 57.8244 142.192 51.4262" fill="#E4262C"/>
<path d="M199.69 60.0994L215.107 53.2314L215.898 68.9684L201.074 64.4876L199.69 60.0994Z" fill="#6C7FD8"/>
<path d="M109.757 166.455C122.342 166.455 132.545 156.901 132.545 145.115C132.545 133.328 122.342 123.774 109.757 123.774C97.172 123.774 86.9697 133.328 86.9697 145.115C86.9697 156.901 97.172 166.455 109.757 166.455Z" fill="#1E1D22"/>
<path d="M109.758 156.19C116.29 156.19 121.584 151.232 121.584 145.115C121.584 138.998 116.29 134.039 109.758 134.039C103.226 134.039 97.9316 138.998 97.9316 145.115C97.9316 151.232 103.226 156.19 109.758 156.19Z" fill="#848384"/>
<path d="M109.308 147.89C111.538 147.89 111.542 144.652 109.308 144.652C107.078 144.652 107.074 147.89 109.308 147.89Z" fill="white"/>
<path d="M233.396 166.455C245.981 166.455 256.183 156.901 256.183 145.115C256.183 133.328 245.981 123.774 233.396 123.774C220.811 123.774 210.608 133.328 210.608 145.115C210.608 156.901 220.811 166.455 233.396 166.455Z" fill="#1E1D22"/>
<path d="M233.397 156.19C239.928 156.19 245.223 151.232 245.223 145.115C245.223 138.998 239.928 134.039 233.397 134.039C226.865 134.039 221.57 138.998 221.57 145.115C221.57 151.232 226.865 156.19 233.397 156.19Z" fill="#848384"/>
<path d="M232.945 149.538C237.447 149.538 237.454 143.004 232.945 143.004C228.444 143.004 228.436 149.538 232.945 149.538Z" fill="#1E1D22"/>
<path d="M262.529 142.683C262.529 142.683 241.761 132.959 204.839 145.925H138.89C138.89 145.925 116.968 158.892 80.0464 149.167C80.0464 149.167 75.4312 141.603 86.9692 125.395C86.9692 125.395 93.892 107.025 98.5071 103.784L162.128 103.815C162.128 103.815 160.643 133.813 183.719 135.974C206.795 138.135 204.487 117.605 204.487 117.605L201.433 72.1687C201.38 69.2873 201.17 66.4102 200.803 63.5488C200.383 60.2122 199.171 60.6762 200.613 61.3515C202.92 62.432 225.608 85.4146 230.223 117.831C230.223 117.831 256.76 114.589 262.529 142.683Z" fill="#6C7FD8"/>
<path d="M230.223 117.831C226.818 118.657 223.569 119.965 220.587 121.709C219.124 122.566 217.739 123.534 216.444 124.601C215.144 125.653 213.954 126.818 212.889 128.079C211.8 129.325 210.829 130.657 209.99 132.061C209.757 132.402 209.568 132.765 209.367 133.122C209.174 133.483 208.953 133.832 208.781 134.204C208.436 134.946 208.049 135.674 207.745 136.436C206.48 139.513 205.508 142.689 204.84 145.925C204.753 142.553 205.251 139.189 206.314 135.965C207.37 132.683 209.089 129.619 211.377 126.94C214.856 122.927 219.578 120.016 224.897 118.605C226.629 118.135 228.42 117.875 230.223 117.831Z" fill="#5669A5"/>
<path d="M138.891 145.925C140.938 142.999 142.538 139.821 143.644 136.482C144.721 133.189 145.181 129.674 144.342 126.417C143.457 123.163 141.321 120.326 138.342 118.446C138.159 118.324 137.989 118.189 137.797 118.078L137.22 117.746C136.833 117.529 136.463 117.288 136.063 117.089C135.245 116.716 134.473 116.281 133.606 115.975L132.335 115.475C131.925 115.316 131.507 115.177 131.081 115.057C130.221 114.807 129.335 114.601 128.442 114.425C124.845 113.722 121.161 113.489 117.496 113.733C115.657 113.846 113.827 114.062 112.016 114.379C110.203 114.699 108.415 115.139 106.638 115.622C99.5285 117.798 92.8745 121.104 86.9697 125.395L89.0734 123.633L91.2756 121.973L93.5554 120.399C94.3416 119.909 95.1192 119.403 95.9168 118.925C99.1426 117.035 102.578 115.477 106.163 114.277C109.78 113.091 113.542 112.332 117.36 112.019C121.202 111.719 125.07 111.932 128.848 112.651C129.793 112.844 130.731 113.069 131.662 113.348C132.121 113.486 132.607 113.641 133.059 113.825L134.382 114.357C135.273 114.682 136.117 115.157 136.982 115.563C137.409 115.78 137.812 116.044 138.227 116.282C138.648 116.516 139.05 116.778 139.431 117.066C142.7 119.227 144.98 122.456 145.818 126.113C146.191 127.909 146.243 129.751 145.971 131.563C145.703 133.342 145.224 135.087 144.541 136.766C143.856 138.422 143.034 140.026 142.084 141.564C141.152 143.098 140.084 144.557 138.891 145.925Z" fill="#5669A5"/>
<path d="M95.9814 104.639H158.942C162.765 104.639 165.864 101.353 165.864 97.301C165.864 93.2486 162.765 89.9629 158.942 89.9629H95.9814C92.1583 89.9629 89.0586 93.2486 89.0586 97.301C89.0586 101.353 92.1583 104.639 95.9814 104.639Z" fill="#5669A5"/>
<path d="M131.276 122.218C130.227 123.371 129.048 124.413 127.758 125.327C126.477 126.257 125.128 127.103 123.723 127.859C123.035 128.266 122.306 128.596 121.585 128.947C120.87 129.308 120.126 129.607 119.388 129.924C119.02 130.084 118.646 130.232 118.274 130.383L117.137 130.786C116.375 131.044 115.625 131.338 114.852 131.566C111.772 132.501 108.611 133.182 105.404 133.603C103.811 133.849 102.191 133.91 100.59 134.044C98.9785 134.091 97.3666 134.093 95.7617 134.039C97.3359 133.69 98.9103 133.452 100.472 133.159L102.804 132.688C103.58 132.531 104.361 132.409 105.126 132.21C105.893 132.027 106.661 131.851 107.432 131.69C108.206 131.543 108.955 131.301 109.717 131.111C110.472 130.899 111.248 130.755 111.993 130.515L114.242 129.843C114.998 129.635 115.728 129.363 116.473 129.125L117.584 128.754C117.948 128.615 118.31 128.473 118.678 128.343C120.156 127.835 121.582 127.214 123.019 126.61C123.728 126.292 124.446 125.983 125.141 125.636L126.197 125.132L127.231 124.59C128.627 123.874 129.978 123.081 131.276 122.218Z" fill="#5669A5"/>
<path d="M133.976 129.345C132.928 130.498 131.748 131.541 130.458 132.455C129.177 133.384 127.828 134.23 126.423 134.987C125.735 135.394 125.006 135.724 124.286 136.074C123.57 136.435 122.826 136.735 122.088 137.051C121.72 137.211 121.346 137.359 120.974 137.51L119.837 137.913C119.075 138.171 118.325 138.465 117.553 138.694C114.472 139.628 111.311 140.309 108.104 140.731C106.511 140.976 104.891 141.038 103.29 141.171C101.679 141.218 100.067 141.22 98.4619 141.166C100.036 140.818 101.61 140.579 103.172 140.287L105.504 139.815C106.28 139.658 107.061 139.537 107.826 139.338C108.594 139.155 109.361 138.978 110.132 138.817C110.906 138.67 111.655 138.429 112.417 138.238C113.172 138.026 113.948 137.883 114.693 137.642L116.943 136.971C117.698 136.762 118.429 136.49 119.173 136.253L120.284 135.882C120.648 135.742 121.01 135.6 121.378 135.47C122.856 134.962 124.282 134.342 125.719 133.738C126.428 133.419 127.146 133.11 127.841 132.764L128.897 132.259L129.931 131.717C131.327 131.001 132.678 130.209 133.976 129.345Z" fill="#5669A5"/>
<path d="M215.817 68.9714C217.262 68.9081 218.256 65.3339 218.038 60.9882C217.82 56.6426 216.471 53.1711 215.026 53.2344C213.581 53.2978 212.587 56.872 212.806 61.2176C213.024 65.5633 214.372 69.0348 215.817 68.9714Z" fill="#FFBA55"/>
<path d="M215.027 53.2349C214.847 53.2828 214.68 53.3671 214.539 53.4818C214.397 53.5965 214.284 53.7389 214.208 53.8989C214.029 54.2049 213.891 54.5302 213.797 54.8676C213.601 55.5486 213.466 56.2435 213.392 56.9453C213.115 59.7752 213.259 62.6273 213.819 65.4205C213.963 66.1126 214.168 66.7926 214.431 67.4534C214.558 67.781 214.728 68.0928 214.937 68.3818C215.028 68.5344 215.155 68.6664 215.307 68.7683C215.459 68.8703 215.634 68.9397 215.818 68.9718C215.615 68.9844 215.411 68.9527 215.223 68.8791C215.034 68.8055 214.867 68.692 214.734 68.5477C214.448 68.2807 214.201 67.9784 214.002 67.6493C213.614 66.9988 213.306 66.3095 213.084 65.5943C212.215 62.746 212.065 59.7484 212.645 56.8368C212.795 56.1054 213.032 55.3922 213.353 54.7107C213.518 54.3656 213.733 54.0432 213.991 53.7522C214.109 53.5969 214.264 53.4694 214.444 53.3796C214.624 53.2898 214.823 53.2403 215.027 53.2349Z" fill="#E6952A"/>
<path d="M208.786 69.887C208.066 69.297 207.405 68.677 206.755 68.0514L204.828 66.1758C204.195 65.5483 203.551 64.9357 202.886 64.3548C202.557 64.0647 202.209 63.7938 201.843 63.5437C201.486 63.2776 201.063 63.0994 200.613 63.0254C201.099 62.9151 201.61 62.9588 202.066 63.1494C202.52 63.3201 202.953 63.5376 203.355 63.7979C204.144 64.3087 204.873 64.8956 205.53 65.5488C206.182 66.1922 206.786 66.8775 207.335 67.5997C207.896 68.3172 208.382 69.0831 208.786 69.887Z" fill="#5669A5"/>
<path d="M120.163 88.195H85.5186C85.0187 88.195 84.5393 88.0095 84.1858 87.6793C83.8324 87.3492 83.6338 86.9014 83.6338 86.4346V62.7354H122.048V86.4346C122.048 86.9014 121.849 87.3492 121.496 87.6793C121.142 88.0095 120.663 88.195 120.163 88.195Z" fill="#F73C4F"/>
<path d="M126.698 57.0214V60.2435C126.731 60.8719 126.496 61.4867 126.045 61.9538C125.593 62.4208 124.962 62.702 124.29 62.7361H81.389C80.7169 62.7018 80.0866 62.4204 79.636 61.9533C79.1854 61.4862 78.9512 60.8715 78.9846 60.2435V57.0214C78.9521 56.3941 79.1868 55.7803 79.6373 55.3141C80.0878 54.8479 80.7176 54.5671 81.389 54.5332H124.29C124.962 54.5669 125.592 54.8475 126.043 55.3136C126.495 55.7797 126.73 56.3936 126.698 57.0214Z" fill="#B02336"/>
<path d="M103.903 54.5332H101.779V89.6216H103.903V54.5332Z" fill="#E19974"/>
<path d="M122.048 73.7759H83.6338V75.9745H122.048V73.7759Z" fill="#E19974"/>
<path d="M121.623 88.2105H98.7737L93.6205 83.1496C93.5436 83.0708 93.4495 83.0086 93.3444 82.967C93.2394 82.9254 93.126 82.9054 93.012 82.9085C92.898 82.9116 92.786 82.9377 92.6838 82.9849C92.5815 83.0321 92.4914 83.0994 92.4195 83.1822C92.2634 83.3582 92.1806 83.5809 92.1864 83.8093C92.1922 84.0378 92.2862 84.2566 92.4511 84.4254L96.305 88.2105H90.1572V84.2164C90.1694 84.1053 90.1565 83.9931 90.1194 83.887C90.0823 83.7809 90.0217 83.6832 89.9416 83.6003C89.8616 83.5174 89.7638 83.4512 89.6545 83.4058C89.5453 83.3604 89.4271 83.337 89.3076 83.337C89.188 83.337 89.0698 83.3604 88.9606 83.4058C88.8514 83.4512 88.7535 83.5174 88.6735 83.6003C88.5934 83.6832 88.5328 83.7809 88.4957 83.887C88.4586 83.9931 88.4457 84.1053 88.458 84.2164V88.2105H84.2608C84.0277 88.2329 83.8119 88.3351 83.6549 88.4975C83.498 88.6599 83.4111 88.8709 83.4111 89.0897C83.4111 89.3085 83.498 89.5195 83.6549 89.6819C83.8119 89.8443 84.0277 89.9465 84.2608 89.9689H88.458V93.963C88.4457 94.0741 88.4586 94.1863 88.4957 94.2924C88.5328 94.3985 88.5934 94.4962 88.6735 94.5791C88.7535 94.662 88.8514 94.7282 88.9606 94.7736C89.0698 94.8189 89.188 94.8424 89.3076 94.8424C89.4271 94.8424 89.5453 94.8189 89.6545 94.7736C89.7638 94.7282 89.8616 94.662 89.9416 94.5791C90.0217 94.4962 90.0823 94.3985 90.1194 94.2924C90.1565 94.1863 90.1694 94.0741 90.1572 93.963V89.9689H98.0954L102.376 94.1725C102.453 94.2512 102.547 94.3135 102.652 94.355C102.757 94.3966 102.87 94.4165 102.984 94.4135C103.098 94.4104 103.21 94.3843 103.313 94.3371C103.415 94.2899 103.505 94.2226 103.577 94.1399C103.733 93.9639 103.816 93.7412 103.81 93.5128C103.804 93.2843 103.71 93.0655 103.545 92.8967L100.564 89.9689H121.623C121.856 89.9465 122.072 89.8442 122.229 89.6818C122.386 89.5194 122.473 89.3084 122.473 89.0897C122.473 88.8709 122.386 88.6599 122.229 88.4975C122.072 88.3351 121.856 88.2328 121.623 88.2105Z" fill="#E19974"/>
<path d="M162.648 57.6411L188.95 60.9162C188.95 60.9162 199.692 57.1931 201.88 62.4731C202.169 63.2024 202.177 64.0029 201.904 64.7373C201.248 66.574 199.697 70.2006 198.561 67.1747L197.393 64.0634C197.393 64.0634 193.361 66.6711 189.465 65.378C188.058 64.9108 169.221 68.3374 159.067 66.0239L156.203 65.236L162.648 57.6411Z" fill="#F9977A"/>
<path d="M144.03 36.7107C144.113 36.5767 144.301 36.5765 144.448 36.5903C144.601 36.6171 144.75 36.6573 144.894 36.7102C145.173 36.8348 145.44 36.9803 145.693 37.1454C145.952 37.3025 146.198 37.476 146.431 37.6647C146.664 37.8513 146.916 38.0221 147.134 38.223C148.046 38.9937 148.908 39.8126 149.745 40.6509C151.416 42.3326 152.955 44.1161 154.499 45.8948C156.031 47.6819 157.511 49.5069 158.959 51.3514C160.432 53.1808 161.813 55.0695 163.241 56.9276L163.447 57.1953L163.227 57.4606L159.899 61.4802L156.551 65.4863L156.268 65.8255L155.924 65.5526C154.615 64.5128 153.35 63.4461 152.117 62.3383C150.884 61.2328 149.673 60.1069 148.501 58.9458C147.328 57.7854 146.191 56.5918 145.13 55.3398C144.057 54.099 143.076 52.7915 142.192 51.4263C143.185 52.7164 144.25 53.9556 145.385 55.1386C146.523 56.317 147.712 57.4494 148.91 58.5715C150.118 59.686 151.363 60.7646 152.628 61.8216C153.899 62.8704 155.177 63.9208 156.482 64.9192L155.856 64.9855L159.15 60.9411L162.463 56.9102L162.449 57.4429C161.042 55.5775 159.655 53.6973 158.227 51.8472C156.819 49.9825 155.367 48.1488 153.923 46.3098C152.458 44.4874 150.98 42.6696 149.4 40.9351C148.621 40.0592 147.817 39.2026 146.963 38.3922C146.758 38.1804 146.523 38.0015 146.303 37.8043C146.085 37.6071 145.854 37.4228 145.611 37.2524C145.376 37.0728 145.127 36.9114 144.864 36.7698C144.729 36.7089 144.588 36.6598 144.443 36.6229C144.303 36.6002 144.124 36.5846 144.03 36.7107Z" fill="#E6952A"/>
<path d="M89.3413 89.6679C89.5152 89.6623 89.68 89.5939 89.8008 89.477C89.9217 89.3601 89.9893 89.204 89.9893 89.0415C89.9893 88.879 89.9217 88.7228 89.8008 88.606C89.68 88.4891 89.5152 88.4206 89.3413 88.415C89.1675 88.4206 89.0027 88.4891 88.8818 88.606C88.7609 88.7228 88.6934 88.879 88.6934 89.0415C88.6934 89.204 88.7609 89.3601 88.8818 89.477C89.0027 89.5939 89.1675 89.6623 89.3413 89.6679Z" fill="#935B50"/>
<path d="M89.3413 94.3759C89.5152 94.3703 89.68 94.3019 89.8008 94.185C89.9217 94.0681 89.9893 93.912 89.9893 93.7495C89.9893 93.587 89.9217 93.4308 89.8008 93.314C89.68 93.1971 89.5152 93.1287 89.3413 93.123C89.1675 93.1287 89.0027 93.1971 88.8818 93.314C88.7609 93.4308 88.6934 93.587 88.6934 93.7495C88.6934 93.912 88.7609 94.0681 88.8818 94.185C89.0027 94.3019 89.1675 94.3703 89.3413 94.3759Z" fill="#935B50"/>
<path d="M93.1636 84.5444C93.3375 84.5388 93.5022 84.4703 93.6231 84.3535C93.744 84.2366 93.8116 84.0804 93.8116 83.9179C93.8116 83.7554 93.744 83.5993 93.6231 83.4824C93.5022 83.3656 93.3375 83.2971 93.1636 83.2915C92.9897 83.2971 92.825 83.3656 92.7041 83.4824C92.5832 83.5993 92.5156 83.7554 92.5156 83.9179C92.5156 84.0804 92.5832 84.2366 92.7041 84.3535C92.825 84.4703 92.9897 84.5388 93.1636 84.5444Z" fill="#935B50"/>
<path d="M89.3412 84.9731C89.5151 84.9675 89.6798 84.899 89.8007 84.7821C89.9216 84.6653 89.9891 84.5091 89.9891 84.3467C89.9891 84.1842 89.9216 84.028 89.8007 83.9112C89.6798 83.7943 89.5151 83.7258 89.3412 83.7202C89.1674 83.7258 89.0026 83.7943 88.8818 83.9112C88.7609 84.028 88.6934 84.1842 88.6934 84.3467C88.6934 84.5091 88.7609 84.6653 88.8818 84.7821C89.0026 84.899 89.1674 84.9675 89.3412 84.9731Z" fill="#935B50"/>
<path d="M98.0572 89.6679C98.231 89.6623 98.3958 89.5939 98.5167 89.477C98.6376 89.3601 98.7051 89.204 98.7051 89.0415C98.7051 88.879 98.6376 88.7228 98.5167 88.606C98.3958 88.4891 98.231 88.4206 98.0572 88.415C97.8833 88.4206 97.7185 88.4891 97.5976 88.606C97.4767 88.7228 97.4092 88.879 97.4092 89.0415C97.4092 89.204 97.4767 89.3601 97.5976 89.477C97.7185 89.5939 97.8833 89.6623 98.0572 89.6679Z" fill="#935B50"/>
<path d="M102.839 75.5019C103.013 75.4963 103.178 75.4279 103.299 75.311C103.42 75.1941 103.487 75.038 103.487 74.8755C103.487 74.713 103.42 74.5568 103.299 74.44C103.178 74.3231 103.013 74.2546 102.839 74.249C102.665 74.2546 102.501 74.3231 102.38 74.44C102.259 74.5568 102.191 74.713 102.191 74.8755C102.191 75.038 102.259 75.1941 102.38 75.311C102.501 75.4279 102.665 75.4963 102.839 75.5019Z" fill="#935B50"/>
<path d="M102.839 56.3159C103.013 56.3102 103.178 56.2418 103.299 56.1249C103.42 56.0081 103.487 55.8519 103.487 55.6894C103.487 55.5269 103.42 55.3708 103.299 55.2539C103.178 55.1371 103.013 55.0686 102.839 55.063C102.665 55.0686 102.501 55.1371 102.38 55.2539C102.259 55.3708 102.191 55.5269 102.191 55.6894C102.191 55.8519 102.259 56.0081 102.38 56.1249C102.501 56.2418 102.665 56.3102 102.839 56.3159Z" fill="#935B50"/>
<path d="M120.895 75.5019C121.069 75.4963 121.234 75.4279 121.355 75.311C121.475 75.1941 121.543 75.038 121.543 74.8755C121.543 74.713 121.475 74.5568 121.355 74.44C121.234 74.3231 121.069 74.2546 120.895 74.249C120.721 74.2546 120.556 74.3231 120.436 74.44C120.315 74.5568 120.247 74.713 120.247 74.8755C120.247 75.038 120.315 75.1941 120.436 75.311C120.556 75.4279 120.721 75.4963 120.895 75.5019Z" fill="#935B50"/>
<path d="M84.7027 75.5019C84.8765 75.4963 85.0413 75.4279 85.1622 75.311C85.2831 75.1941 85.3506 75.038 85.3506 74.8755C85.3506 74.713 85.2831 74.5568 85.1622 74.44C85.0413 74.3231 84.8765 74.2546 84.7027 74.249C84.5288 74.2546 84.364 74.3231 84.2431 74.44C84.1223 74.5568 84.0547 74.713 84.0547 74.8755C84.0547 75.038 84.1223 75.1941 84.2431 75.311C84.364 75.4279 84.5288 75.4963 84.7027 75.5019Z" fill="#935B50"/>
<path d="M102.839 89.5019C103.013 89.4963 103.178 89.4279 103.299 89.311C103.42 89.1941 103.487 89.038 103.487 88.8755C103.487 88.713 103.42 88.5568 103.299 88.44C103.178 88.3231 103.013 88.2546 102.839 88.249C102.665 88.2546 102.501 88.3231 102.38 88.44C102.259 88.5568 102.191 88.713 102.191 88.8755C102.191 89.038 102.259 89.1941 102.38 89.311C102.501 89.4279 102.665 89.4963 102.839 89.5019Z" fill="#935B50"/>
<path d="M102.839 94.0859C103.013 94.0803 103.178 94.0119 103.299 93.895C103.42 93.7781 103.487 93.622 103.487 93.4595C103.487 93.297 103.42 93.1408 103.299 93.0239C103.178 92.9071 103.013 92.8386 102.839 92.833C102.665 92.8386 102.501 92.9071 102.38 93.0239C102.259 93.1408 102.191 93.297 102.191 93.4595C102.191 93.622 102.259 93.7781 102.38 93.895C102.501 94.0119 102.665 94.0803 102.839 94.0859Z" fill="#935B50"/>
<path d="M84.7027 89.6679C84.8765 89.6623 85.0413 89.5939 85.1622 89.477C85.2831 89.3601 85.3506 89.204 85.3506 89.0415C85.3506 88.879 85.2831 88.7228 85.1622 88.606C85.0413 88.4891 84.8765 88.4206 84.7027 88.415C84.5288 88.4206 84.364 88.4891 84.2431 88.606C84.1223 88.7228 84.0547 88.879 84.0547 89.0415C84.0547 89.204 84.1223 89.3601 84.2431 89.477C84.364 89.5939 84.5288 89.6623 84.7027 89.6679Z" fill="#935B50"/>
<path d="M120.895 89.6679C121.069 89.6623 121.234 89.5939 121.355 89.477C121.475 89.3601 121.543 89.204 121.543 89.0415C121.543 88.879 121.475 88.7228 121.355 88.606C121.234 88.4891 121.069 88.4206 120.895 88.415C120.721 88.4206 120.556 88.4891 120.436 88.606C120.315 88.7228 120.247 88.879 120.247 89.0415C120.247 89.204 120.315 89.3601 120.436 89.477C120.556 89.5939 120.721 89.6623 120.895 89.6679Z" fill="#935B50"/>
</svg>
