<svg width="229" height="204" viewBox="0 0 229 204" fill="none" xmlns="http://www.w3.org/2000/svg">
<path d="M112.342 165.651C157.266 165.651 193.684 130.584 193.684 87.3257C193.684 44.0676 157.266 9 112.342 9C67.418 9 31 44.0676 31 87.3257C31 130.584 67.418 165.651 112.342 165.651Z" fill="#EFEDEF"/>
<path d="M39.1829 169.943V189.899H197.337V191.4C197.337 193.253 195.657 194.754 193.586 194.754H39.8648C34.9697 194.754 31 191.236 31 186.874V173.531C31 169.169 34.9697 165.651 39.8648 165.651H193.586C195.657 165.651 197.337 167.152 197.337 169.005V169.966H39.1829V169.943Z" fill="#C53030"/>
<path d="M51.75 168.251H192.248V189.32H51.75V168.251Z" fill="#FFEBC2"/>
<path d="M51.75 177.635H192.248V189.296H51.75V177.635Z" fill="#FFEBC2"/>
<path d="M69.9082 142.603H184.077V160.924H69.9082V142.603Z" fill="#CCE9FF"/>
<path d="M69.9086 142.603V160.923H188.39V162.31C188.39 164.018 187.119 165.38 185.575 165.38H70.408C66.7537 165.38 63.7803 162.137 63.7803 158.151V145.896C63.7803 141.91 66.7537 138.667 70.408 138.667H185.575C187.119 138.667 188.39 140.053 188.39 141.736V142.628H69.9086V142.603Z" fill="#2A94F4"/>
<path d="M119.252 80.239C117.686 77.9861 117.55 74.8914 119.025 72.5395C120.206 70.6579 121 68.3307 120.909 66.6224C120.728 63.5525 118.98 60.7302 116.597 59.0467C113.465 56.8185 109.288 56.4966 105.906 58.2297C102.524 59.9627 100.073 63.6763 99.6418 67.7118C99.324 70.6084 99.9368 73.7773 98.575 76.3026C97.5763 78.1099 95.7378 79.1745 93.922 79.8924C92.0835 80.5856 90.1542 81.056 88.4746 82.1206C86.795 83.1852 85.365 85.0172 85.3877 87.1464C85.4104 88.7556 86.2502 90.241 86.341 91.8255C86.4772 94.1527 84.9792 96.2076 83.3903 97.7425C81.7788 99.2775 79.9403 100.614 78.8508 102.62C77.0577 105.937 77.8975 110.418 80.1673 113.389C82.437 116.36 85.8417 118.019 89.2463 118.984C98.5523 121.658 108.358 119.925 117.959 119.752C120.932 119.702 123.974 119.801 126.856 118.984C129.739 118.167 132.553 116.286 133.756 113.315C134.982 110.344 134.369 106.73 132.735 104.031C131.101 101.332 128.536 99.3765 125.835 97.9901C123.883 96.9751 121.795 96.1828 120.206 94.5983C118.617 93.0139 117.686 90.3153 118.753 88.2604C119.162 87.4682 119.843 86.8493 120.228 86.057C121 84.5221 120.682 82.5662 119.82 81.0808C119.661 80.8332 119.479 80.5609 119.252 80.239Z" fill="#0E538C"/>
<path d="M69.9082 150.773H184.077V160.924H69.9082V150.773Z" fill="#CCE9FF"/>
<path d="M121.431 124.777L135.504 135.671L152.754 174.54H149.576L130.283 140.127C130.283 140.127 123.701 140.375 121.431 138.146C119.161 135.918 106.11 126.263 106.11 126.263L121.431 124.777Z" fill="#0B4870"/>
<path d="M96.5327 121.658C93.9679 129.234 95.7837 139.88 104.409 140.375C113.034 140.87 115.757 140.375 115.757 140.375L132.554 177.511H136.412L123.248 135.918L107.246 126.263L96.5327 121.658Z" fill="#0E538C"/>
<path d="M109.629 78.481C111.899 81.6994 117.347 90.6121 119.389 100.515C121.432 110.418 127.107 124.777 127.107 124.777H120.524L114.169 101.258L108.268 79.2237L109.629 78.481Z" fill="#C53030"/>
<path d="M116.619 65.3349C116.96 71.4005 114.531 75.5598 111.059 75.7578C107.586 75.9559 105.316 70.4597 106.36 65.3349C108.789 60.7796 112.103 60.4082 112.103 60.4082H114.191L116.619 65.3349Z" fill="#FFE3CA"/>
<path d="M114.305 61.7204C113.669 63.8495 112.262 65.6816 110.446 66.7214C108.63 67.7612 106.451 68.0088 104.477 67.3651L109.425 59.6655H113.669L117.732 63.1811L117.119 67.2165C115.53 65.9044 114.305 61.7204 114.305 61.7204Z" fill="#0E538C"/>
<path d="M110.015 75.04C109.289 78.1099 109.516 81.3284 109.516 81.8235C108.835 82.8138 105.657 82.5663 105.203 79.1002C105.884 74.6439 107.246 69.6924 107.246 69.6924L108.381 72.4157L110.015 75.04Z" fill="#FFE3CA"/>
<path d="M105.657 76.4756C102.82 77.4906 93.287 82.1946 92.833 83.1848C93.5139 85.9082 96.9186 126.263 96.9186 126.263H112.353C112.353 126.263 110.31 103.981 111.445 102.496C112.58 101.01 116.211 95.8111 115.757 95.0684C115.304 94.3257 109.538 78.3571 109.538 78.3571L105.657 76.4756Z" fill="#C53030"/>
<path d="M92.832 83.1851C90.6077 85.0419 81.2563 101.753 84.207 110.666C87.1576 119.579 96.8041 124.827 96.8041 124.827V119.925C96.8041 119.925 88.9734 113.142 89.4274 108.19C89.8813 103.239 95.3287 93.088 95.3287 93.088L92.832 83.1851Z" fill="#C53030"/>
<path d="M129.398 129.11H95.9873C94.9433 129.11 94.0808 128.169 94.0808 127.031L93.1729 103.709C93.1729 102.57 94.0354 101.629 95.0794 101.629H129.852C130.896 101.629 131.759 102.57 131.759 103.709L131.305 127.031C131.305 128.169 130.442 129.11 129.398 129.11Z" fill="#D1D1D1"/>
<path d="M135.866 177.511C138.114 178.055 141.155 180.754 142.608 182.14C142.903 182.413 142.721 182.957 142.313 182.957C139.975 182.908 134.686 182.636 133.461 181.497C131.872 180.011 132.326 177.536 132.326 177.536H135.866V177.511ZM152.708 174.441C154.705 175.035 157.338 177.56 158.655 178.922C158.95 179.219 158.723 179.739 158.337 179.714C156.135 179.541 151.414 179.071 150.347 177.956C148.94 176.52 149.462 174.268 149.462 174.268L152.708 174.441Z" fill="#1A87D8"/>
<path d="M112.579 119.083C114.46 119.083 115.984 117.421 115.984 115.37C115.984 113.319 114.46 111.656 112.579 111.656C110.699 111.656 109.175 113.319 109.175 115.37C109.175 117.421 110.699 119.083 112.579 119.083Z" fill="white"/>
<path opacity="0.14" d="M82.6192 168.103L78.3067 165.38L73.9941 168.103V150.773H82.6192V168.103Z" fill="#0C0C0C"/>
</svg>
