<svg width="250" height="250" viewBox="0 0 250 250" fill="none" xmlns="http://www.w3.org/2000/svg">
<path d="M119.5 221C185.498 221 239 171.527 239 110.5C239 49.4725 185.498 0 119.5 0C53.502 0 0 49.4725 0 110.5C0 171.527 53.502 221 119.5 221Z" fill="#EFEDEF"/>
<path d="M37.0196 209.783V241.327H250V243.699C250 246.628 247.737 249 244.949 249H37.9379C31.3458 249 26 243.44 26 236.546V215.454C26 208.56 31.3458 203 37.9379 203H244.949C247.737 203 250 205.372 250 208.301V209.82H37.0196V209.783Z" fill="#E4262C"/>
<path d="M35.3164 208.158H245.354V246.861H35.3164V208.158Z" fill="#FFEBC2"/>
<path d="M35.3164 223.85H245.354V245.816H35.3164V223.85Z" fill="#FFEBC2"/>
<path d="M61.3379 160.041H232.342V194.56H61.3379V160.041Z" fill="#CCE9FF"/>
<path d="M62.0693 161.749V194.031H237.918V196.474C237.918 199.484 236.031 201.884 233.741 201.884H62.8104C57.3867 201.884 52.9736 196.169 52.9736 189.145V167.551C52.9736 160.527 57.3867 154.812 62.8104 154.812H233.741C236.031 154.812 237.918 157.255 237.918 160.222V161.792H62.0693V161.749Z" fill="#2A94F4"/>
<path d="M135.572 47.6052C133.255 43.4755 133.053 37.8027 135.236 33.4915C136.983 30.0424 138.159 25.7765 138.024 22.6452C137.755 17.0178 135.169 11.8443 131.642 8.75834C127.007 4.67398 120.827 4.08402 115.822 7.26075C110.818 10.4375 107.19 17.2448 106.552 24.642C106.082 29.9517 106.989 35.7606 104.973 40.3895C103.495 43.7024 100.775 45.6538 98.0877 46.9699C95.367 48.2406 92.512 49.1028 90.0265 51.0542C87.5409 53.0057 85.4249 56.3639 85.4584 60.2668C85.492 63.2166 86.7348 65.9395 86.8691 68.8439C87.0707 73.1098 84.8538 76.8765 82.5027 79.6902C80.1179 82.5039 77.3972 84.9545 75.785 88.6304C73.1315 94.7116 74.3743 102.926 77.7331 108.372C81.092 113.817 86.1302 116.858 91.1685 118.628C104.94 123.529 119.45 120.352 133.658 120.035C138.058 119.944 142.559 120.125 146.824 118.628C151.09 117.13 155.255 113.681 157.035 108.235C158.849 102.79 157.942 96.1638 155.524 91.2172C153.105 86.2706 149.31 82.6854 145.313 80.144C142.424 78.2833 139.334 76.8311 136.983 73.9267C134.632 71.0222 133.255 66.0756 134.833 62.3089C135.438 60.8567 136.446 59.7222 137.017 58.2699C138.159 55.4563 137.688 51.8711 136.412 49.1482C136.177 48.6944 135.908 48.1952 135.572 47.6052Z" fill="#0E538C"/>
<path d="M61.3379 176.777H232.342V194.56H61.3379V176.777Z" fill="#CCE9FF"/>
<path d="M139.69 128.66L160.439 148.352L185.874 218.618H181.189L152.742 156.408C152.742 156.408 143.037 156.856 139.69 152.828C136.344 148.8 117.101 131.345 117.101 131.345L139.69 128.66Z" fill="#0B4870"/>
<path d="M101.072 122.385C97.1721 136.147 99.9331 155.487 113.048 156.386C126.162 157.286 130.304 156.386 130.304 156.386L155.843 223.849H161.71L141.693 148.291L117.362 130.75L101.072 122.385Z" fill="#0E538C"/>
<path d="M121.77 44.9785C124.905 50.796 132.43 66.9059 135.251 84.8058C138.073 102.706 145.911 128.661 145.911 128.661H136.819L128.04 86.1483L119.889 46.321L121.77 44.9785Z" fill="#E4262C"/>
<path d="M131.926 20.2321C132.406 30.9756 128.982 38.3425 124.085 38.6933C119.189 39.0441 115.989 29.3092 117.461 20.2321C120.885 12.1636 125.557 11.5059 125.557 11.5059H128.501L131.926 20.2321Z" fill="#FFE3CA"/>
<path d="M128.334 14.4646C127.487 18.613 125.612 22.1825 123.193 24.2085C120.774 26.2344 117.872 26.7168 115.241 25.4626L121.833 10.4609H127.487L132.899 17.3106L132.083 25.1732C129.966 22.6166 128.334 14.4646 128.334 14.4646Z" fill="#0E538C"/>
<path d="M121.747 39.6298C120.905 44.9663 121.168 50.561 121.168 51.4218C120.379 53.1432 116.697 52.7128 116.171 46.6878C116.96 38.9412 118.538 30.334 118.538 30.334L119.853 35.068L121.747 39.6298Z" fill="#FFE3CA"/>
<path d="M114.928 40.7949C110.679 42.6503 96.4044 51.2484 95.7246 53.0585C96.7443 58.0364 101.842 131.799 101.842 131.799H124.955C124.955 131.799 121.896 91.0712 123.595 88.356C125.294 85.6408 130.733 76.1377 130.053 74.7801C129.373 73.4225 120.74 44.2342 120.74 44.2342L114.928 40.7949Z" fill="#E4262C"/>
<path d="M96.3432 53.3477C93.0462 56.7059 79.1856 86.9299 83.5591 103.049C87.9326 119.169 102.231 128.661 102.231 128.661V119.796C102.231 119.796 90.624 107.527 91.2968 98.5718C91.9697 89.6165 100.044 71.2582 100.044 71.2582L96.3432 53.3477Z" fill="#E4262C"/>
<path d="M149.878 137.028H100.789C99.2554 137.028 97.9882 135.345 97.9882 133.308L96.6543 91.5857C96.6543 89.5483 97.9215 87.8652 99.4555 87.8652H150.545C152.079 87.8652 153.346 89.5483 153.346 91.5857L152.679 133.308C152.679 135.345 151.412 137.028 149.878 137.028Z" fill="#D1D1D1"/>
<path d="M158.897 224.865C162.361 225.914 167.051 231.112 169.29 233.782C169.745 234.307 169.465 235.356 168.835 235.356C165.231 235.26 157.078 234.736 155.188 232.542C152.738 229.681 153.438 224.913 153.438 224.913H158.897V224.865ZM184.862 218.953C187.941 220.097 192 224.961 194.03 227.583C194.485 228.156 194.135 229.157 193.54 229.109C190.146 228.775 182.867 227.869 181.223 225.724C179.053 222.958 179.858 218.619 179.858 218.619L184.862 218.953Z" fill="#1A87D8"/>
<path d="M125.929 118.2C128.752 118.2 131.04 115.156 131.04 111.401C131.04 107.646 128.752 104.602 125.929 104.602C123.106 104.602 120.817 107.646 120.817 111.401C120.817 115.156 123.106 118.2 125.929 118.2Z" fill="white"/>
<path opacity="0.14" d="M81.7846 208.158L75.279 203.227L68.7734 208.158V176.777H81.7846V208.158Z" fill="#0C0C0C"/>
</svg>
