<svg width="250" height="250" viewBox="0 0 250 250" fill="none" xmlns="http://www.w3.org/2000/svg">
<path d="M62.5768 189.694C48.6336 167.767 33.7536 124.932 44.1109 84.1864C45.1788 79.9855 55.3506 41.6284 77.8463 34.4274C105.246 25.6564 117.966 73.6588 149.346 71.981C183.329 70.1639 195.195 12.4362 212.912 19.4128C233.861 27.6625 249.613 121.117 222.001 178.476C188.737 247.575 100.069 248.653 62.5768 189.694Z" fill="#EFEDEF"/>
<path d="M139.405 247.908C104.372 247.909 71.6715 229.942 52.3573 199.467C38.705 177.924 18.9268 128.333 31.396 79.1142L32.4591 79.6775C20.1775 128.158 39.7129 177.09 53.1926 198.36C74.1169 231.375 110.978 249.543 149.379 245.782C185.463 242.244 215.685 220.36 232.296 185.738C252.909 142.775 251.904 81.8587 242.247 43.4413C237.145 23.1429 229.893 9.79117 222.35 6.81152L222.649 5.23047C230.551 8.35257 238.082 22.0755 243.312 42.8813C253.064 81.6826 254.068 143.231 233.226 186.673C216.419 221.706 185.885 243.845 149.456 247.416C146.091 247.746 142.741 247.91 139.405 247.908Z" fill="#EFEDEF"/>
<path d="M105.691 59.752C100.36 60.1827 95.0279 60.5218 89.694 60.7693C84.3604 61.0368 79.0255 61.22 73.6903 61.3872C68.3548 61.5272 63.019 61.6492 57.6818 61.6875C52.345 61.746 47.0067 61.7115 41.667 61.5838C46.998 61.1515 52.3305 60.8117 57.6644 60.5644C62.998 60.2973 68.3329 60.114 73.668 59.9486C79.0036 59.8103 84.3395 59.6884 89.6766 59.6504C95.0135 59.5926 100.352 59.6264 105.691 59.752Z" fill="#F9E0C0"/>
<path d="M63.0081 83.8749C57.7617 84.521 52.5139 85.0297 47.2646 85.4011C42.0157 85.8023 36.7655 86.0773 31.515 86.3277C26.2642 86.5377 21.013 86.7209 15.7606 86.7781C10.5085 86.8662 5.25496 86.8144 0 86.6229C5.24638 85.9742 10.4942 85.4644 15.7435 85.0935C20.9924 84.6929 26.2426 84.4179 31.4931 84.1702C36.744 83.9627 41.9951 83.7795 47.2476 83.7229C52.4997 83.6359 57.7532 83.6866 63.0081 83.8749Z" fill="#F9E0C0"/>
<path d="M81.3011 113.035C76.0546 113.25 70.8068 113.42 65.5576 113.544C60.3087 113.678 55.0585 113.769 49.808 113.853C44.5572 113.923 39.306 113.984 34.0536 114.003C28.8015 114.032 23.5479 114.015 18.293 113.951C23.5394 113.735 28.7872 113.565 34.0364 113.441C39.2854 113.308 44.5356 113.216 49.7861 113.134C55.037 113.064 60.2881 113.003 65.5406 112.984C70.7926 112.955 76.0461 112.972 81.3011 113.035Z" fill="#F9E0C0"/>
<path d="M165.65 106.695C171.066 106.695 171.075 94.1426 165.65 94.1426C160.234 94.1426 160.225 106.695 165.65 106.695Z" fill="#5669A5"/>
<path d="M120.337 2.29623C122.045 1.8912 123.795 2.08985 125.441 2.8758C126.213 3.26781 129.035 4.70138 130.429 8.60685C130.959 10.0901 131.087 11.8807 131.344 15.462C131.504 17.699 132.099 19.2951 132.114 22.0257C132.096 24.2384 131.862 26.436 131.419 28.5507C130.757 31.8602 131.207 33.73 130.87 34.3513C129.514 36.8554 125.342 34.9565 125.299 38.2023C125.272 40.2065 127.619 48.8277 127.585 51.1756C127.508 56.6469 121.271 51.0005 117.512 42.8881C117.341 42.5199 114.791 40.3649 115.036 36.8177C115.167 34.9227 116.207 26.0257 116.096 24.8809C115.693 20.743 114.272 20.2556 113.125 15.2619C112.815 14.0085 112.728 12.6586 112.873 11.3417C113.019 10.0248 113.392 8.78497 113.956 7.74107C115.583 4.88055 117.842 2.9533 120.337 2.29623Z" fill="#F9977A"/>
<path d="M116.87 18.8786C116.742 18.7968 116.606 18.8148 116.483 18.9296C116.361 19.0366 116.251 19.1985 116.158 19.4051C116.068 19.608 115.995 19.8439 115.941 20.1023C115.888 20.3592 115.858 20.6373 115.854 20.9202C115.944 20.7415 116.03 20.5509 116.111 20.3493C116.193 20.1689 116.262 19.9765 116.342 19.8125C116.418 19.6393 116.498 19.4753 116.582 19.3213C116.672 19.1553 116.768 19.0071 116.87 18.8786Z" fill="#DD765E"/>
<path d="M120.588 26.6982C120.588 26.6982 119.535 20.7774 119.711 19.0768C119.955 16.7071 120.077 15.5223 119.862 14.5616C119.517 13.0238 120.07 12.8167 120.774 11.1516C121.434 9.58891 123.519 10.8236 124.035 10.5585C125.485 9.81416 125.426 8.98616 126.409 8.89207C127.417 8.79557 128.154 8.42654 128.811 9.29938C129.481 10.1903 130.716 12.5648 131.014 12.1469C131.64 10.9975 132.021 9.63677 132.114 8.21398C132.112 6.81265 131.858 5.43291 131.374 4.19428C131.131 3.47829 130.225 0.813801 128.37 0.121102C127.301 -0.277934 127.101 0.4191 124.796 0.630408C122.406 0.849677 122.327 0.126918 121.078 0.623087C119.695 1.17242 119.753 2.07264 117.395 3.85131C116.613 4.42226 115.808 4.9353 114.985 5.38818C112.022 7.12694 111.631 6.85891 110.952 7.76132C109.49 9.70687 109.751 13.0199 109.815 13.8202C109.993 16.074 110.648 16.7444 112.086 20.3415C114.364 26.038 113.93 28.4478 114.756 29.2407C115.162 29.6296 117.275 27.5597 117.259 26.5519C117.238 25.2309 116.532 24.8221 115.691 22.9221C115.104 21.5942 114.261 19.6878 114.728 17.9453C115.011 16.8921 115.336 17.1755 116.141 17.2671C117.233 17.3914 117.782 19.4419 118.229 20.9463C118.552 22.035 118.695 23.2057 118.65 24.377C118.551 26.9903 120.971 27.7338 120.588 26.6982Z" fill="#1E1D22"/>
<path d="M125.205 44.6359C125.205 44.6359 129.207 61.1647 113.905 36.6113L107.256 44.4974C105.878 46.1598 104.928 48.431 104.555 50.9517C104.229 54.5275 103.904 58.1034 103.578 61.6793C102.339 75.2743 102.331 89.0402 103.552 102.638C103.882 106.306 104.211 109.973 104.54 113.64L133.13 119.247C131.522 111.383 130.572 103.274 130.301 95.0899C129.979 85.2941 130.829 81.1262 130.504 73.0013C130.058 63.1412 128.257 53.5029 125.205 44.6359Z" fill="#C53030"/>
<path d="M130.082 110.88C129.553 110.453 129.015 110.066 128.484 109.66L126.926 108.369C125.911 107.47 124.941 106.474 124.023 105.388C123.104 104.313 122.273 103.098 121.545 101.764C121.185 101.092 120.865 100.38 120.588 99.6344C120.292 98.8951 120.067 98.1038 119.919 97.2812C120.087 98.9994 120.543 100.636 121.251 102.055C121.942 103.491 122.773 104.781 123.721 105.887C124.658 106.998 125.671 107.975 126.745 108.803L128.382 109.947C128.951 110.258 129.511 110.589 130.082 110.88Z" fill="#E6952A"/>
<path d="M121.951 34.5195C123.69 36.4637 127.022 36.3328 127.022 36.3328L127.032 36.4585C125.738 36.7317 124.512 36.9378 124.49 38.7936C124.551 39.8318 124.687 40.8549 124.896 41.8417C122.62 39.7652 121.951 34.5195 121.951 34.5195Z" fill="#DD765E"/>
<path d="M158.883 179.916L160.356 190.887L174.797 194.307L155.487 202.929L151.423 183.247L158.883 179.916Z" fill="#F9977A"/>
<path d="M177.817 194.655L177.804 194.584C177.699 194.045 177.5 193.561 177.229 193.187C176.959 192.814 176.627 192.565 176.272 192.468L160.917 188.3C160.766 188.259 160.612 188.302 160.48 188.422C160.348 188.541 160.247 188.729 160.195 188.953L158.644 195.601C158.589 195.836 158.48 196.032 158.338 196.15C158.196 196.267 158.031 196.299 157.875 196.238L154.263 194.823C154.151 194.78 154.034 194.783 153.924 194.833C153.814 194.883 153.714 194.978 153.634 195.108C153.555 195.238 153.499 195.399 153.473 195.574C153.446 195.749 153.45 195.931 153.483 196.103L155.28 205.347C155.33 205.605 155.443 205.821 155.595 205.948C155.747 206.075 155.926 206.102 156.09 206.024L177.384 195.921C177.549 195.843 177.687 195.666 177.769 195.428C177.85 195.191 177.867 194.912 177.817 194.655Z" fill="#065082"/>
<path d="M104.832 106.834C104.832 106.834 100.343 135.814 108.922 135.294H141.533L150.318 186.942C150.318 186.942 153.696 188.949 156.629 188.055C158.643 187.441 160.379 184.642 161.585 183.211C161.585 183.211 155.167 109.166 143.025 106.917C127.88 104.112 104.832 106.834 104.832 106.834Z" fill="#0C2C40"/>
<path d="M141.26 133.891C142.102 132.791 142.854 131.62 143.509 130.391C143.815 129.783 144.129 129.177 144.403 128.537C144.692 127.902 144.941 127.244 145.274 126.568C145.367 127.313 145.332 128.069 145.171 128.801C145.023 129.54 144.768 130.251 144.417 130.912C144.067 131.576 143.619 132.179 143.09 132.7C142.576 133.238 141.95 133.645 141.26 133.891Z" fill="#5E7C24"/>
<path d="M115.539 54.5747C115.539 54.5747 116.788 50.1238 133.13 85.227L126.921 97.2796C126.921 97.2796 117.905 86.1841 113.821 76.6055" fill="#C53030"/>
<path d="M169.716 91.0426L184.216 80.543L184.96 104.602L171.017 97.7513L169.716 91.0426Z" fill="#6C7FD8"/>
<path d="M82.8252 250C94.8924 250 104.675 235.482 104.675 217.573C104.675 199.664 94.8924 185.146 82.8252 185.146C70.758 185.146 60.9756 199.664 60.9756 217.573C60.9756 235.482 70.758 250 82.8252 250Z" fill="#1E1D22"/>
<path d="M77.744 235.356C83.6372 235.356 88.4147 227.862 88.4147 218.619C88.4147 209.376 83.6372 201.883 77.744 201.883C71.8507 201.883 67.0732 209.376 67.0732 218.619C67.0732 227.862 71.8507 235.356 77.744 235.356Z" fill="#848384"/>
<path d="M77.7441 221.757C79.775 221.757 79.7783 218.619 77.7441 218.619C75.7133 218.619 75.7099 221.757 77.7441 221.757Z" fill="white"/>
<path d="M201.728 250C213.795 250 223.577 235.482 223.577 217.573C223.577 199.664 213.795 185.146 201.728 185.146C189.66 185.146 179.878 199.664 179.878 217.573C179.878 235.482 189.66 250 201.728 250Z" fill="#1E1D22"/>
<path d="M202.236 235.356C208.409 235.356 213.414 227.862 213.414 218.619C213.414 209.376 208.409 201.883 202.236 201.883C196.062 201.883 191.057 209.376 191.057 218.619C191.057 227.862 196.062 235.356 202.236 235.356Z" fill="#848384"/>
<path d="M201.728 223.849C206.466 223.849 206.474 215.48 201.728 215.48C196.989 215.48 196.981 223.849 201.728 223.849Z" fill="#1E1D22"/>
<path d="M230.691 214.023C230.691 214.023 210.551 199.524 174.747 218.855H110.793C110.793 218.855 89.5341 238.186 53.7298 223.688C53.7298 223.688 49.2542 212.412 60.4431 188.248C60.4431 188.248 67.1564 160.862 71.6319 156.029L133.328 156.075C133.328 156.075 131.888 200.798 154.265 204.02C176.643 207.242 174.405 176.634 174.405 176.634L171.443 108.895C171.392 104.6 171.188 100.31 170.832 96.0444C170.425 91.0699 169.25 91.7616 170.648 92.7684C172.886 94.3794 194.887 128.643 199.362 176.971C199.362 176.971 225.097 172.138 230.691 214.023Z" fill="#6C7FD8"/>
<path d="M198.171 176.777C194.9 178.007 191.779 179.955 188.915 182.553C187.51 183.829 186.179 185.27 184.935 186.861C183.687 188.427 182.544 190.161 181.521 192.04C180.474 193.895 179.542 195.879 178.736 197.971C178.513 198.478 178.331 199.018 178.138 199.551C177.953 200.088 177.74 200.608 177.576 201.162C177.244 202.267 176.872 203.351 176.58 204.486C175.365 209.069 174.431 213.798 173.789 218.618C173.707 213.596 174.185 208.587 175.206 203.785C176.22 198.896 177.871 194.334 180.069 190.343C183.411 184.366 187.946 180.031 193.054 177.931C194.719 177.23 196.438 176.843 198.171 176.777Z" fill="#5669A5"/>
<path d="M110.02 218.619C111.954 214.304 113.465 209.615 114.51 204.689C115.527 199.833 115.961 194.648 115.169 189.843C114.333 185.042 112.316 180.858 109.502 178.085C109.329 177.906 109.168 177.705 108.986 177.542L108.442 177.053C108.076 176.733 107.727 176.377 107.349 176.084C106.576 175.533 105.847 174.892 105.028 174.44L103.828 173.702C103.44 173.468 103.045 173.262 102.643 173.087C101.83 172.717 100.993 172.413 100.151 172.154C96.7529 171.116 93.2729 170.773 89.8104 171.133C88.0737 171.3 86.3453 171.619 84.6346 172.086C82.9216 172.557 81.2328 173.207 79.5543 173.92C72.8385 177.129 66.5533 182.006 60.9756 188.335L62.9627 185.736L65.0429 183.288L67.1964 180.966C67.9391 180.244 68.6736 179.497 69.427 178.791C72.4741 176.004 75.719 173.705 79.1051 171.935C82.5219 170.186 86.0753 169.067 89.6826 168.604C93.3117 168.162 96.9654 168.476 100.534 169.536C101.426 169.822 102.312 170.154 103.192 170.565C103.626 170.769 104.085 170.997 104.511 171.269L105.761 172.054C106.603 172.532 107.4 173.233 108.217 173.833C108.62 174.152 109.001 174.541 109.393 174.893C109.791 175.239 110.171 175.625 110.53 176.05C113.618 179.237 115.772 184 116.563 189.395C116.916 192.045 116.965 194.761 116.708 197.434C116.455 200.058 116.002 202.632 115.357 205.109C114.71 207.552 113.934 209.918 113.036 212.186C112.156 214.45 111.147 216.602 110.02 218.619Z" fill="#5669A5"/>
<path d="M68.6789 156.903H129.492C133.185 156.903 136.179 151.751 136.179 145.397C136.179 139.043 133.185 133.891 129.492 133.891H68.6789C64.9862 133.891 61.9922 139.043 61.9922 145.397C61.9922 151.751 64.9862 156.903 68.6789 156.903Z" fill="#5669A5"/>
<path d="M102.643 183.055C101.623 184.885 100.475 186.54 99.2203 187.991C97.9735 189.466 96.6617 190.809 95.2941 192.01C94.625 192.656 93.9154 193.18 93.2148 193.736C92.5188 194.309 91.7945 194.784 91.0767 195.287C90.7185 195.541 90.3551 195.776 89.9928 196.015L88.8865 196.655C88.1453 197.065 87.4155 197.531 86.6639 197.894C83.667 199.377 80.591 200.459 77.4707 201.128C75.9213 201.518 74.3448 201.615 72.7877 201.827C71.2196 201.902 69.6513 201.905 68.0898 201.819C69.6214 201.266 71.1532 200.887 72.6725 200.423L74.9417 199.674C75.6965 199.425 76.4564 199.233 77.2004 198.917C77.9474 198.626 78.6944 198.346 79.4442 198.091C80.1975 197.857 80.9263 197.473 81.6671 197.171C82.402 196.835 83.1568 196.607 83.8816 196.225L86.0705 195.159C86.8051 194.828 87.5162 194.396 88.2408 194.02L89.3218 193.43C89.6754 193.209 90.028 192.984 90.3858 192.777C91.8238 191.971 93.2113 190.986 94.6093 190.027C95.2992 189.521 95.9979 189.031 96.6742 188.481L97.7014 187.681L98.7071 186.82C100.066 185.683 101.38 184.426 102.643 183.055Z" fill="#5669A5"/>
<path d="M105.691 194.561C104.641 196.187 103.46 197.658 102.168 198.948C100.885 200.259 99.5343 201.453 98.1265 202.521C97.4377 203.095 96.7072 203.561 95.986 204.055C95.2696 204.565 94.5238 204.987 93.7851 205.433C93.4163 205.659 93.0423 205.868 92.6692 206.081L91.5305 206.65C90.7675 207.014 90.0161 207.429 89.2425 207.751C86.1574 209.069 82.9909 210.031 79.7789 210.625C78.1838 210.972 76.561 211.059 74.9581 211.247C73.3438 211.313 71.7295 211.316 70.1221 211.24C71.6987 210.748 73.2755 210.412 74.8395 209.999L77.1755 209.334C77.9525 209.112 78.7347 208.941 79.5006 208.66C80.2696 208.402 81.0385 208.153 81.8104 207.926C82.5859 207.718 83.3361 207.377 84.0987 207.108C84.8551 206.81 85.6322 206.607 86.3783 206.268L88.6316 205.32C89.3878 205.026 90.1198 204.642 90.8658 204.307L91.9786 203.783C92.3426 203.587 92.7056 203.387 93.0739 203.203C94.5541 202.486 95.9825 201.61 97.4215 200.759C98.1319 200.309 98.8511 199.873 99.5473 199.384L100.605 198.673L101.64 197.908C103.039 196.897 104.392 195.779 105.691 194.561Z" fill="#5669A5"/>
<path d="M184.872 103.59C186.273 103.495 187.237 98.127 187.025 91.6002C186.813 85.0734 185.506 79.8596 184.106 79.9547C182.705 80.0498 181.741 85.418 181.953 91.9447C182.164 98.4715 183.472 103.685 184.872 103.59Z" fill="#FFBA55"/>
<path d="M184.046 80.543C183.838 80.6162 183.645 80.745 183.482 80.9204C183.318 81.0958 183.188 81.3134 183.1 81.558C182.893 82.0257 182.734 82.523 182.625 83.0386C182.399 84.0796 182.242 85.1417 182.157 86.2145C181.837 90.5402 182.004 94.8997 182.65 99.1691C182.817 100.227 183.053 101.266 183.357 102.276C183.504 102.777 183.7 103.254 183.941 103.696C184.047 103.929 184.193 104.131 184.369 104.286C184.545 104.442 184.747 104.548 184.96 104.597C184.724 104.617 184.489 104.568 184.272 104.456C184.054 104.343 183.861 104.17 183.707 103.949C183.376 103.541 183.092 103.079 182.862 102.576C182.414 101.582 182.058 100.528 181.801 99.4349C180.798 95.0811 180.625 90.4992 181.294 86.0487C181.467 84.9308 181.742 83.8406 182.113 82.7989C182.303 82.2714 182.551 81.7785 182.849 81.3338C182.985 81.0964 183.165 80.9014 183.372 80.7642C183.58 80.6269 183.811 80.5512 184.046 80.543Z" fill="#E6952A"/>
<path d="M177.845 105.649C177.219 104.668 176.643 103.637 176.077 102.597L174.4 99.479C173.849 98.4359 173.288 97.4175 172.71 96.4517C172.423 95.9694 172.12 95.5191 171.802 95.1033C171.491 94.6609 171.123 94.3646 170.731 94.2416C171.154 94.0583 171.599 94.1308 171.996 94.4478C172.391 94.7315 172.768 95.0931 173.118 95.5259C173.804 96.3751 174.439 97.3508 175.011 98.4368C175.579 99.5063 176.104 100.646 176.582 101.846C177.07 103.039 177.493 104.312 177.845 105.649Z" fill="#5669A5"/>
<path d="M86.769 131.799H56.5234C56.087 131.799 55.6685 131.525 55.3599 131.037C55.0513 130.549 54.8779 129.886 54.8779 129.196V94.1426H88.4145V129.196C88.4145 129.886 88.2412 130.549 87.9326 131.037C87.624 131.525 87.2055 131.799 86.769 131.799Z" fill="#F73C4F"/>
<path d="M99.5908 85.3973V90.3279C99.6226 91.2895 99.3923 92.2304 98.9502 92.945C98.5081 93.6597 97.8901 94.09 97.2312 94.1421H55.2042C54.5458 94.0897 53.9283 93.6591 53.4869 92.9443C53.0455 92.2295 52.8161 91.2888 52.8488 90.3279V85.3973C52.817 84.4374 53.0469 83.4982 53.4882 82.7848C53.9296 82.0713 54.5465 81.6418 55.2042 81.5898H97.2312C97.8894 81.6415 98.5069 82.0707 98.9489 82.784C99.391 83.4973 99.6217 84.4368 99.5908 85.3973Z" fill="#B02336"/>
<path d="M73.1712 81.5898H71.1387V133.891H73.1712V81.5898Z" fill="#E19974"/>
<path d="M88.4145 110.879H54.8779V114.017H88.4145V110.879Z" fill="#E19974"/>
<path d="M87.6626 133.424H67.4506L62.8922 125.883C62.8242 125.766 62.741 125.673 62.6481 125.611C62.5552 125.549 62.4549 125.519 62.354 125.524C62.2531 125.529 62.1541 125.567 62.0636 125.638C61.9732 125.708 61.8934 125.808 61.8299 125.932C61.6918 126.194 61.6186 126.526 61.6237 126.866C61.6288 127.207 61.712 127.533 61.8578 127.784L65.2669 133.424H59.8287V127.473C59.8395 127.307 59.8281 127.14 59.7953 126.982C59.7624 126.824 59.7089 126.678 59.638 126.555C59.5672 126.431 59.4807 126.332 59.3841 126.265C59.2874 126.197 59.1829 126.162 59.0771 126.162C58.9714 126.162 58.8668 126.197 58.7702 126.265C58.6736 126.332 58.5871 126.431 58.5162 126.555C58.4454 126.678 58.3918 126.824 58.359 126.982C58.3262 127.14 58.3148 127.307 58.3256 127.473V133.424H54.6129C54.4068 133.457 54.2158 133.61 54.077 133.852C53.9382 134.094 53.8613 134.408 53.8613 134.734C53.8613 135.06 53.9382 135.375 54.077 135.616C54.2158 135.858 54.4068 136.011 54.6129 136.044H58.3256V141.996C58.3148 142.161 58.3262 142.328 58.359 142.486C58.3918 142.645 58.4454 142.79 58.5162 142.914C58.5871 143.037 58.6736 143.136 58.7702 143.203C58.8668 143.271 58.9714 143.306 59.0771 143.306C59.1829 143.306 59.2874 143.271 59.3841 143.203C59.4807 143.136 59.5672 143.037 59.638 142.914C59.7089 142.79 59.7624 142.645 59.7953 142.486C59.8281 142.328 59.8395 142.161 59.8287 141.996V136.044H66.8506L70.6369 142.308C70.7049 142.425 70.7882 142.518 70.8811 142.58C70.974 142.642 71.0743 142.671 71.1752 142.667C71.276 142.662 71.3751 142.623 71.4655 142.553C71.556 142.483 71.6357 142.382 71.6993 142.259C71.8374 141.997 71.9106 141.665 71.9055 141.325C71.9004 140.984 71.8172 140.658 71.6714 140.407L69.0344 136.044H87.6626C87.8687 136.011 88.0597 135.858 88.1985 135.616C88.3373 135.374 88.4142 135.06 88.4142 134.734C88.4142 134.408 88.3373 134.094 88.1985 133.852C88.0597 133.61 87.8687 133.457 87.6626 133.424Z" fill="#E19974"/>
<path d="M132.438 86.8203L158.643 91.9449C158.643 91.9449 169.346 86.1193 171.526 94.381C171.814 95.5221 171.822 96.7746 171.55 97.9237C170.896 100.798 169.351 106.472 168.219 101.737L167.055 96.8692C167.055 96.8692 163.038 100.949 159.157 98.9261C157.755 98.1951 138.987 103.557 128.87 99.9368L126.017 98.704L132.438 86.8203Z" fill="#F9977A"/>
<path d="M115.49 54.5867C115.566 54.3806 115.737 54.3804 115.87 54.4016C116.009 54.4428 116.145 54.5046 116.276 54.586C116.529 54.7776 116.772 55.0014 117.002 55.2553C117.236 55.4971 117.46 55.764 117.672 56.0543C117.884 56.3412 118.112 56.6039 118.311 56.9129C119.139 58.0985 119.922 59.3582 120.682 60.6477C122.2 63.2345 123.599 65.9779 125.001 68.7139C126.393 71.4628 127.737 74.27 129.053 77.1073C130.391 79.9213 131.645 82.8266 132.943 85.6847L133.13 86.0966L132.931 86.5045L129.907 92.6876L126.866 98.8498L126.608 99.3717L126.296 98.9518C125.106 97.3523 123.957 95.7115 122.837 94.0075C121.718 92.307 120.617 90.5752 119.552 88.7892C118.487 87.0042 117.454 85.1682 116.49 83.2423C115.515 81.3337 114.624 79.3225 113.821 77.2226C114.723 79.207 115.691 81.1132 116.722 82.9329C117.755 84.7455 118.836 86.4873 119.924 88.2134C121.021 89.9278 122.153 91.5868 123.302 93.2127C124.456 94.8261 125.618 96.4418 126.803 97.9775L126.234 98.0795L129.226 91.8584L132.236 85.6579L132.223 86.4773C130.945 83.6079 129.686 80.7159 128.388 77.87C127.109 75.0017 125.79 72.181 124.478 69.3523C123.147 66.549 121.804 63.7528 120.369 61.0849C119.662 59.7375 118.931 58.4198 118.155 57.1732C117.969 56.8475 117.755 56.5722 117.556 56.269C117.357 55.9656 117.147 55.6821 116.927 55.4199C116.714 55.1437 116.487 54.8954 116.248 54.6777C116.125 54.584 115.997 54.5084 115.866 54.4517C115.739 54.4168 115.576 54.3929 115.49 54.5867Z" fill="#E6952A"/>
<path d="M59.4515 133.891C59.5878 133.882 59.717 133.767 59.8118 133.572C59.9066 133.377 59.9596 133.116 59.9596 132.845C59.9596 132.574 59.9066 132.313 59.8118 132.118C59.717 131.922 59.5878 131.808 59.4515 131.799C59.3151 131.808 59.1859 131.922 59.0911 132.118C58.9963 132.313 58.9434 132.574 58.9434 132.845C58.9434 133.116 58.9963 133.377 59.0911 133.572C59.1859 133.767 59.3151 133.882 59.4515 133.891Z" fill="#935B50"/>
<path d="M59.4515 143.306C59.5878 143.292 59.717 143.121 59.8118 142.828C59.9066 142.535 59.9596 142.144 59.9596 141.737C59.9596 141.33 59.9066 140.939 59.8118 140.646C59.717 140.353 59.5878 140.182 59.4515 140.168C59.3151 140.182 59.1859 140.353 59.0911 140.646C58.9963 140.939 58.9434 141.33 58.9434 141.737C58.9434 142.144 58.9963 142.535 59.0911 142.828C59.1859 143.121 59.3151 143.292 59.4515 143.306Z" fill="#935B50"/>
<path d="M63.5159 127.615C63.6523 127.606 63.7815 127.492 63.8763 127.297C63.9711 127.102 64.0241 126.841 64.0241 126.569C64.0241 126.298 63.9711 126.037 63.8763 125.842C63.7815 125.647 63.6523 125.533 63.5159 125.523C63.3796 125.533 63.2504 125.647 63.1556 125.842C63.0608 126.037 63.0078 126.298 63.0078 126.569C63.0078 126.841 63.0608 127.102 63.1556 127.297C63.2504 127.492 63.3796 127.606 63.5159 127.615Z" fill="#935B50"/>
<path d="M59.4515 127.614C59.5878 127.61 59.717 127.553 59.8118 127.455C59.9066 127.357 59.9596 127.227 59.9596 127.091C59.9596 126.956 59.9066 126.825 59.8118 126.728C59.717 126.63 59.5878 126.573 59.4515 126.568C59.3151 126.573 59.1859 126.63 59.0911 126.728C58.9963 126.825 58.9434 126.956 58.9434 127.091C58.9434 127.227 58.9963 127.357 59.0911 127.455C59.1859 127.553 59.3151 127.61 59.4515 127.614Z" fill="#935B50"/>
<path d="M67.0729 133.891C67.3456 133.882 67.604 133.767 67.7936 133.572C67.9832 133.377 68.0892 133.116 68.0892 132.845C68.0892 132.574 67.9832 132.313 67.7936 132.118C67.604 131.922 67.3456 131.808 67.0729 131.799C66.8002 131.808 66.5418 131.922 66.3522 132.118C66.1626 132.313 66.0566 132.574 66.0566 132.845C66.0566 133.116 66.1626 133.377 66.3522 133.572C66.5418 133.767 66.8002 133.882 67.0729 133.891Z" fill="#935B50"/>
<path d="M71.6468 114.017C71.7832 114.003 71.9124 113.831 72.0072 113.539C72.1019 113.246 72.1549 112.855 72.1549 112.448C72.1549 112.041 72.1019 111.65 72.0072 111.357C71.9124 111.064 71.7832 110.893 71.6468 110.879C71.5104 110.893 71.3812 111.064 71.2865 111.357C71.1917 111.65 71.1387 112.041 71.1387 112.448C71.1387 112.855 71.1917 113.246 71.2865 113.539C71.3812 113.831 71.5104 114.003 71.6468 114.017Z" fill="#935B50"/>
<path d="M71.6468 83.6827C71.7832 83.678 71.9124 83.6209 72.0072 83.5233C72.102 83.4258 72.1549 83.2954 72.1549 83.1597C72.1549 83.0241 72.102 82.8937 72.0072 82.7961C71.9124 82.6986 71.7832 82.6414 71.6468 82.6367C71.5104 82.6414 71.3813 82.6986 71.2865 82.7961C71.1917 82.8937 71.1387 83.0241 71.1387 83.1597C71.1387 83.2954 71.1917 83.4258 71.2865 83.5233C71.3813 83.6209 71.5104 83.678 71.6468 83.6827Z" fill="#935B50"/>
<path d="M87.9066 114.017C88.0429 114.003 88.1721 113.831 88.2669 113.539C88.3617 113.246 88.4147 112.855 88.4147 112.448C88.4147 112.041 88.3617 111.65 88.2669 111.357C88.1721 111.064 88.0429 110.893 87.9066 110.879C87.7702 110.893 87.641 111.064 87.5462 111.357C87.4514 111.65 87.3984 112.041 87.3984 112.448C87.3984 112.855 87.4514 113.246 87.5462 113.539C87.641 113.831 87.7702 114.003 87.9066 114.017Z" fill="#935B50"/>
<path d="M55.3861 114.017C55.5224 114.003 55.6516 113.831 55.7464 113.539C55.8412 113.246 55.8942 112.855 55.8942 112.448C55.8942 112.041 55.8412 111.65 55.7464 111.357C55.6516 111.064 55.5224 110.893 55.3861 110.879C55.2497 110.893 55.1205 111.064 55.0257 111.357C54.9309 111.65 54.8779 112.041 54.8779 112.448C54.8779 112.855 54.9309 113.246 55.0257 113.539C55.1205 113.831 55.2497 114.003 55.3861 114.017Z" fill="#935B50"/>
<path d="M71.6468 133.891C71.7832 133.882 71.9124 133.767 72.0072 133.572C72.1019 133.377 72.1549 133.116 72.1549 132.845C72.1549 132.574 72.1019 132.313 72.0072 132.118C71.9124 131.922 71.7832 131.808 71.6468 131.799C71.5104 131.808 71.3812 131.922 71.2865 132.118C71.1917 132.313 71.1387 132.574 71.1387 132.845C71.1387 133.116 71.1917 133.377 71.2865 133.572C71.3812 133.767 71.5104 133.882 71.6468 133.891Z" fill="#935B50"/>
<path d="M71.6468 141.214C71.7832 141.209 71.9124 141.152 72.0072 141.055C72.1019 140.957 72.1549 140.827 72.1549 140.691C72.1549 140.555 72.1019 140.425 72.0072 140.327C71.9124 140.23 71.7832 140.173 71.6468 140.168C71.5104 140.173 71.3812 140.23 71.2865 140.327C71.1917 140.425 71.1387 140.555 71.1387 140.691C71.1387 140.827 71.1917 140.957 71.2865 141.055C71.3812 141.152 71.5104 141.209 71.6468 141.214Z" fill="#935B50"/>
<path d="M55.3861 133.891C55.5224 133.882 55.6516 133.767 55.7464 133.572C55.8412 133.377 55.8942 133.116 55.8942 132.845C55.8942 132.574 55.8412 132.313 55.7464 132.118C55.6516 131.922 55.5224 131.808 55.3861 131.799C55.2497 131.808 55.1205 131.922 55.0257 132.118C54.9309 132.313 54.8779 132.574 54.8779 132.845C54.8779 133.116 54.9309 133.377 55.0257 133.572C55.1205 133.767 55.2497 133.882 55.3861 133.891Z" fill="#935B50"/>
<path d="M87.9066 133.891C88.0429 133.882 88.1721 133.767 88.2669 133.572C88.3617 133.377 88.4147 133.116 88.4147 132.845C88.4147 132.574 88.3617 132.313 88.2669 132.118C88.1721 131.922 88.0429 131.808 87.9066 131.799C87.7702 131.808 87.641 131.922 87.5462 132.118C87.4514 132.313 87.3984 132.574 87.3984 132.845C87.3984 133.116 87.4514 133.377 87.5462 133.572C87.641 133.767 87.7702 133.882 87.9066 133.891Z" fill="#935B50"/>
</svg>
