<svg width="250" height="250" viewBox="0 0 250 250" fill="none" xmlns="http://www.w3.org/2000/svg">
<path d="M70.4395 230.847C52.7715 225.619 29.9087 210.205 28.8269 187.289C27.6637 162.655 29.8577 158.059 24.5999 130.126C19.3492 102.232 35.2317 69.3919 52.069 58.2176C75.9182 42.3898 90.2786 51.9001 122.455 60.9302C144.989 67.2542 175.425 55.1288 189.567 53.6829C199.07 52.7113 218.404 54.1415 226.241 71.2562C234.896 90.1554 224.252 117.77 223.511 129.241C222.735 141.256 227.208 185.727 201.959 212.507C171.509 244.803 122.87 246.361 70.4395 230.847Z" fill="#EFEDEF"/>
<path d="M169.796 163.193H123.637V243.555H169.796V163.193Z" fill="#B2B2B2"/>
<path d="M123.816 163.193H77.6572V243.555H123.816V163.193Z" fill="#D1D1D1"/>
<path d="M99.6327 65.7402L97.665 108.937L88.4121 140.614H105.07L113.722 113.321L116.426 82.3038L99.6327 65.7402Z" fill="#E4262C"/>
<path d="M99.1668 216.727L102.516 233.85L91.2659 235.317L88.0664 218.457L99.1668 216.727Z" fill="#FCC9A7"/>
<path d="M103.193 232.3C102.907 231.377 102.006 231.047 101.39 231.641C100.189 232.811 98.0256 234.245 94.8262 233.899C91.5066 233.536 90.2598 231.394 89.7792 229.844C89.5238 229.037 88.8179 228.625 88.187 228.971L68.044 240.079C66.8273 240.755 65.866 242.007 65.3853 243.573C64.9347 245.04 65.836 246.622 67.0977 246.589L101.901 245.534C103.268 245.501 104.319 244.018 104.199 242.304L103.628 233.899C103.613 233.767 103.598 233.619 103.553 233.487L103.193 232.3Z" fill="#1F252A"/>
<path d="M98.9713 133.924H72.8501C72.8501 133.924 56.943 132.952 55.9967 147.274C55.0504 161.596 79.3241 202.568 83.1244 224.455L104.965 222.477L89.2378 162.964L128.352 163.211C131.251 163.227 134.135 162.766 136.869 161.728C144.484 158.827 156.111 154.674 149.772 131.666L98.9713 133.924Z" fill="#092330"/>
<path d="M119.13 216.791L124.447 237.261L113.196 238.727L108.029 218.522L119.13 216.791Z" fill="#FCC9A7"/>
<path d="M125.122 235.712C124.837 234.789 123.936 234.46 123.32 235.053C122.118 236.223 119.955 237.657 116.756 237.311C113.436 236.948 112.189 234.806 111.709 233.256C111.453 232.449 110.747 232.037 110.117 232.383L89.9737 243.491C88.757 244.167 87.7957 245.42 87.315 246.985C86.8644 248.452 87.7656 250.034 89.0274 250.001L124.432 248.947C125.798 248.914 126.85 247.43 126.73 245.716L125.543 237.311C125.528 237.179 125.513 237.031 125.468 236.899L125.122 235.712Z" fill="#1F252A"/>
<path d="M130.185 48.7637C130.771 49.39 156.982 56.7241 156.982 56.7241L151.38 73.0569L122.72 70.6836L130.185 48.7637Z" fill="#F7EBE7"/>
<path d="M119.37 52.7031C119.37 52.7031 102.292 59.5428 99.6328 65.7397C100.549 74.4912 103.358 82.9131 107.984 90.1153C113.662 98.9492 120.677 114.128 119.385 133.922H168.759C168.759 133.922 166.1 78.2324 151.485 56.8564L119.37 52.7031Z" fill="#E4262C"/>
<path d="M124.972 61.5368C129.823 60.449 132.948 55.2575 131.956 49.9341L129.057 34.3594L111.498 38.2984L114.397 53.8731C115.388 59.1965 120.12 62.6245 124.972 61.5368Z" fill="#FCC9A7"/>
<path d="M130.259 39.7988C130.259 39.7988 128.411 52.4249 119.459 53.1832C111.618 53.8425 112.369 41.3977 112.369 41.3977L130.259 39.7988Z" fill="#F4BE9A"/>
<path d="M120.165 46.2589L121.712 45.8634C129.478 43.8856 134.315 35.3814 132.512 26.8771L130.469 17.1697C128.667 8.64896 120.916 3.34203 113.165 5.31977L111.618 5.71532C103.852 7.69305 99.0158 16.1973 100.818 24.7016L102.861 34.409C104.664 42.9297 112.414 48.2367 120.165 46.2589Z" fill="#FCC9A7"/>
<path d="M127.646 30.9165C127.285 31.5923 126.94 32.6141 126.819 34.1633C126.684 36.1246 125.783 37.9869 124.281 39.0747C119.97 42.2061 116.68 34.2787 110.312 35.6796C110.312 35.6796 107.818 36.0916 107.322 39.1406C106.827 42.1732 103.357 36.8662 102.591 33.2404C101.825 29.6145 101.434 51.1883 117.116 49.3589C117.116 49.3589 125.032 49.0788 130.364 40.2284C130.95 39.256 131.296 38.1188 131.326 36.9486C131.371 35.2181 131.145 32.5976 129.643 30.7188C129.118 30.0266 128.066 30.1254 127.646 30.9165Z" fill="#1C2226"/>
<path d="M127.661 26.0208C127.661 26.0208 120.886 23.5651 122.028 12.704C122.028 12.704 105.205 30.174 92.7373 17.3517C92.7373 17.3517 98.3101 15.72 100.608 11.5338C104.799 3.90307 116.846 -6.6119 126.489 5.55119C126.489 5.55119 138.22 3.55697 134.856 23.3838L127.661 26.0208Z" fill="#1C2226"/>
<path d="M127.661 26.0207C128.307 29.0536 131.071 30.9491 133.834 30.2569C136.613 29.5481 138.326 26.5152 137.695 23.4823C137.049 20.4494 134.285 18.5538 131.521 19.2461C128.742 19.9549 127.015 22.9878 127.661 26.0207Z" fill="#FCC9A7"/>
<path d="M119.099 60.9277L126.354 61.0761L121.276 72.6143L115.794 61.5541L119.099 60.9277Z" fill="#0C2C40"/>
<path d="M132.573 49.2747L123.23 61.24L129.314 68.9038L140.504 52.0271C140.504 52.0271 137.635 46.9674 132.573 49.2747Z" fill="#B72024"/>
<path d="M119.099 60.9263L113.722 67.5847L109.937 57.2015C109.937 57.2015 110.928 52.5374 114.022 53.4273L119.099 60.9263Z" fill="#B72024"/>
<path d="M121.082 68.8879C121.082 68.8879 114.067 88.962 115.809 117.441L122.719 124.363L130.785 115.843L122.088 67.5859L121.082 68.8879Z" fill="#0C2C40"/>
<path d="M134.195 116.553L119.174 121.975L118.183 131.649L138.1 125.123L134.195 116.553Z" fill="#FCC9A7"/>
<path d="M121.412 128.37C121.412 134.023 117.237 138.622 112.069 138.622C106.917 138.622 102.727 134.04 102.727 128.37C102.727 122.717 106.902 118.119 112.069 118.119C117.222 118.119 121.412 122.701 121.412 128.37Z" fill="#FCC9A7"/>
<path d="M119.37 133.923H93.2633C93.2633 133.923 77.3562 132.95 76.4099 147.273C75.4636 161.595 101.525 205.204 105.325 227.074L127.165 225.097L109.651 162.946L148.765 163.193C151.664 163.21 154.548 162.748 157.282 161.71C164.898 158.809 176.524 154.656 170.185 131.648L119.37 133.923Z" fill="#0C2C40"/>
<path d="M40.6155 83.2754H85.7531C87.2402 83.2754 88.5169 84.4126 88.8324 86.0113L97.3341 129.752C97.7547 131.895 96.2527 133.922 94.2549 133.922H48.3662C46.8641 133.922 45.5724 132.752 45.287 131.137L37.5362 87.3957C37.1457 85.2531 38.6327 83.2754 40.6155 83.2754Z" fill="#B2B2B2"/>
<path d="M38.0168 83.2754H83.1395C84.6265 83.2754 85.9033 84.4126 86.2188 86.0113L94.7205 129.752C95.1411 131.895 93.6541 133.922 91.6413 133.922H45.7676C44.2655 133.922 42.9737 132.752 42.6883 131.137L34.9376 87.3957C34.547 85.2531 36.0341 83.2754 38.0168 83.2754Z" fill="#D1D1D1"/>
<path d="M96.1028 130.18H126.941C127.887 130.18 128.638 131.02 128.638 132.042C128.638 133.081 127.872 133.905 126.941 133.905H95.502L96.1028 130.18Z" fill="#B2B2B2"/>
<path d="M65.9554 107.454C65.9554 110.438 63.7624 112.844 61.0436 112.844C58.3249 112.844 56.1318 110.421 56.1318 107.454C56.1318 104.471 58.3399 102.064 61.0436 102.064C63.7624 102.064 65.9554 104.471 65.9554 107.454Z" fill="white"/>
<path d="M146.212 72.2851L162.705 101.506L123.23 116.965L128.638 129.788C128.638 129.788 162.39 125.635 178.702 111.84C180.205 110.571 180.955 108.511 180.7 106.451C179.934 99.858 176.66 83.8549 162.705 61.1109C159.866 56.4797 154.218 55.0788 149.817 57.8806C145.236 60.7813 143.629 67.2089 146.212 72.2851Z" fill="#E4262C"/>
<path d="M133.729 112.844L162.705 101.505L148.21 75.8105" stroke="#EADDD8" stroke-width="0.7599" stroke-miterlimit="10" stroke-linecap="round" stroke-linejoin="round"/>
<path d="M114.112 103.167L106.978 82.5" stroke="#EADDD8" stroke-width="0.7599" stroke-miterlimit="10" stroke-linecap="round" stroke-linejoin="round"/>
<path d="M134.194 128.915C134.194 128.915 156.365 125.866 167.541 118.844" stroke="#EADDD8" stroke-width="0.7599" stroke-miterlimit="10" stroke-linecap="round" stroke-linejoin="round"/>
</svg>
