<svg width="565" height="417" viewBox="0 0 565 417" fill="none" xmlns="http://www.w3.org/2000/svg">
<g clip-path="url(#clip0_1359_6392)">
<path d="M63.5291 311.485C60.2451 288.969 52.4122 267.289 49.2399 244.752C46.0677 222.214 48.2757 197.43 62.7326 179.826C72.1655 168.361 85.7211 161.209 98.9761 154.504C110.764 148.538 122.901 142.593 136.009 140.975C147.566 139.579 159.228 141.568 170.785 142.949C192.53 145.545 214.673 145.887 236.257 142.189C264.437 137.353 291.08 126.182 318.618 118.584C345.596 111.145 372.302 107.357 402.466 121.375C423.317 131.073 438.703 151.322 443.692 173.706C451.755 209.871 433.546 249.95 448.855 283.694C453.174 293.197 459.882 301.389 465.36 310.278C472.094 321.238 476.954 333.24 479.74 345.794C480.697 350.113 481.403 354.669 480.18 358.919C477.036 369.804 463.564 373.425 452.23 374.318C414.547 377.291 376.899 370.271 339.314 366.189C278.3 359.575 216.735 360.74 155.616 365.296C140.654 366.413 125.705 367.715 110.771 369.204C98.7176 370.383 75.8339 377.577 64.4724 374.151C51.8043 370.32 60.1193 362.024 62.8025 350.113C65.6882 337.505 65.3878 324.212 63.5291 311.485Z" fill="#EFEDEF"/>
<path opacity="0.05" d="M92.9672 370.264C92.9672 370.264 34.867 374.151 26.5101 379.712C18.1532 385.273 83.5971 386.494 188.024 383.361C292.45 380.228 372.854 383.361 429.787 389.097C486.72 394.832 563.945 393.723 565.014 379.677C566.083 365.631 424.043 365.464 424.043 365.464L92.9672 370.264Z" fill="#000405"/>
<path d="M454.166 258.456C454.166 258.456 452.217 274.658 439.681 276.249H384.635L376.802 186.266H434.797C439.479 186.266 449.072 191.304 450.987 198.435C451.244 199.755 451.415 201.091 451.497 202.433C452.755 216.27 454.166 258.456 454.166 258.456Z" fill="#E4262C"/>
<path d="M451.511 202.447H398.407L382.644 186.999L381.917 186.266H434.812C439.493 186.266 449.087 191.304 451.001 198.435C451.259 199.76 451.43 201.1 451.511 202.447Z" fill="url(#paint0_linear_1359_6392)"/>
<path d="M100.073 194.639L94.8888 192.385C94.214 192.092 93.661 191.576 93.3229 190.923C92.9847 190.271 92.882 189.522 93.0322 188.802C93.1823 188.083 93.5761 187.438 94.1471 186.974C94.7182 186.511 95.4317 186.258 96.1675 186.259H376.802C380.268 186.226 383.698 186.975 386.835 188.449C389.972 189.923 392.735 192.084 394.92 194.771C396.741 196.978 397.946 199.626 398.414 202.447C399.679 210.869 398.903 247.55 398.554 261.323C398.365 268.803 392.845 275.244 385.41 276.172L384.614 276.248H112.804L100.073 194.639Z" fill="#E4262C"/>
<path d="M100.073 194.639L94.8888 192.385C94.214 192.092 93.661 191.576 93.3229 190.923C92.9847 190.271 92.882 189.522 93.0322 188.802C93.1823 188.083 93.5761 187.438 94.1471 186.974C94.7182 186.511 95.4317 186.258 96.1675 186.259H376.802C380.268 186.226 383.698 186.975 386.835 188.449C389.972 189.923 392.735 192.084 394.92 194.771C396.741 196.978 397.946 199.626 398.414 202.447C399.679 210.869 398.903 247.55 398.554 261.323C398.365 268.803 392.845 275.244 385.41 276.172L384.614 276.248H112.804L100.073 194.639Z" fill="#E4262C"/>
<path d="M398.575 261.323C398.386 268.803 392.866 275.244 385.431 276.172L384.635 276.248H112.825L100.073 194.639L94.8888 192.385C94.214 192.092 93.661 191.576 93.3229 190.923C92.9847 190.271 92.882 189.522 93.0322 188.802C93.1823 188.083 93.5761 187.438 94.1471 186.974C94.7182 186.511 95.4317 186.258 96.1675 186.259H376.802C380.268 186.226 383.698 186.975 386.835 188.449C389.972 189.923 392.735 192.084 394.92 194.771C396.741 196.978 397.946 199.626 398.414 202.447C399.7 210.869 398.924 247.55 398.575 261.323Z" fill="url(#paint1_linear_1359_6392)"/>
<path opacity="0.61" d="M86.0008 276.277H385.62C386.656 276.277 387.651 275.866 388.384 275.135C389.118 274.403 389.531 273.411 389.533 272.376C389.533 271.34 389.121 270.346 388.387 269.613C387.653 268.88 386.658 268.469 385.62 268.469H86.0008C84.9631 268.469 83.9678 268.88 83.234 269.613C82.5001 270.346 82.0879 271.34 82.0879 272.376C82.0897 273.411 82.5028 274.403 83.2364 275.135C83.97 275.866 84.9643 276.277 86.0008 276.277Z" fill="url(#paint2_linear_1359_6392)"/>
<path d="M86.0008 276.277H385.62C386.656 276.277 387.651 275.866 388.384 275.135C389.118 274.403 389.531 273.411 389.533 272.376C389.533 271.863 389.432 271.355 389.235 270.881C389.038 270.407 388.75 269.976 388.387 269.613C388.023 269.25 387.592 268.963 387.117 268.766C386.643 268.57 386.134 268.469 385.62 268.469H86.0008C84.9631 268.469 83.9678 268.88 83.234 269.613C82.5001 270.346 82.0879 271.34 82.0879 272.376C82.0897 273.411 82.5028 274.403 83.2364 275.135C83.97 275.866 84.9643 276.277 86.0008 276.277ZM447.102 301.912V350.72C447.103 353.874 446.482 356.997 445.274 359.911C444.066 362.824 442.295 365.472 440.062 367.702C437.829 369.932 435.179 371.702 432.261 372.909C429.343 374.116 426.216 374.737 423.058 374.737H106.949C103.79 374.742 100.66 374.123 97.7409 372.918C94.8212 371.713 92.1685 369.944 89.9349 367.712C87.7012 365.481 85.9305 362.832 84.7242 359.916C83.518 357 82.8999 353.875 82.9054 350.72V301.912C82.9005 297.476 84.1345 293.127 86.469 289.353C86.9789 288.516 87.5438 287.714 88.1599 286.952C90.4091 284.131 93.2668 281.854 96.52 280.289C99.7733 278.725 103.338 277.914 106.949 277.916H423.058C426.217 277.916 429.345 278.538 432.263 279.745C435.181 280.953 437.832 282.723 440.065 284.954C442.298 287.185 444.068 289.833 445.276 292.748C446.483 295.662 447.104 298.786 447.102 301.94V301.912Z" fill="#E4262C"/>
<path opacity="0.61" d="M324.005 374.737H106.949C102.339 374.739 97.8256 373.417 93.9467 370.929C90.0679 368.441 86.9871 364.892 85.0713 360.705H310.198C310.198 360.705 313.44 372.567 324.005 374.737Z" fill="url(#paint3_linear_1359_6392)"/>
<path d="M324.006 277.888C314.028 279.535 311.24 289.324 311.24 289.324H86.4697L88.1607 286.924C90.4098 284.103 93.2675 281.826 96.5208 280.261C99.774 278.697 103.339 277.886 106.95 277.888H324.006Z" fill="url(#paint4_linear_1359_6392)"/>
<path opacity="0.61" d="M447.102 301.912V350.72C447.106 355.016 445.954 359.234 443.767 362.933C441.581 366.632 438.439 369.678 434.672 371.75H335.388C333.405 371.751 331.442 371.362 329.61 370.605C327.778 369.848 326.113 368.738 324.711 367.339C323.309 365.939 322.197 364.277 321.438 362.448C320.679 360.619 320.288 358.659 320.288 356.679V297.46C320.287 295.48 320.677 293.519 321.436 291.689C322.194 289.859 323.306 288.197 324.709 286.796C326.111 285.396 327.776 284.285 329.608 283.528C331.441 282.77 333.405 282.381 335.388 282.382H437.061C440.17 284.605 442.702 287.537 444.449 290.933C446.195 294.33 447.105 298.094 447.102 301.912Z" fill="url(#paint5_linear_1359_6392)"/>
<path d="M447.101 301.912V350.72C447.102 351.62 447.053 352.519 446.955 353.413C446.913 353.804 446.857 354.188 446.794 354.572C446.532 356.244 446.087 357.882 445.466 359.456C445.32 359.854 445.159 360.237 444.977 360.621C444.198 362.361 443.213 364 442.043 365.505C441.735 365.896 441.414 366.287 441.071 366.664C439.249 368.728 437.083 370.463 434.671 371.792H349.655C347.508 371.796 345.385 371.34 343.428 370.456C341.472 369.571 339.728 368.278 338.315 366.664C337.988 366.294 337.68 365.907 337.392 365.505C336.327 364.034 335.543 362.378 335.08 360.621C334.975 360.244 334.891 359.854 334.821 359.456C334.646 358.548 334.56 357.625 334.563 356.7V297.46C334.56 296.405 334.673 295.352 334.898 294.32C334.969 293.929 335.064 293.542 335.184 293.162C335.7 291.393 336.544 289.736 337.672 288.278C337.977 287.873 338.306 287.486 338.657 287.12C340.065 285.615 341.768 284.416 343.66 283.597C345.552 282.778 347.593 282.357 349.655 282.361H437.061C438.933 283.701 440.601 285.303 442.015 287.12C442.308 287.496 442.595 287.88 442.867 288.278C443.919 289.798 444.787 291.438 445.452 293.162C445.606 293.546 445.753 293.937 445.872 294.32C446.41 295.904 446.771 297.542 446.948 299.205C446.997 299.588 447.031 299.979 447.052 300.37C447.087 300.858 447.101 301.396 447.101 301.912Z" fill="url(#paint6_linear_1359_6392)"/>
<path d="M442.867 288.299H337.672C337.977 287.894 338.306 287.507 338.657 287.141H442.008C442.308 287.517 442.595 287.901 442.867 288.299ZM445.872 294.321H334.898C334.969 293.929 335.064 293.542 335.185 293.162H445.452C445.606 293.546 445.753 293.937 445.872 294.321ZM447.053 300.349H334.556V299.184H446.948C446.997 299.568 447.032 299.958 447.053 300.349ZM334.563 305.213H447.108V306.371H334.563V305.213ZM334.563 311.234H447.108V312.392H334.563V311.234ZM334.563 317.263H447.108V318.421H334.563V317.263ZM334.563 323.291H447.108V324.443H334.563V323.291ZM334.563 329.313H447.108V330.464H334.563V329.313ZM334.563 335.342H447.108V336.493H334.563V335.342ZM334.563 341.363H447.108V342.515H334.563V341.363ZM334.563 347.392H447.108V348.55H334.563V347.392ZM446.955 353.414C446.913 353.804 446.857 354.188 446.794 354.572H334.563V353.414H446.955ZM445.501 359.435C445.355 359.833 445.194 360.217 445.012 360.6H335.101C334.996 360.224 334.912 359.833 334.842 359.435H445.501ZM442.043 365.464C441.735 365.855 441.414 366.245 441.071 366.622H338.315C337.988 366.252 337.68 365.865 337.393 365.464H442.043Z" fill="white"/>
<path d="M307.628 266.633H379.248C376.211 268.149 372.861 268.932 369.466 268.922H103.163C98.7546 268.952 94.445 267.621 90.823 265.112C89.7977 264.406 88.8451 263.599 87.9791 262.705C87.6996 262.419 87.4271 262.119 87.1686 261.819C86.1936 260.681 85.3628 259.427 84.695 258.086C84.5483 257.793 84.4085 257.493 84.2828 257.2C83.7633 256.004 83.388 254.751 83.1648 253.467C83.1159 253.174 83.067 252.881 83.032 252.574C82.9478 251.891 82.9058 251.203 82.9063 250.515V213.074C82.9063 212.669 82.9063 212.271 82.9482 211.88C82.9901 211.49 82.9971 211.287 83.032 210.994C83.1875 209.719 83.4899 208.467 83.9334 207.261C84.0452 206.961 84.164 206.668 84.2898 206.368C84.8599 205.041 85.5922 203.79 86.4698 202.642C86.7004 202.342 86.938 202.042 87.1686 201.749C87.6845 201.148 88.2376 200.579 88.8246 200.046C92.7631 196.524 97.8758 194.596 103.163 194.639H369.466C373.651 194.634 377.747 195.846 381.254 198.128H307.628C306.506 198.126 305.389 198.261 304.302 198.532C302.069 199.065 300.018 200.182 298.362 201.77C298.065 202.049 297.788 202.347 297.531 202.663C296.596 203.757 295.884 205.023 295.435 206.389C295.336 206.682 295.254 206.98 295.19 207.282C295.001 208.071 294.907 208.879 294.911 209.689V255.092C294.913 255.796 294.986 256.497 295.127 257.186C295.183 257.485 295.258 257.781 295.351 258.072C295.749 259.43 296.409 260.698 297.293 261.805C297.535 262.115 297.794 262.411 298.069 262.691C299.269 263.932 300.713 264.91 302.31 265.566C303.993 266.275 305.801 266.638 307.628 266.633Z" fill="#E4262C"/>
<path d="M389.714 213.346V251.227C389.714 251.436 389.714 251.66 389.672 251.869C389.63 252.078 389.637 252.295 389.616 252.504C389.595 252.713 389.56 252.895 389.539 253.083C389.518 253.271 389.49 253.383 389.463 253.53C389.455 253.605 389.441 253.68 389.421 253.753C389.386 253.955 389.344 254.165 389.295 254.367C389.246 254.569 389.232 254.632 389.19 254.765C389.148 254.897 389.127 255.023 389.085 255.155C389.043 255.288 389.008 255.434 388.966 255.574L388.82 256C388.82 256.118 388.75 256.23 388.708 256.342C388.666 256.453 388.596 256.642 388.533 256.788L388.345 257.242C388.314 257.326 388.277 257.408 388.233 257.486C388.189 257.603 388.137 257.717 388.079 257.828C388.037 257.925 387.981 258.023 387.932 258.121C387.883 258.219 387.786 258.421 387.702 258.56C387.618 258.7 387.464 259.014 387.331 259.258L387.115 259.607C386.919 259.928 386.717 260.235 386.5 260.535C386.388 260.696 386.276 260.842 386.165 260.989C385.941 261.289 385.703 261.575 385.466 261.861C385.228 262.147 384.935 262.461 384.648 262.747C384.076 263.331 383.466 263.879 382.825 264.387C382.812 264.404 382.795 264.419 382.776 264.429C382.566 264.596 382.356 264.75 382.14 264.91L381.441 265.391L380.742 265.838C380.519 265.978 380.295 266.103 380.044 266.236L379.24 266.661H307.626C305.801 266.667 303.993 266.309 302.309 265.608C300.714 264.955 299.27 263.981 298.068 262.747C297.792 262.466 297.533 262.171 297.292 261.861C296.407 260.763 295.747 259.501 295.349 258.149C295.257 257.861 295.182 257.567 295.126 257.27C294.984 256.581 294.912 255.88 294.909 255.176V209.948C294.906 209.142 295 208.338 295.189 207.554C295.253 207.255 295.335 206.959 295.433 206.668C295.883 205.308 296.595 204.05 297.53 202.963C297.786 202.647 298.064 202.349 298.361 202.07C300.022 200.491 302.071 199.379 304.3 198.846C305.389 198.581 306.506 198.448 307.626 198.449H381.252C381.574 198.658 381.895 198.874 382.203 199.105L382.559 199.37C383.045 199.731 383.512 200.117 383.956 200.528L384.341 200.891L384.62 201.17L384.998 201.561L385.375 201.979L385.452 202.07L385.508 202.14C385.731 202.405 385.955 202.684 386.165 202.963C386.276 203.103 386.381 203.249 386.486 203.389C386.496 203.41 386.511 203.429 386.528 203.445C386.714 203.714 386.896 203.987 387.073 204.261L387.373 204.749C387.555 205.056 387.73 205.377 387.89 205.691C387.967 205.859 388.051 206.012 388.128 206.173C388.205 206.333 388.282 206.508 388.345 206.668C388.407 206.829 388.477 206.961 388.533 207.115C388.589 207.268 388.652 207.408 388.701 207.554C388.75 207.701 388.806 207.848 388.855 207.994C389.067 208.598 389.237 209.216 389.365 209.843C389.387 209.923 389.403 210.005 389.414 210.087C389.414 210.234 389.47 210.38 389.497 210.527C389.525 210.673 389.574 211.022 389.609 211.267C389.644 211.511 389.679 211.853 389.693 212.153V212.627C389.693 212.788 389.714 213.102 389.714 213.346Z" fill="url(#paint7_linear_1359_6392)"/>
<path d="M302.31 265.573C300.731 265.954 299.101 266.308 297.419 266.633H107.551C101.939 266.666 96.3368 266.157 90.823 265.112C89.7977 264.406 88.8451 263.599 87.9791 262.705C87.6996 262.419 87.4271 262.119 87.1686 261.819C86.1936 260.681 85.3628 259.427 84.695 258.086C84.5483 257.793 84.4085 257.493 84.2828 257.2C83.7633 256.004 83.388 254.751 83.1648 253.467C83.1159 253.174 83.067 252.881 83.032 252.574C82.9478 251.891 82.9058 251.203 82.9063 250.515V213.074C82.9063 212.669 82.9063 212.271 82.9482 211.881C82.9901 211.49 82.9971 211.287 83.032 210.994C83.1875 209.72 83.4899 208.467 83.9334 207.261C84.0452 206.961 84.164 206.668 84.2898 206.368C84.8599 205.041 85.5922 203.79 86.4698 202.642C86.7004 202.342 86.938 202.042 87.1686 201.749C87.6845 201.148 88.2376 200.579 88.8246 200.047C94.9769 198.721 101.257 198.077 107.551 198.128H302.736L304.302 198.532C302.069 199.065 300.018 200.182 298.362 201.77C298.065 202.049 297.788 202.347 297.531 202.663C296.596 203.757 295.884 205.023 295.435 206.389C295.336 206.682 295.254 206.98 295.19 207.282C295.001 208.071 294.907 208.879 294.911 209.69V255.093C294.913 255.796 294.986 256.497 295.127 257.186C295.184 257.486 295.258 257.781 295.351 258.072C295.749 259.43 296.409 260.698 297.293 261.805C297.535 262.115 297.794 262.411 298.069 262.691C299.268 263.934 300.712 264.915 302.31 265.573Z" fill="#E4262C"/>
<path d="M302.31 265.573C300.731 265.954 299.101 266.308 297.419 266.633H107.551C101.939 266.666 96.3368 266.157 90.823 265.112C89.7977 264.406 88.8451 263.599 87.9791 262.705C87.6996 262.419 87.4271 262.119 87.1686 261.819C86.1936 260.681 85.3628 259.427 84.695 258.086C84.5483 257.793 84.4085 257.493 84.2828 257.2C83.7633 256.004 83.388 254.751 83.1648 253.467C83.1159 253.174 83.067 252.881 83.032 252.574C82.9478 251.891 82.9058 251.203 82.9063 250.515V213.074C82.9063 212.669 82.9063 212.271 82.9482 211.881C82.9901 211.49 82.9971 211.287 83.032 210.994C83.1875 209.72 83.4899 208.467 83.9334 207.261C84.0452 206.961 84.164 206.668 84.2898 206.368C84.8599 205.041 85.5922 203.79 86.4698 202.642C86.7004 202.342 86.938 202.042 87.1686 201.749C87.6845 201.148 88.2376 200.579 88.8246 200.047C94.9769 198.721 101.257 198.077 107.551 198.128H302.736L304.302 198.532C302.069 199.065 300.018 200.182 298.362 201.77C298.065 202.049 297.788 202.347 297.531 202.663C296.596 203.757 295.884 205.023 295.435 206.389C295.336 206.682 295.254 206.98 295.19 207.282C295.001 208.071 294.907 208.879 294.911 209.69V255.093C294.913 255.796 294.986 256.497 295.127 257.186C295.184 257.486 295.258 257.781 295.351 258.072C295.749 259.43 296.409 260.698 297.293 261.805C297.535 262.115 297.794 262.411 298.069 262.691C299.268 263.934 300.712 264.915 302.31 265.573Z" fill="url(#paint8_linear_1359_6392)"/>
<path d="M384.634 269.411C384.073 270.06 383.463 270.666 382.811 271.225C383.458 270.661 384.067 270.055 384.634 269.411Z" fill="url(#paint9_linear_1359_6392)"/>
<path d="M386.465 203.905C386.36 203.745 386.255 203.585 386.143 203.431C385.934 203.124 385.71 202.817 385.486 202.524C385.836 202.97 386.164 203.431 386.465 203.905Z" fill="url(#paint10_linear_1359_6392)"/>
<path d="M388.68 208.504C388.736 208.664 388.785 208.825 388.834 208.985C388.743 208.657 388.631 208.336 388.513 208.015C388.576 208.176 388.631 208.336 388.68 208.504Z" fill="url(#paint11_linear_1359_6392)"/>
<path d="M389.715 213.346V251.646C389.715 252.008 389.68 252.183 389.645 252.455C389.519 253.604 389.271 254.736 388.904 255.832C388.82 256.104 388.73 256.369 388.625 256.628C386.863 261.006 383.533 264.572 379.283 266.633H295.602C289.145 266.633 283.814 262.279 283.024 256.642C282.975 256.374 282.947 256.104 282.94 255.832C282.915 255.601 282.903 255.368 282.906 255.134V209.948C282.906 203.591 288.593 198.449 295.623 198.449H381.253C386.382 201.77 389.715 207.199 389.715 213.346Z" fill="#E4262C"/>
<path d="M386.143 202.642H297.529C297.786 202.326 298.064 202.028 298.361 201.749H385.41C385.675 202.042 385.913 202.314 386.143 202.642ZM388.68 207.261H295.189C295.252 206.959 295.334 206.661 295.433 206.368H388.331C388.456 206.661 388.575 206.961 388.68 207.261ZM389.679 211.88H294.909V210.987H389.602C389.602 211.28 389.658 211.58 389.679 211.88ZM294.909 215.606H389.721V216.5H294.909V215.606ZM294.909 220.226H389.721V221.119H294.909V220.226ZM294.909 224.845H389.721V225.738H294.909V224.845ZM294.909 229.471H389.721V230.357H294.909V229.471ZM294.909 234.09H389.721V234.976H294.909V234.09ZM294.909 238.709H389.721V239.595H294.909V238.709ZM294.909 243.328H389.721V244.214H294.909V243.328ZM294.909 247.947H389.721V248.841H294.909V247.947ZM389.728 252.553C389.712 252.85 389.712 253.148 389.728 253.446H294.909V252.553H389.728ZM388.338 257.186C388.338 257.486 387.953 257.779 387.925 258.079H295.349C295.256 257.786 295.181 257.488 295.126 257.186H388.338Z" fill="white"/>
<path d="M300.933 202.642H86.469C86.6996 202.342 86.9371 202.042 87.1677 201.749H299.228C299.815 202.042 300.381 202.314 300.933 202.642ZM299.004 207.261H83.9326C84.0444 206.961 84.1632 206.668 84.2889 206.368H298.159C298.457 206.65 298.739 206.948 299.004 207.261ZM301.38 211.88H82.9473C82.9473 211.58 82.9963 211.287 83.0312 210.994H301.17C301.258 211.285 301.328 211.581 301.38 211.88ZM82.8984 215.606H301.478V216.493H82.8984V215.606ZM82.8984 220.226H301.478V221.112H82.8984V220.226ZM82.8984 224.845H301.478V225.738H82.8984V224.845ZM82.8984 229.471H301.478V230.357H82.8984V229.471ZM82.8984 234.097H301.478V234.976H82.8984V234.097ZM82.8984 238.709H301.478V239.588H82.8984V238.709ZM82.8984 243.328H301.478V244.214H82.8984V243.328ZM82.8984 247.947H301.478V248.841H82.8984V247.947ZM301.184 252.553C301.092 252.856 300.982 253.154 300.856 253.446H83.164C83.115 253.153 83.0661 252.86 83.0312 252.553H301.184ZM298.187 257.193C297.874 257.505 297.546 257.801 297.202 258.079H84.6942C84.5475 257.786 84.4077 257.486 84.2819 257.193H298.187Z" fill="white"/>
<path opacity="0.2" d="M296 186C293.635 188.098 290.577 190.207 289.366 190.675C282.475 193.354 274.493 195.424 270.45 200.32C265.332 206.512 268.641 214.613 266.291 221.665C265.861 222.95 265.195 224.262 263.848 225.148C262.5 226.034 260.334 226.336 258.902 225.535C257.644 224.834 257.329 223.565 257.093 222.415C255.026 211.565 254.949 200.558 256.862 189.692C248.996 192.285 243.673 197.758 239.473 203.292C235.272 208.827 231.748 214.76 225.895 219.408C224.233 220.724 222.046 222.013 219.634 221.757C216.734 219.048 218.254 215.089 219.901 211.846C223.2 205.332 226.509 198.803 230.757 192.591C232.131 190.579 233.657 188.558 235.964 187.08C236.596 186.677 237.277 186.318 237.999 186.008L296 186Z" fill="#3F3D56"/>
<path d="M385.452 261.812C385.215 262.126 384.949 262.37 384.684 262.698H87.9785C87.699 262.412 87.4265 262.112 87.168 261.812H385.452Z" fill="white"/>
<path d="M152.172 374.737H116.32C104.826 371.848 99.2567 359.435 99.2567 359.435C99.2567 359.435 98.2155 298.73 99.2567 291.055C100.298 283.379 117.71 277.867 117.71 277.867H152.172C140.678 279.514 132.328 290.706 132.328 290.706C132.328 290.706 131.629 357.795 132.328 362.31C133.027 366.824 152.172 374.737 152.172 374.737Z" fill="url(#paint12_linear_1359_6392)"/>
<path d="M152.171 374.737H140.677C129.197 371.848 123.628 359.435 123.628 359.435C123.628 359.435 122.58 298.73 123.628 291.055C124.676 283.379 142.075 277.867 142.075 277.867H152.171C140.677 279.514 132.327 290.706 132.327 290.706C132.327 290.706 131.628 357.795 132.327 362.31C133.026 366.824 152.171 374.737 152.171 374.737Z" fill="url(#paint13_linear_1359_6392)"/>
<path d="M268.309 55.7178C268.309 55.7178 262.53 79.1763 253.894 85.7213C244.978 92.4756 235.727 79.4973 235.727 79.4973L230.584 88.7914C230.584 88.7914 240.108 104.142 249.708 104.498C259.309 104.854 267.736 96.2714 267.736 96.2714L268.309 55.7178Z" fill="#E4262C"/>
<path d="M218.963 39.6075L220.27 39.0283L246.905 45.7896L254.906 99.6563H253.907L218.963 39.6075Z" fill="#3F3D56"/>
<path d="M202.104 190.12L198.764 195.912L206.52 199.282L209.727 193.769L202.104 190.12Z" fill="url(#paint14_linear_1359_6392)"/>
<path d="M254.25 205.673L253.887 212.127L262.341 211.639L262.698 205.673H254.25Z" fill="url(#paint15_linear_1359_6392)"/>
<path d="M200.286 194.628C200.115 194.277 199.878 193.961 199.587 193.7C199.243 193.473 198.851 193.329 198.441 193.281L185.019 190.588C184.534 190.469 184.036 190.415 183.537 190.427C182.252 190.511 181.197 191.453 180.351 192.423C179.866 192.881 179.555 193.492 179.471 194.153C179.52 194.568 179.655 194.968 179.866 195.328C180.078 195.689 180.362 196.001 180.7 196.247C181.644 197.12 182.635 197.94 183.67 198.703C185.659 200.096 187.729 201.37 189.868 202.519C191.307 203.329 192.747 204.138 194.221 204.878C196.646 206.092 199.161 207.111 201.691 208.101C201.774 208.154 201.867 208.189 201.964 208.205C202.061 208.22 202.16 208.217 202.255 208.194C202.351 208.171 202.441 208.13 202.52 208.072C202.6 208.014 202.667 207.941 202.718 207.857C204.548 205.952 205.991 203.71 206.966 201.256C207.211 200.649 207.665 199.317 206.966 198.814C206.722 198.64 206.03 198.668 205.722 198.598C205.264 198.487 204.815 198.34 204.381 198.158C202.677 197.442 201.244 196.206 200.286 194.628ZM254.746 209.197C254.421 208.98 254.058 208.827 253.677 208.743C253.265 208.72 252.854 208.791 252.475 208.953L239.52 213.37C239.042 213.509 238.583 213.711 238.158 213.97C237.089 214.667 236.648 216.063 236.404 217.298C236.217 217.936 236.259 218.62 236.523 219.231C236.771 219.561 237.086 219.837 237.447 220.04C237.808 220.243 238.207 220.369 238.619 220.41C239.873 220.693 241.142 220.902 242.42 221.038C244.839 221.247 247.268 221.31 249.694 221.226C251.35 221.226 252.999 221.184 254.648 221.08C257.359 220.912 260.049 220.529 262.725 220.117C262.92 220.124 263.109 220.056 263.253 219.925C263.397 219.795 263.483 219.613 263.494 219.419C264.115 216.852 264.236 214.189 263.85 211.576C263.753 210.927 263.452 209.56 262.607 209.483C262.306 209.448 261.726 209.825 261.426 209.916C260.97 210.055 260.502 210.154 260.028 210.209C258.205 210.438 256.355 210.084 254.746 209.197ZM307.193 122.159C307.193 122.159 304.999 142.666 286.07 146.28C273.255 148.729 257.583 147.857 248.807 147.041C246.731 146.85 244.643 147.235 242.774 148.155C240.904 149.075 239.326 150.493 238.214 152.253L210.963 195.598L203.067 191.788H203.004L200.209 190.448L222.904 137.572C224.237 134.288 226.284 131.34 228.896 128.941C231.509 126.542 234.622 124.752 238.011 123.701L264.081 115.642L270.174 113.758C270.174 113.758 294.574 111.302 307.193 122.159Z" fill="#3F3D56"/>
<path opacity="0.24" d="M264.102 115.613L265.814 119.235C265.814 119.235 235.769 128.026 232.079 132.304C227.153 138.025 203.075 191.787 203.075 191.787H203.012L200.217 190.448L222.912 137.572C224.245 134.287 226.291 131.339 228.904 128.94C231.516 126.541 234.629 124.752 238.019 123.7L264.102 115.613Z" fill="white"/>
<path d="M274.773 118.6C274.773 118.6 250.639 142.079 249.856 154.639C249.073 167.198 252.448 206.58 252.448 206.58H264.159C264.159 206.58 263.579 158.769 268.352 158.435C273.124 158.1 294.757 144.214 298.23 140.23C301.702 136.246 307.243 122.144 307.243 122.144L274.773 118.6Z" fill="#3F3D56"/>
<path d="M307.193 122.158C307.193 122.158 287.845 132.018 267.757 120.484C266.004 119.479 264.321 118.358 262.719 117.128C262.719 117.128 271.187 102.021 264.445 80.0767C261.559 70.6919 261.496 52.7735 275.785 50.2198H275.855C290.067 47.7009 289.264 51.2036 289.264 51.2036L295.692 57.4415C308.053 67.4822 309.408 82.8119 307.193 122.158Z" fill="#E4262C"/>
<path opacity="0.24" d="M275.855 50.2061C275.259 51.4969 274.337 52.6103 273.179 53.4367C273.179 53.4367 264.682 57.1976 266.38 69.6386C268.078 82.0796 271.187 106.006 271.187 106.006L267.757 120.484C266.004 119.479 264.321 118.358 262.719 117.128C262.719 117.128 271.187 102.021 264.445 80.077C261.559 70.6922 261.496 52.7738 275.785 50.22L275.855 50.2061Z" fill="white"/>
<path d="M288.635 49.4102C287.863 50.3305 286.912 51.0849 285.84 51.628C284.767 52.171 283.596 52.4913 282.396 52.5696C281.197 52.6478 279.993 52.4824 278.86 52.0833C277.726 51.6842 276.685 51.0597 275.799 50.2475C275.799 50.2475 265.318 60.7138 275.911 61.9767C281.501 62.6745 288.383 55.9202 290.375 52.1035L288.635 49.4102Z" fill="#3F3D56"/>
<path d="M291.779 39.6074C291.737 39.747 289.767 45.7686 288.286 50.0738C287.186 53.4295 284.854 56.2445 281.759 57.9514C279.943 59.0458 277.922 59.7581 275.82 60.0447C275.318 60.0905 274.812 59.9969 274.36 59.7741C273.908 59.5514 273.525 59.2082 273.256 58.7824C272.986 58.3566 272.84 57.8648 272.832 57.3611C272.825 56.8574 272.957 56.3615 273.214 55.9279C273.703 55.0697 274.234 54.0789 274.723 53.0253C275.743 50.8343 276.596 48.3992 276.456 46.4733V46.264C276.33 45.2592 276.987 44.3731 278.091 43.5986C279.649 42.5171 282.102 41.6658 284.498 41.0239C286.897 40.4168 289.328 39.9439 291.779 39.6074Z" fill="url(#paint16_linear_1359_6392)"/>
<path d="M276.246 52.9408C275.765 53.0375 275.274 53.0726 274.785 53.0455C275.805 50.8545 276.658 48.4194 276.518 46.4936L278.139 43.6188L279.348 41.4837L284.547 41.0441L289.801 40.6045C286.335 48.7892 280.515 52.1803 276.246 52.9408Z" fill="url(#paint17_linear_1359_6392)"/>
<path d="M286.008 12.0736C284.107 11.6756 282.143 11.6747 280.242 12.0708C278.34 12.4669 276.541 13.2515 274.957 14.3753C273.374 15.4992 272.04 16.9379 271.041 18.6012C270.041 20.2644 269.396 22.1162 269.147 24.0401C268.073 29.6793 268.028 35.466 269.015 41.1212C271.411 49.878 284.289 46.7033 286.902 44.0448C289.516 41.3864 300.018 29.1338 298.299 24.3681C297.202 21.1305 293.359 13.7343 286.008 12.0736Z" fill="url(#paint18_linear_1359_6392)"/>
<path d="M275.631 3.53305L277.615 5.3193C276.251 4.91784 274.812 4.84577 273.415 5.10903C272.018 5.37228 270.703 5.96332 269.58 6.83344C266.9 8.36542 264.932 10.8897 264.102 13.8598L268.511 13.0714C268.511 13.0714 266.904 17.8091 274.212 20.1745C281.521 22.5399 289.277 24.9611 289.277 24.9611L287.712 20.7746C287.712 20.7746 291.814 23.8587 292.156 25.7845C292.143 28.7052 291.91 31.6208 291.457 34.5064C291.457 34.5064 294.588 30.2501 295.063 31.4921C295.538 32.7341 292.813 36.6206 291.569 37.3114C290.325 38.0022 289.738 40.87 289.585 41.0793C289.431 41.2886 295.174 38.679 295.74 37.3952C296.306 36.1113 304.628 23.8936 302.357 20.2373L304.237 20.5932C303.343 19.5663 302.23 18.7511 300.981 18.2069C300.981 18.2069 293.176 -0.960501 275.631 3.53305Z" fill="#3F3D56"/>
<path d="M272.865 106.564C271.809 105.51 270.768 104.254 269.294 104.003C268.777 105.231 269.832 106.494 270.279 107.743C270.347 107.882 270.382 108.035 270.382 108.189C270.382 108.344 270.347 108.497 270.279 108.636C270.07 108.971 269.581 108.992 269.196 108.964C267.332 108.831 265.503 108.392 263.781 107.666C262.188 106.968 260.658 106.068 258.932 105.894C258.747 105.857 258.556 105.881 258.387 105.964C257.967 106.229 258.212 106.871 258.513 107.261C259.154 108.105 259.882 108.879 260.686 109.571C259.468 109.034 258.169 108.702 256.843 108.587C256.472 108.587 255.969 108.664 255.976 109.034C256 109.186 256.074 109.326 256.186 109.431C257.168 110.554 258.353 111.482 259.679 112.167C258.715 111.963 257.729 111.881 256.745 111.922C256.318 111.922 255.752 112.146 255.815 112.564C255.847 112.701 255.914 112.826 256.011 112.927C257.192 114.354 258.79 115.376 260.581 115.851L257.786 115.914C257.61 115.905 257.434 115.941 257.276 116.018C256.773 116.339 257.213 117.128 257.702 117.47C259.854 118.97 262.593 119.235 265.227 119.423C270.265 119.786 275.569 119.982 280.11 117.763C280.439 117.595 280.809 117.372 280.872 117.009C280.886 116.819 280.857 116.628 280.788 116.451C280.236 114.616 279.957 111.288 278.287 110.171C277.476 109.634 276.477 109.327 275.646 108.776C274.814 108.224 273.815 107.038 272.865 106.564Z" fill="url(#paint19_linear_1359_6392)"/>
<path d="M311.295 102.67C309.715 118.167 281.556 120.065 281.556 120.065L278.657 110.108L278.146 108.357C278.146 108.357 293.211 106.459 296.09 101.749C298.969 97.0389 287.118 81.2487 294.28 72.443C301.442 63.6374 303.07 66.3447 303.07 66.3447C303.07 66.3447 312.86 87.1727 311.295 102.67Z" fill="#E4262C"/>
<path d="M235.628 80.9562C235.391 83.1262 234.713 87.0964 232.91 88.5408C232.128 87.9756 231.121 87.222 230.08 86.4475C228.683 85.4009 227.195 84.2984 226.139 83.5309C225.201 82.902 224.346 82.1564 223.596 81.312C222.942 80.4524 222.397 79.5149 221.975 78.521L219.809 73.8181C219.11 72.2761 218.411 70.2386 219.655 69.0455C219.97 68.7385 222.834 68.1803 223.023 67.7756C223.547 66.6173 220.228 64.1682 220.438 62.8913C220.542 62.5435 220.764 62.2429 221.066 62.0416C221.369 61.8403 221.732 61.7509 222.094 61.7888C222.792 61.8237 224.777 63.6448 225.399 64.0146C226.629 64.7124 225.594 65.7032 226.796 66.4289C228.356 67.2286 229.772 68.2801 230.989 69.5409C232.344 71.1248 233.029 73.1553 233.679 75.1229C234.154 76.5673 234.79 78.1303 235.279 79.6863C235.412 80.1328 235.53 80.5445 235.628 80.9562Z" fill="url(#paint20_linear_1359_6392)"/>
<path d="M225.349 69.8342L220.689 47.7642L218.963 39.6074L246.046 46.8571L253.907 99.6563L228.738 91.995L225.349 69.8342Z" fill="#E4262C"/>
<path d="M230.988 69.5686L220.27 45.7891L228.738 91.9945L253.907 99.6558L251.21 81.5491L230.988 69.5686Z" fill="url(#paint21_linear_1359_6392)"/>
<path d="M226.893 79.3508C227.746 78.9252 229.493 78.1507 229.933 77.3064C230.038 77.104 230.192 76.8389 230.059 76.6575C229.451 75.8202 226.949 76.8877 226.237 76.6575C226.726 75.855 231.086 73.4199 229.032 72.8686C228.591 72.75 225.859 74.1316 225.419 74.006C225.761 73.7269 228.57 71.7313 229.053 71.215C229.192 71.0612 229.274 70.8647 229.287 70.6578C229.3 70.4508 229.242 70.2458 229.122 70.0762C229.003 69.9066 228.829 69.7826 228.63 69.7246C228.431 69.6665 228.217 69.6778 228.025 69.7567C226.538 70.4389 225.012 71.0353 223.456 71.5429C223.756 71.0475 227.816 68.7519 227.976 68.1658C228.06 67.9547 228.074 67.7228 228.018 67.5029C227.961 67.3794 227.879 67.2691 227.776 67.179C227.674 67.0889 227.554 67.021 227.424 66.9796C226.293 66.54 225.021 66.9796 223.889 67.4331L221.206 68.4937C220.346 68.8286 219.396 69.2613 219.11 70.1265C218.984 70.5643 218.962 71.0255 219.047 71.4731C219.38 74.2858 220.39 76.9764 221.988 79.3159C222.785 80.4742 225.3 83.2722 226.747 83.5443C228.032 83.7885 225.699 79.9788 226.893 79.3508Z" fill="url(#paint22_linear_1359_6392)"/>
<path opacity="0.24" d="M254.915 150.878C254.915 150.878 264.152 129.743 274.829 123.728L271.188 122.256C271.188 122.256 252.441 142.163 250.226 152.406C248.011 162.649 252.455 206.601 252.455 206.601H255.53C255.53 206.601 250.45 155.19 254.915 150.878ZM296.909 105.098C290.963 107.54 280.838 109.669 278.658 110.115L278.239 110.199L278.148 108.364C278.148 108.364 293.213 106.466 296.091 101.756C298.97 97.0461 287.12 81.2559 294.282 72.4502C294.282 72.4502 293.373 80.2372 295.728 85.9936C298.083 91.7501 303.589 102.349 296.909 105.098Z" fill="white"/>
</g>
<defs>
<linearGradient id="paint0_linear_1359_6392" x1="411.005" y1="183.538" x2="454.319" y2="249.636" gradientUnits="userSpaceOnUse">
<stop stop-color="white" stop-opacity="0"/>
<stop offset="0.99" stop-color="white"/>
</linearGradient>
<linearGradient id="paint1_linear_1359_6392" x1="245.732" y1="237.97" x2="246.966" y2="126.161" gradientUnits="userSpaceOnUse">
<stop stop-color="white" stop-opacity="0"/>
<stop offset="0.99" stop-color="white"/>
</linearGradient>
<linearGradient id="paint2_linear_1359_6392" x1="288.055" y1="146.843" x2="230.031" y2="286.612" gradientUnits="userSpaceOnUse">
<stop offset="0.17" stop-color="#00272E"/>
<stop offset="1" stop-color="#69B9EB" stop-opacity="0"/>
</linearGradient>
<linearGradient id="paint3_linear_1359_6392" x1="202.718" y1="315.386" x2="205.658" y2="400.149" gradientUnits="userSpaceOnUse">
<stop offset="0.17" stop-color="#00272E"/>
<stop offset="1" stop-color="#69B9EB" stop-opacity="0"/>
</linearGradient>
<linearGradient id="paint4_linear_1359_6392" x1="206.422" y1="268.789" x2="202.722" y2="315.121" gradientUnits="userSpaceOnUse">
<stop stop-color="white" stop-opacity="0"/>
<stop offset="0.99" stop-color="white"/>
</linearGradient>
<linearGradient id="paint5_linear_1359_6392" x1="260.679" y1="325.685" x2="378.612" y2="326.986" gradientUnits="userSpaceOnUse">
<stop offset="0.18" stop-color="#00272E"/>
<stop offset="1" stop-color="#69B9EB" stop-opacity="0"/>
</linearGradient>
<linearGradient id="paint6_linear_1359_6392" x1="463.075" y1="332.837" x2="288.093" y2="318.388" gradientUnits="userSpaceOnUse">
<stop stop-color="#68E1FD"/>
<stop offset="1" stop-color="white"/>
</linearGradient>
<linearGradient id="paint7_linear_1359_6392" x1="390.944" y1="236.393" x2="293.353" y2="228.339" gradientUnits="userSpaceOnUse">
<stop stop-color="#68E1FD"/>
<stop offset="1" stop-color="white"/>
</linearGradient>
<linearGradient id="paint8_linear_1359_6392" x1="298.264" y1="232.367" x2="38.8508" y2="232.367" gradientUnits="userSpaceOnUse">
<stop stop-color="white" stop-opacity="0"/>
<stop offset="0.99" stop-color="white"/>
</linearGradient>
<linearGradient id="paint9_linear_1359_6392" x1="382.811" y1="270.318" x2="384.634" y2="270.318" gradientUnits="userSpaceOnUse">
<stop stop-color="#68E1FD"/>
<stop offset="1" stop-color="#69B9EB"/>
</linearGradient>
<linearGradient id="paint10_linear_1359_6392" x1="385.486" y1="203.215" x2="386.465" y2="203.215" gradientUnits="userSpaceOnUse">
<stop stop-color="#68E1FD"/>
<stop offset="1" stop-color="#69B9EB"/>
</linearGradient>
<linearGradient id="paint11_linear_1359_6392" x1="388.513" y1="208.504" x2="388.834" y2="208.504" gradientUnits="userSpaceOnUse">
<stop stop-color="#68E1FD"/>
<stop offset="1" stop-color="#69B9EB"/>
</linearGradient>
<linearGradient id="paint12_linear_1359_6392" x1="115.523" y1="395.006" x2="139.473" y2="248.662" gradientUnits="userSpaceOnUse">
<stop stop-color="white" stop-opacity="0"/>
<stop offset="0.99" stop-color="white"/>
</linearGradient>
<linearGradient id="paint13_linear_1359_6392" x1="142.11" y1="280.679" x2="131.351" y2="414.155" gradientUnits="userSpaceOnUse">
<stop offset="0.02" stop-color="#68E1FD"/>
<stop offset="1" stop-color="white"/>
</linearGradient>
<linearGradient id="paint14_linear_1359_6392" x1="210.936" y1="195.249" x2="194.809" y2="193.912" gradientUnits="userSpaceOnUse">
<stop stop-color="#ECC4D7"/>
<stop offset="0.42" stop-color="#EFD4D1"/>
<stop offset="1" stop-color="#F2EAC9"/>
</linearGradient>
<linearGradient id="paint15_linear_1359_6392" x1="264.292" y1="206.167" x2="249.532" y2="212.184" gradientUnits="userSpaceOnUse">
<stop stop-color="#ECC4D7"/>
<stop offset="0.42" stop-color="#EFD4D1"/>
<stop offset="1" stop-color="#F2EAC9"/>
</linearGradient>
<linearGradient id="paint16_linear_1359_6392" x1="275.484" y1="49.771" x2="288.737" y2="53.3272" gradientUnits="userSpaceOnUse">
<stop stop-color="#ECC4D7"/>
<stop offset="0.42" stop-color="#EFD4D1"/>
<stop offset="1" stop-color="#F2EAC9"/>
</linearGradient>
<linearGradient id="paint17_linear_1359_6392" x1="286.765" y1="42.5024" x2="253.028" y2="75.1191" gradientUnits="userSpaceOnUse">
<stop stop-color="#ECC4D7"/>
<stop offset="0.42" stop-color="#EFD4D1"/>
<stop offset="1" stop-color="#F2EAC9"/>
</linearGradient>
<linearGradient id="paint18_linear_1359_6392" x1="268.486" y1="28.2136" x2="296.551" y2="35.7442" gradientUnits="userSpaceOnUse">
<stop stop-color="#ECC4D7"/>
<stop offset="0.42" stop-color="#EFD4D1"/>
<stop offset="1" stop-color="#F2EAC9"/>
</linearGradient>
<linearGradient id="paint19_linear_1359_6392" x1="255.78" y1="111.839" x2="280.83" y2="111.839" gradientUnits="userSpaceOnUse">
<stop stop-color="#ECC4D7"/>
<stop offset="0.42" stop-color="#EFD4D1"/>
<stop offset="1" stop-color="#F2EAC9"/>
</linearGradient>
<linearGradient id="paint20_linear_1359_6392" x1="218.963" y1="75.1787" x2="235.628" y2="75.1787" gradientUnits="userSpaceOnUse">
<stop stop-color="white"/>
<stop offset="0.42" stop-color="#EFD4D1"/>
<stop offset="1" stop-color="#F2EAC9"/>
</linearGradient>
<linearGradient id="paint21_linear_1359_6392" x1="228.55" y1="59.179" x2="262.176" y2="140.606" gradientUnits="userSpaceOnUse">
<stop stop-color="white" stop-opacity="0"/>
<stop offset="0.99" stop-color="white"/>
</linearGradient>
<linearGradient id="paint22_linear_1359_6392" x1="218.963" y1="75.1712" x2="230.115" y2="75.1712" gradientUnits="userSpaceOnUse">
<stop stop-color="#ECC4D7"/>
<stop offset="0.42" stop-color="#EFD4D1"/>
<stop offset="1" stop-color="#F2EAC9"/>
</linearGradient>
<clipPath id="clip0_1359_6392">
<rect width="565" height="417" fill="white"/>
</clipPath>
</defs>
</svg>
